<svg width="11" height="18" viewBox="0 0 11 18" fill="none" xmlns="http://www.w3.org/2000/svg">
<path d="M0.5 9.02604C0.5 9.37959 0.631319 9.68264 0.91416 9.94527L8.7731 17.6426C8.99533 17.8648 9.27817 17.986 9.61152 17.986C10.2782 17.986 10.8136 17.4608 10.8136 16.784C10.8136 16.4506 10.6722 16.1577 10.4499 15.9253L3.36882 9.02604L10.4499 2.12674C10.6722 1.89441 10.8136 1.59136 10.8136 1.26811C10.8136 0.591316 10.2782 0.06604 9.61152 0.06604C9.27817 0.06604 8.99533 0.187258 8.7731 0.40949L0.91416 8.09671C0.631319 8.36944 0.5 8.67249 0.5 9.02604Z" fill="white"/>
</svg>
