<svg width="11" height="18" viewBox="0 0 11 18" fill="none" xmlns="http://www.w3.org/2000/svg">
<path d="M0 9.00001C0 9.35356 0.131319 9.6566 0.41416 9.91924L8.2731 17.6166C8.49533 17.8388 8.77817 17.96 9.11152 17.96C9.77822 17.96 10.3136 17.4347 10.3136 16.7579C10.3136 16.4246 10.1722 16.1316 9.94994 15.8993L2.86882 9.00001L9.94994 2.10071C10.1722 1.86837 10.3136 1.56533 10.3136 1.24208C10.3136 0.565285 9.77822 0.0400085 9.11152 0.0400085C8.77817 0.0400085 8.49533 0.161226 8.2731 0.383458L0.41416 8.07067C0.131319 8.34341 0 8.64646 0 9.00001Z" fill="#1A4563"/>
</svg>
