<svg width="295" height="61" viewBox="0 0 295 61" fill="none" xmlns="http://www.w3.org/2000/svg">
<rect x="0.15" y="0.15" width="294.7" height="43.7" rx="3.85" fill="white" stroke="#B3BAC6" stroke-width="0.3"/>
<path fill-rule="evenodd" clip-rule="evenodd" d="M270.121 22C270.121 23.7778 271.403 25.2243 272.985 25.2243C274.56 25.2243 275.842 23.7778 275.842 22C275.842 20.2142 274.56 18.7677 272.985 18.7677C271.403 18.7677 270.121 20.2142 270.121 22ZM277.195 17.0384C278.448 18.1374 279.514 19.7455 280.281 21.7576C280.338 21.9111 280.338 22.0889 280.281 22.2344C278.748 26.2586 276.021 28.6667 272.985 28.6667H272.978C269.95 28.6667 267.222 26.2586 265.69 22.2344C265.633 22.0889 265.633 21.9111 265.69 21.7576C267.222 17.7333 269.95 15.3333 272.978 15.3333H272.985C274.503 15.3333 275.942 15.9313 277.195 17.0384ZM272.986 24.0104C273.967 24.0104 274.769 23.1053 274.769 21.9982C274.769 20.8831 273.967 19.978 272.986 19.978C272.9 19.978 272.814 19.9861 272.735 20.0023C272.707 20.8912 272.062 21.6023 271.268 21.6023H271.232C271.211 21.7316 271.196 21.8609 271.196 21.9982C271.196 23.1053 271.998 24.0104 272.986 24.0104Z" fill="#1E1410"/>
</svg>
