<svg width="295" height="44" viewBox="0 0 295 44" fill="none" xmlns="http://www.w3.org/2000/svg">
<path d="M0 4C0 1.79086 1.79086 0 4 0H291C293.209 0 295 1.79086 295 4V40C295 42.2091 293.209 44 291 44H4.00001C1.79087 44 0 42.2091 0 40V4Z" fill="#1C6BA4"/>
<path d="M127.909 26.5V16.63H130.485V24.358H134.881V26.5H127.909Z" fill="white"/>
<path d="M139.908 26.654C139.143 26.654 138.475 26.5093 137.906 26.22C137.337 25.9307 136.893 25.5153 136.576 24.974C136.259 24.4327 136.1 23.7933 136.1 23.056C136.1 22.3093 136.259 21.67 136.576 21.138C136.893 20.5967 137.337 20.1813 137.906 19.892C138.475 19.6027 139.143 19.458 139.908 19.458C140.673 19.458 141.341 19.6027 141.91 19.892C142.479 20.1813 142.918 20.5967 143.226 21.138C143.543 21.67 143.702 22.3093 143.702 23.056C143.702 23.7933 143.543 24.4327 143.226 24.974C142.918 25.5153 142.479 25.9307 141.91 26.22C141.341 26.5093 140.673 26.654 139.908 26.654ZM139.908 24.82C140.281 24.82 140.589 24.68 140.832 24.4C141.075 24.12 141.196 23.672 141.196 23.056C141.196 22.4307 141.075 21.9827 140.832 21.712C140.589 21.432 140.281 21.292 139.908 21.292C139.525 21.292 139.213 21.432 138.97 21.712C138.727 21.9827 138.606 22.4307 138.606 23.056C138.606 23.672 138.727 24.12 138.97 24.4C139.213 24.68 139.525 24.82 139.908 24.82Z" fill="white"/>
<path d="M148.82 29.174C148.129 29.174 147.48 29.1087 146.874 28.978C146.276 28.8473 145.763 28.6327 145.334 28.334L145.978 26.654C146.332 26.8687 146.752 27.0367 147.238 27.158C147.732 27.2793 148.18 27.34 148.582 27.34C149.151 27.34 149.576 27.2187 149.856 26.976C150.145 26.7427 150.29 26.374 150.29 25.87V25.226C150.094 25.562 149.8 25.828 149.408 26.024C149.016 26.22 148.596 26.318 148.148 26.318C147.532 26.318 146.995 26.178 146.538 25.898C146.08 25.6087 145.721 25.2073 145.46 24.694C145.208 24.1807 145.082 23.5787 145.082 22.888C145.082 22.1973 145.208 21.5953 145.46 21.082C145.721 20.5687 146.08 20.172 146.538 19.892C146.995 19.6027 147.532 19.458 148.148 19.458C148.614 19.458 149.039 19.5607 149.422 19.766C149.814 19.962 150.098 20.2233 150.276 20.55V19.612H152.712V25.576C152.712 26.78 152.376 27.6807 151.704 28.278C151.032 28.8753 150.07 29.174 148.82 29.174ZM148.918 24.484C149.328 24.484 149.655 24.344 149.898 24.064C150.14 23.784 150.262 23.392 150.262 22.888C150.262 22.384 150.14 21.992 149.898 21.712C149.655 21.432 149.328 21.292 148.918 21.292C148.516 21.292 148.194 21.432 147.952 21.712C147.709 21.992 147.588 22.384 147.588 22.888C147.588 23.392 147.709 23.784 147.952 24.064C148.194 24.344 148.516 24.484 148.918 24.484Z" fill="white"/>
<path d="M154.657 18.422V16.168H157.275V18.422H154.657ZM154.727 26.5V19.612H157.219V26.5H154.727Z" fill="white"/>
<path d="M159.225 26.5V19.612H161.647V20.55C161.89 20.1953 162.202 19.9247 162.585 19.738C162.968 19.5513 163.397 19.458 163.873 19.458C164.694 19.458 165.301 19.7007 165.693 20.186C166.094 20.6713 166.295 21.418 166.295 22.426V26.5H163.803V22.524C163.803 22.104 163.728 21.8053 163.579 21.628C163.439 21.4507 163.229 21.362 162.949 21.362C162.576 21.362 162.277 21.4833 162.053 21.726C161.829 21.9593 161.717 22.2767 161.717 22.678V26.5H159.225Z" fill="white"/>
</svg>
