<svg width="18" height="11" viewBox="0 0 18 11" fill="none" xmlns="http://www.w3.org/2000/svg">
<path fill-rule="evenodd" clip-rule="evenodd" d="M16.0271 0.166664H15.0271C14.4748 0.166664 14.0271 0.614379 14.0271 1.16666V9.83333C14.0271 10.3856 14.4748 10.8333 15.0271 10.8333H16.0271C16.5794 10.8333 17.0271 10.3856 17.0271 9.83333V1.16666C17.0271 0.614379 16.5794 0.166664 16.0271 0.166664ZM10.3604 2.5H11.3604C11.9127 2.5 12.3604 2.94771 12.3604 3.5V9.83333C12.3604 10.3856 11.9127 10.8333 11.3604 10.8333H10.3604C9.80815 10.8333 9.36043 10.3856 9.36043 9.83333V3.5C9.36043 2.94771 9.80815 2.5 10.3604 2.5ZM6.69377 4.83333H5.69377C5.14148 4.83333 4.69377 5.28105 4.69377 5.83333V9.83333C4.69377 10.3856 5.14148 10.8333 5.69377 10.8333H6.69377C7.24605 10.8333 7.69377 10.3856 7.69377 9.83333V5.83333C7.69377 5.28105 7.24605 4.83333 6.69377 4.83333ZM2.0271 6.83333H1.0271C0.474815 6.83333 0.0270996 7.28105 0.0270996 7.83333V9.83333C0.0270996 10.3856 0.474815 10.8333 1.0271 10.8333H2.0271C2.57938 10.8333 3.0271 10.3856 3.0271 9.83333V7.83333C3.0271 7.28105 2.57938 6.83333 2.0271 6.83333Z" fill="#141023"/>
</svg>
