<svg width="68" height="12" viewBox="0 0 68 12" fill="none" xmlns="http://www.w3.org/2000/svg">
<path fill-rule="evenodd" clip-rule="evenodd" d="M46.9834 0.25H61.8045C63.0526 0.25 63.5052 0.379956 63.9615 0.623986C64.4178 0.868016 64.7759 1.22612 65.0199 1.68242C65.264 2.13871 65.3939 2.59131 65.3939 3.83944V8.16056C65.3939 9.40869 65.264 9.86129 65.0199 10.3176C64.7759 10.7739 64.4178 11.132 63.9615 11.376C63.5052 11.62 63.0526 11.75 61.8045 11.75H46.9834C45.7352 11.75 45.2826 11.62 44.8263 11.376C44.37 11.132 44.0119 10.7739 43.7679 10.3176C43.5239 9.86129 43.3939 9.40869 43.3939 8.16056V3.83944C43.3939 2.59131 43.5239 2.13871 43.7679 1.68242C44.0119 1.22612 44.37 0.868016 44.8263 0.623986C45.2826 0.379956 45.7352 0.25 46.9834 0.25ZM46.9834 1.25C45.9964 1.25 45.6518 1.31654 45.2979 1.5058C45.0159 1.65663 44.8005 1.87199 44.6497 2.15401C44.4605 2.5079 44.3939 2.85246 44.3939 3.83944V8.16056C44.3939 9.14754 44.4605 9.4921 44.6497 9.84599C44.8005 10.128 45.0159 10.3434 45.2979 10.4942C45.6518 10.6835 45.9964 10.75 46.9834 10.75H61.8045C62.7915 10.75 63.136 10.6835 63.4899 10.4942C63.7719 10.3434 63.9873 10.128 64.1381 9.84599C64.3274 9.4921 64.3939 9.14754 64.3939 8.16056V3.83944C64.3939 2.85246 64.3274 2.5079 64.1381 2.15401C63.9873 1.87199 63.7719 1.65663 63.4899 1.5058C63.136 1.31654 62.7915 1.25 61.8045 1.25H46.9834ZM67.8939 5.94C67.8939 7.17657 66.3939 7.94 66.3939 7.94V3.94C66.3939 3.94 67.8939 4.70343 67.8939 5.94Z" fill="#1A1B36" fill-opacity="0.36"/>
<rect x="45.3939" y="2.16666" width="18" height="7.66667" rx="1.6" fill="#1A4563"/>
<path fill-rule="evenodd" clip-rule="evenodd" d="M15.017 1.65589C14.9939 1.77181 14.9939 1.91121 14.9939 2.19V9.89C14.9939 10.1688 14.9939 10.3082 15.017 10.4241C15.1117 10.9001 15.4838 11.2723 15.9598 11.3669C16.0757 11.39 16.2151 11.39 16.4939 11.39C16.7727 11.39 16.9121 11.39 17.028 11.3669C17.504 11.2723 17.8762 10.9001 17.9709 10.4241C17.9939 10.3082 17.9939 10.1688 17.9939 9.89V2.19C17.9939 1.91121 17.9939 1.77181 17.9709 1.65589C17.8762 1.17987 17.504 0.807748 17.028 0.71306C16.9121 0.690002 16.7727 0.690002 16.4939 0.690002C16.2151 0.690002 16.0757 0.690002 15.9598 0.71306C15.4838 0.807748 15.1117 1.17987 15.017 1.65589ZM10.2939 4.59C10.2939 4.31121 10.2939 4.17181 10.317 4.0559C10.4117 3.57987 10.7838 3.20775 11.2598 3.11306C11.3757 3.09 11.5151 3.09 11.7939 3.09C12.0727 3.09 12.2121 3.09 12.328 3.11306C12.8041 3.20775 13.1762 3.57987 13.2709 4.0559C13.2939 4.17181 13.2939 4.31121 13.2939 4.59V9.89001C13.2939 10.1688 13.2939 10.3082 13.2709 10.4241C13.1762 10.9001 12.8041 11.2723 12.328 11.3669C12.2121 11.39 12.0727 11.39 11.7939 11.39C11.5151 11.39 11.3757 11.39 11.2598 11.3669C10.7838 11.2723 10.4117 10.9001 10.317 10.4241C10.2939 10.3082 10.2939 10.1688 10.2939 9.89001V4.59ZM5.71697 6.3559C5.69391 6.47182 5.69391 6.61121 5.69391 6.89001V9.89001C5.69391 10.1688 5.69391 10.3082 5.71697 10.4241C5.81165 10.9001 6.18377 11.2723 6.6598 11.3669C6.77572 11.39 6.91512 11.39 7.19391 11.39C7.4727 11.39 7.6121 11.39 7.72802 11.3669C8.20405 11.2723 8.57616 10.9001 8.67085 10.4241C8.69391 10.3082 8.69391 10.1688 8.69391 9.89001V6.89001C8.69391 6.61121 8.69391 6.47182 8.67085 6.3559C8.57616 5.87987 8.20405 5.50775 7.72802 5.41306C7.6121 5.39001 7.4727 5.39001 7.19391 5.39001C6.91512 5.39001 6.77572 5.39001 6.6598 5.41306C6.18377 5.50775 5.81165 5.87987 5.71697 6.3559ZM0.916979 8.3559C0.893921 8.47182 0.893921 8.61121 0.893921 8.89001V9.89001C0.893921 10.1688 0.893921 10.3082 0.916979 10.4241C1.01167 10.9001 1.38378 11.2723 1.85981 11.3669C1.97573 11.39 2.11513 11.39 2.39392 11.39C2.67271 11.39 2.81211 11.39 2.92803 11.3669C3.40406 11.2723 3.77618 10.9001 3.87086 10.4241C3.89392 10.3082 3.89392 10.1688 3.89392 9.89001V8.89001C3.89392 8.61121 3.89392 8.47182 3.87086 8.3559C3.77618 7.87987 3.40406 7.50775 2.92803 7.41306C2.81211 7.39001 2.67271 7.39001 2.39392 7.39001C2.11513 7.39001 1.97573 7.39001 1.85981 7.41306C1.38378 7.50775 1.01167 7.87987 0.916979 8.3559Z" fill="#1A4563"/>
<path fill-rule="evenodd" clip-rule="evenodd" d="M30.6943 2.78637C32.9287 2.78646 35.0777 3.64502 36.6971 5.18457C36.819 5.30343 37.0139 5.30193 37.134 5.18121L38.2997 4.0048C38.3605 3.94357 38.3944 3.86063 38.3939 3.77433C38.3934 3.68804 38.3585 3.6055 38.297 3.54499C34.0467 -0.528322 27.3413 -0.528322 23.091 3.54499C23.0294 3.60546 22.9945 3.68797 22.9939 3.77426C22.9933 3.86056 23.0272 3.94352 23.0879 4.0048L24.2539 5.18121C24.374 5.30212 24.569 5.30362 24.6909 5.18457C26.3105 3.64492 28.4597 2.78636 30.6943 2.78637ZM30.6943 6.61375C31.922 6.61368 33.1058 7.06999 34.0158 7.89403C34.1389 8.01098 34.3328 8.00844 34.4528 7.88832L35.6171 6.7119C35.6784 6.65019 35.7124 6.56648 35.7116 6.4795C35.7107 6.39251 35.675 6.30951 35.6124 6.24906C32.8412 3.67132 28.5497 3.67132 25.7786 6.24906C25.716 6.30951 25.6803 6.39255 25.6795 6.47957C25.6786 6.56658 25.7128 6.65028 25.7742 6.7119L26.9382 7.88832C27.0582 8.00844 27.2521 8.01098 27.3751 7.89403C28.2845 7.07054 29.4675 6.61426 30.6943 6.61375ZM32.9319 9.42135C32.9941 9.36024 33.0284 9.27614 33.0266 9.18891C33.0249 9.10168 32.9872 9.01905 32.9224 8.96053C31.6362 7.87263 29.7524 7.87263 28.4662 8.96053C28.4014 9.01901 28.3637 9.10161 28.3618 9.18884C28.36 9.27607 28.3942 9.3602 28.4564 9.42135L30.4708 11.4539C30.5298 11.5136 30.6103 11.5472 30.6943 11.5472C30.7783 11.5472 30.8588 11.5136 30.9178 11.4539L32.9319 9.42135Z" fill="#1A4563"/>
</svg>
