<svg width="25" height="25" viewBox="0 0 25 25" fill="none" xmlns="http://www.w3.org/2000/svg">
<g clip-path="url(#clip0_2702_208)">
<path d="M18.3 11.53H6.3V13.93H18.3V11.53ZM20.7 3.12998H19.5V0.72998H17.1V3.12998H7.5V0.72998H5.1V3.12998H3.9C2.568 3.12998 1.512 4.20998 1.512 5.52998L1.5 22.33C1.5 23.65 2.568 24.73 3.9 24.73H20.7C22.02 24.73 23.1 23.65 23.1 22.33V5.52998C23.1 4.20998 22.02 3.12998 20.7 3.12998ZM20.7 22.33H3.9V9.12998H20.7V22.33ZM14.7 16.33H6.3V18.73H14.7V16.33Z" fill="#7B8D9E"/>
</g>
<defs>
<clipPath id="clip0_2702_208">
<rect width="24" height="24" fill="white" transform="translate(0.5 0.72998)"/>
</clipPath>
</defs>
</svg>
