<svg width="205" height="19" viewBox="0 0 205 19" fill="none" xmlns="http://www.w3.org/2000/svg">
<path d="M165.8 9.5C165.8 9.84978 165.069 10.1333 164.167 10.1333C163.265 10.1333 162.533 9.84978 162.533 9.5C162.533 9.15022 163.265 8.86667 164.167 8.86667C165.069 8.86667 165.8 9.15022 165.8 9.5Z" stroke="#0C1115" stroke-opacity="0.62" stroke-width="2"/>
<path d="M182.133 9.5C182.133 9.84978 181.402 10.1333 180.5 10.1333C179.598 10.1333 178.867 9.84978 178.867 9.5C178.867 9.15022 179.598 8.86667 180.5 8.86667C181.402 8.86667 182.133 9.15022 182.133 9.5Z" stroke="#0C1115" stroke-opacity="0.62" stroke-width="2"/>
<path d="M198.467 9.5C198.467 9.84978 197.736 10.1333 196.833 10.1333C195.931 10.1333 195.2 9.84978 195.2 9.5C195.2 9.15022 195.931 8.86667 196.833 8.86667C197.736 8.86667 198.467 9.15022 198.467 9.5Z" stroke="#0C1115" stroke-opacity="0.62" stroke-width="2"/>
</svg>
