<svg width="231" height="44" viewBox="0 0 231 44" fill="none" xmlns="http://www.w3.org/2000/svg">
<path d="M0.5 6C0.5 2.68629 3.18629 0 6.5 0H64.5C67.8137 0 70.5 2.68629 70.5 6V38C70.5 41.3137 67.8137 44 64.5 44H6.5C3.18629 44 0.5 41.3137 0.5 38V6Z" fill="white"/>
<path fill-rule="evenodd" clip-rule="evenodd" d="M64.5 0.3H6.5C3.35198 0.3 0.8 2.85198 0.8 6V38C0.8 41.148 3.35198 43.7 6.5 43.7H64.5C67.648 43.7 70.2 41.148 70.2 38V6C70.2 2.85198 67.648 0.3 64.5 0.3ZM6.5 0C3.18629 0 0.5 2.68629 0.5 6V38C0.5 41.3137 3.18629 44 6.5 44H64.5C67.8137 44 70.5 41.3137 70.5 38V6C70.5 2.68629 67.8137 0 64.5 0H6.5Z" fill="#B3BAC6"/>
<g clip-path="url(#clip0_2702_1722)">
<path d="M45.2617 22.1871C45.2617 21.3677 45.1952 20.7698 45.0513 20.1497H35.6947V23.848H41.1868C41.0762 24.7671 40.4782 26.1512 39.1494 27.0813L39.1308 27.2051L42.0892 29.497L42.2942 29.5174C44.1765 27.779 45.2617 25.2211 45.2617 22.1871Z" fill="#4285F4"/>
<path d="M35.6947 31.9313C38.3854 31.9313 40.6442 31.0454 42.2941 29.5174L39.1494 27.0813C38.3079 27.6682 37.1784 28.0779 35.6947 28.0779C33.0593 28.0779 30.8226 26.3395 30.0253 23.9366L29.9084 23.9466L26.8322 26.3273L26.792 26.4391C28.4308 29.6945 31.797 31.9313 35.6947 31.9313Z" fill="#34A853"/>
<path d="M30.0253 23.9366C29.8149 23.3166 29.6931 22.6521 29.6931 21.9657C29.6931 21.2791 29.8149 20.6147 30.0142 19.9947L30.0086 19.8626L26.8939 17.4437L26.792 17.4921C26.1166 18.8431 25.729 20.3601 25.729 21.9657C25.729 23.5712 26.1166 25.0882 26.792 26.4391L30.0253 23.9366Z" fill="#FBBC05"/>
<path d="M35.6947 15.8534C37.566 15.8534 38.8283 16.6617 39.548 17.3372L42.3605 14.5911C40.6332 12.9855 38.3854 12 35.6947 12C31.797 12 28.4308 14.2367 26.792 17.4921L30.0142 19.9947C30.8226 17.5918 33.0593 15.8534 35.6947 15.8534Z" fill="#EB4335"/>
</g>
<path d="M80.5 6C80.5 2.68629 83.1863 0 86.5 0H144.5C147.814 0 150.5 2.68629 150.5 6V38C150.5 41.3137 147.814 44 144.5 44H86.5C83.1863 44 80.5 41.3137 80.5 38V6Z" fill="white"/>
<path fill-rule="evenodd" clip-rule="evenodd" d="M144.5 0.3H86.5C83.352 0.3 80.8 2.85198 80.8 6V38C80.8 41.148 83.352 43.7 86.5 43.7H144.5C147.648 43.7 150.2 41.148 150.2 38V6C150.2 2.85198 147.648 0.3 144.5 0.3ZM86.5 0C83.1863 0 80.5 2.68629 80.5 6V38C80.5 41.3137 83.1863 44 86.5 44H144.5C147.814 44 150.5 41.3137 150.5 38V6C150.5 2.68629 147.814 0 144.5 0H86.5Z" fill="#B3BAC6"/>
<path d="M120.917 12.7917C120.917 12.648 120.86 12.5102 120.758 12.4086C120.656 12.3071 120.519 12.25 120.375 12.25H117.667C116.303 12.1821 114.968 12.6567 113.953 13.5701C112.938 14.4836 112.326 15.7616 112.25 17.125V20.05H109.542C109.398 20.05 109.26 20.1071 109.159 20.2086C109.057 20.3102 109 20.448 109 20.5917V23.4083C109 23.552 109.057 23.6898 109.159 23.7913C109.26 23.8929 109.398 23.95 109.542 23.95H112.25V31.2083C112.25 31.352 112.307 31.4898 112.409 31.5913C112.51 31.6929 112.648 31.75 112.792 31.75H116.042C116.185 31.75 116.323 31.6929 116.425 31.5913C116.526 31.4898 116.583 31.352 116.583 31.2083V23.95H119.422C119.542 23.9517 119.66 23.9133 119.756 23.8407C119.852 23.7681 119.921 23.6655 119.952 23.5492L120.732 20.7325C120.754 20.6525 120.757 20.5685 120.741 20.4872C120.725 20.4059 120.691 20.3293 120.64 20.2634C120.59 20.1975 120.525 20.1439 120.451 20.1069C120.377 20.0699 120.295 20.0505 120.212 20.05H116.583V17.125C116.61 16.8568 116.736 16.6084 116.937 16.4281C117.137 16.2478 117.397 16.1486 117.667 16.15H120.375C120.519 16.15 120.656 16.0929 120.758 15.9913C120.86 15.8898 120.917 15.752 120.917 15.6083V12.7917Z" fill="#3F5E9D"/>
<path d="M160.5 6C160.5 2.68629 163.186 0 166.5 0H224.5C227.814 0 230.5 2.68629 230.5 6V38C230.5 41.3137 227.814 44 224.5 44H166.5C163.186 44 160.5 41.3137 160.5 38V6Z" fill="white"/>
<path fill-rule="evenodd" clip-rule="evenodd" d="M224.5 0.3H166.5C163.352 0.3 160.8 2.85198 160.8 6V38C160.8 41.148 163.352 43.7 166.5 43.7H224.5C227.648 43.7 230.2 41.148 230.2 38V6C230.2 2.85198 227.648 0.3 224.5 0.3ZM166.5 0C163.186 0 160.5 2.68629 160.5 6V38C160.5 41.3137 163.186 44 166.5 44H224.5C227.814 44 230.5 41.3137 230.5 38V6C230.5 2.68629 227.814 0 224.5 0H166.5Z" fill="#B3BAC6"/>
<g clip-path="url(#clip1_2702_1722)">
<path d="M199.676 11.5105C199.632 11.4606 198.024 11.5302 196.625 13.0488C195.226 14.566 195.441 16.3064 195.472 16.351C195.504 16.3956 197.467 16.4652 198.721 14.6999C199.974 12.9346 199.721 11.5617 199.676 11.5105ZM204.026 26.9101C203.963 26.7841 200.974 25.2904 201.253 22.4187C201.531 19.5456 203.451 18.7581 203.481 18.6728C203.512 18.5875 202.698 17.6359 201.835 17.1543C201.202 16.8147 200.502 16.6201 199.784 16.5846C199.642 16.5807 199.15 16.4599 198.138 16.7369C197.471 16.9193 195.969 17.5099 195.555 17.5336C195.14 17.5572 193.907 16.8484 192.58 16.6608C191.731 16.4967 190.83 16.8327 190.186 17.0913C189.543 17.3485 188.319 18.0809 187.464 20.0273C186.608 21.9724 187.055 25.0542 187.376 26.0123C187.696 26.9691 188.196 28.5376 189.046 29.6821C189.802 30.9736 190.805 31.87 191.224 32.1745C191.643 32.479 192.824 32.6811 193.643 32.2625C194.302 31.8582 195.491 31.6259 195.961 31.643C196.429 31.66 197.353 31.8451 198.3 32.3504C199.049 32.6089 199.758 32.5013 200.468 32.2126C201.178 31.9225 202.206 30.8226 203.405 28.5927C203.861 27.5558 204.068 26.9954 204.026 26.9101Z" fill="black"/>
<path d="M199.676 11.5105C199.632 11.4606 198.024 11.5302 196.625 13.0488C195.226 14.566 195.441 16.3064 195.472 16.351C195.504 16.3956 197.467 16.4652 198.721 14.6999C199.974 12.9346 199.721 11.5617 199.676 11.5105ZM204.026 26.9101C203.963 26.7841 200.974 25.2904 201.253 22.4187C201.531 19.5456 203.451 18.7581 203.481 18.6728C203.512 18.5875 202.698 17.6359 201.835 17.1543C201.202 16.8147 200.502 16.6201 199.784 16.5846C199.642 16.5807 199.15 16.4599 198.138 16.7369C197.471 16.9193 195.969 17.5099 195.555 17.5336C195.14 17.5572 193.907 16.8484 192.58 16.6608C191.731 16.4967 190.83 16.8327 190.186 17.0913C189.543 17.3485 188.319 18.0809 187.464 20.0273C186.608 21.9724 187.055 25.0542 187.376 26.0123C187.696 26.9691 188.196 28.5376 189.046 29.6821C189.802 30.9736 190.805 31.87 191.224 32.1745C191.643 32.479 192.824 32.6811 193.643 32.2625C194.302 31.8582 195.491 31.6259 195.961 31.643C196.429 31.66 197.353 31.8451 198.3 32.3504C199.049 32.6089 199.758 32.5013 200.468 32.2126C201.178 31.9225 202.206 30.8226 203.405 28.5927C203.861 27.5558 204.068 26.9954 204.026 26.9101Z" fill="black"/>
</g>
<defs>
<clipPath id="clip0_2702_1722">
<rect width="19.542" height="20" fill="white" transform="translate(25.729 12)"/>
</clipPath>
<clipPath id="clip1_2702_1722">
<rect width="21" height="21" fill="white" transform="translate(185 11.5)"/>
</clipPath>
</defs>
</svg>
