<svg width="320" height="72" viewBox="0 0 320 72" fill="none" xmlns="http://www.w3.org/2000/svg">
<rect y="0.350525" width="71.4116" height="71.4116" rx="20" fill="#B6E0FD"/>
<path d="M42.5257 38.3299V47.563C43.4064 47.8766 44.0412 48.7089 44.0412 49.6969C44.0412 50.9518 43.0227 51.9703 41.7678 51.9703C40.5132 51.9703 39.4947 50.9518 39.4947 49.6969C39.4947 48.7086 40.1298 47.8767 41.0102 47.563V38.3299H39.4947C39.4947 40.0032 37.7988 41.3611 35.7058 41.3611C33.6126 41.3609 31.9167 40.003 31.9167 38.3299H30.4012V41.4382C32.1291 41.7899 33.4325 43.3191 33.4325 45.15V48.1813C33.4325 49.2649 32.9565 50.3001 32.1275 51.026C31.9834 51.1501 31.8061 51.2123 31.6287 51.2123C31.4181 51.2123 31.2073 51.1245 31.0589 50.9532C30.7831 50.6381 30.8163 50.159 31.1317 49.8832C31.6303 49.4481 31.9167 48.8267 31.9167 48.181V45.1497C31.9167 43.8966 30.8967 42.8766 29.6433 42.8766C28.3899 42.8766 27.37 43.8966 27.37 45.15V48.1813C27.37 48.827 27.6564 49.4484 28.1565 49.8832C28.4716 50.159 28.5036 50.6381 28.2293 50.9532C27.9535 51.2683 27.4729 51.2988 27.1609 51.026C26.3302 50.2998 25.8545 49.2647 25.8545 48.181V45.1498C25.8545 43.3188 27.1578 41.7897 28.8857 41.438L28.8855 38.3298C25.5376 38.3298 22.8232 41.0442 22.8232 44.3921V53.4856H48.5883V44.3921C48.5883 41.0442 45.8737 38.3298 42.5258 38.3298L42.5257 38.3299Z" fill="#1C6BA4"/>
<path d="M33.0854 36.2884C33.8917 36.6248 34.777 36.8141 35.7059 36.8141C36.635 36.8141 37.52 36.6246 38.3264 36.2881C40.7908 35.2608 42.526 32.8311 42.526 29.994V27.7207H28.8857V29.994C28.8857 32.8312 30.6197 35.2608 33.0854 36.2884V36.2884Z" fill="#1C6BA4"/>
<path d="M42.5257 21.5172C40.6434 19.5909 38.1746 18.627 35.7056 18.627C33.2369 18.627 30.7694 19.5909 28.8855 21.5172V26.205H42.5257V21.5172ZM37.979 23.1738H36.4635V24.6893H34.948V23.1738H33.4325L33.4322 21.6583H34.9477L34.948 20.1428H36.4635V21.6583H37.979V23.1738Z" fill="#1C6BA4"/>
<rect x="82.506" y="0.350525" width="71.4116" height="71.4116" rx="20" fill="#FAF0DB"/>
<g style="mix-blend-mode:overlay" clip-path="url(#clip0_2702_113)">
<path d="M118.335 28.862C121.93 28.862 125.379 30.2903 127.921 32.8327C130.463 35.375 131.892 38.8232 131.892 42.4187C131.892 46.0141 130.463 49.4623 127.921 52.0047C125.379 54.5471 121.93 55.9753 118.335 55.9753C114.74 55.9753 111.291 54.5471 108.749 52.0047C106.207 49.4623 104.778 46.0141 104.778 42.4187C104.778 38.8232 106.207 35.375 108.749 32.8327C111.291 30.2903 114.74 28.862 118.335 28.862ZM118.335 32.2512C115.638 32.2512 113.052 33.3224 111.145 35.2292C109.239 37.136 108.167 39.7221 108.167 42.4187C108.167 45.1153 109.239 47.7014 111.145 49.6082C113.052 51.515 115.638 52.5862 118.335 52.5862C121.032 52.5862 123.618 51.515 125.524 49.6082C127.431 47.7014 128.502 45.1153 128.502 42.4187C128.502 39.7221 127.431 37.136 125.524 35.2292C123.618 33.3224 121.032 32.2512 118.335 32.2512ZM118.335 34.7931L120.577 39.3345L125.588 40.0632L121.961 43.5964L122.817 48.5887L118.335 46.2315L113.853 48.587L114.709 43.5964L111.082 40.0615L116.093 39.3328L118.335 34.7931ZM128.502 20.3891V25.4728L126.193 27.4013C124.276 26.3957 122.183 25.7691 120.03 25.5559V20.3891H128.502ZM116.64 20.3874V25.5559C114.487 25.7688 112.395 26.3948 110.479 27.3996L108.167 25.4728V20.3891L116.64 20.3874Z" fill="black"/>
</g>
<rect x="165.012" y="0.350525" width="71.4116" height="71.4116" rx="20" fill="#D6F6FF"/>
<path d="M203.434 35.077L201.955 32.9021L200.492 36.1394C200.41 36.3231 200.252 36.432 200.072 36.432L200.071 36.4322C199.891 36.4322 199.733 36.3244 199.651 36.1417L198.616 33.8871L197.995 35.0334C197.881 35.248 197.631 35.3967 197.387 35.3967H194.748C194.54 35.3967 194.372 35.5655 194.372 35.7732C194.372 35.981 194.54 36.1507 194.748 36.1507H197.237C197.976 36.9843 199.072 37.7394 200.638 38.2796C202.666 37.5806 203.912 36.5251 204.601 35.3968H204.039C203.811 35.3986 203.561 35.2669 203.434 35.0771L203.434 35.077Z" fill="#009DC7"/>
<path d="M206.993 33.9007H205.204C205.595 32.0606 204.771 30.347 203.645 29.9446C201.625 29.2226 200.638 31.049 200.638 31.049C200.638 31.049 199.651 29.2226 197.63 29.9446C196.353 30.4008 195.465 32.5437 196.294 34.6446H197.35L198.221 33.031C198.313 32.8602 198.473 32.7605 198.651 32.7664C198.828 32.7724 198.982 32.8814 199.064 33.059L200.069 35.2479L201.469 32.1516C201.545 31.9817 201.693 31.8709 201.864 31.856C202.038 31.8381 202.202 31.925 202.304 32.0796L204.056 34.6537H206.992C207.198 34.6537 207.368 34.4839 207.368 34.2763C207.368 34.0685 207.199 33.9007 206.993 33.9007L206.993 33.9007Z" fill="#009DC7"/>
<path d="M210.782 24.3257H206.554L206.554 23.5118C206.554 22.8806 206.041 22.3685 205.41 22.3685H204.419C203.725 21.1243 202.397 20.2816 200.872 20.2816C199.345 20.2816 198.017 21.1245 197.322 22.3685H196.331C195.699 22.3685 195.187 22.8808 195.187 23.5118V24.3245L190.957 24.3247C189.807 24.3247 188.87 25.2614 188.87 26.4116L188.87 50.1485C188.87 51.2989 189.807 52.2353 190.957 52.2353H210.782C211.932 52.2353 212.869 51.2986 212.869 50.1485L212.869 26.4122C212.869 25.2611 211.932 24.3253 210.782 24.3253L210.782 24.3257ZM190.957 50.1485V26.4122H195.185V27.5516C195.185 28.1837 195.699 28.6949 196.33 28.6949H205.409C206.041 28.6949 206.553 28.1837 206.553 27.5516L206.552 26.4122H210.78L210.782 50.1485H190.957Z" fill="#009DC7"/>
<path d="M202.384 41.4443C202.384 41.5671 202.284 41.667 202.161 41.667L193.84 41.6668C193.717 41.6668 193.617 41.5671 193.617 41.4441V40.5543C193.617 40.4316 193.717 40.3316 193.84 40.3316H202.162C202.284 40.3316 202.384 40.4314 202.384 40.5543L202.384 41.4443Z" fill="#009DC7"/>
<path d="M205.941 42.3869C205.699 42.3869 205.475 42.272 205.321 42.0695L203.589 39.8L204.543 39.0721L205.9 40.8513L208.118 37.2107L209.141 37.8347L206.604 42.0036C206.463 42.2332 206.238 42.3729 205.98 42.3869C205.966 42.3858 205.955 42.3869 205.941 42.3869L205.941 42.3869Z" fill="#009DC7"/>
<path d="M202.384 47.4444C202.384 47.5672 202.284 47.666 202.161 47.666L193.84 47.6662C193.717 47.6662 193.617 47.5674 193.617 47.4447V46.554C193.617 46.4312 193.717 46.3312 193.84 46.3312H202.162C202.284 46.3312 202.384 46.431 202.384 46.554L202.384 47.4444Z" fill="#009DC7"/>
<path d="M205.941 48.3865C205.699 48.3865 205.475 48.2716 205.321 48.0691L203.589 45.7995L204.543 45.0716L205.9 46.85L208.118 43.2094L209.141 43.8334L206.604 48.0033C206.463 48.232 206.238 48.3727 205.98 48.3867C205.966 48.3865 205.955 48.3865 205.941 48.3865L205.941 48.3865Z" fill="#009DC7"/>
<rect x="247.929" width="71.4116" height="71.4116" rx="20" fill="#F2E3E9"/>
<g style="mix-blend-mode:overlay" clip-path="url(#clip1_2702_113)">
<g filter="url(#filter0_b_2702_113)">
<path d="M272.473 22.0838V49.1971H299.586V52.5863H269.084V22.0838H272.473ZM298.388 27.664L300.784 30.0602L291.113 39.7311L286.03 34.6491L278.755 41.9222L276.359 39.5261L286.03 29.8551L291.113 34.9372L298.388 27.664Z" fill="#150C0C"/>
</g>
</g>
<defs>
<filter id="filter0_b_2702_113" x="265.084" y="18.0838" width="39.7007" height="38.5025" filterUnits="userSpaceOnUse" color-interpolation-filters="sRGB">
<feFlood flood-opacity="0" result="BackgroundImageFix"/>
<feGaussianBlur in="BackgroundImageFix" stdDeviation="2"/>
<feComposite in2="SourceAlpha" operator="in" result="effect1_backgroundBlur_2702_113"/>
<feBlend mode="normal" in="SourceGraphic" in2="effect1_backgroundBlur_2702_113" result="shape"/>
</filter>
<clipPath id="clip0_2702_113">
<rect width="40.67" height="40.67" fill="white" transform="translate(98 16.9999)"/>
</clipPath>
<clipPath id="clip1_2702_113">
<rect width="40.67" height="40.67" fill="white" transform="translate(264 17)"/>
</clipPath>
</defs>
</svg>
