<svg width="295" height="305" viewBox="0 0 295 305" fill="none" xmlns="http://www.w3.org/2000/svg">
<path d="M0 20C0 17.7909 1.79086 16 4 16H291C293.209 16 295 17.7909 295 20V56C295 58.2091 293.209 60 291 60H4.00001C1.79087 60 0 58.2091 0 56V20Z" fill="white"/>
<path fill-rule="evenodd" clip-rule="evenodd" d="M270.121 38C270.121 39.7778 271.403 41.2243 272.985 41.2243C274.56 41.2243 275.842 39.7778 275.842 38C275.842 36.2142 274.56 34.7677 272.985 34.7677C271.403 34.7677 270.121 36.2142 270.121 38ZM277.195 33.0384C278.448 34.1374 279.514 35.7455 280.281 37.7576C280.338 37.9111 280.338 38.0889 280.281 38.2344C278.748 42.2586 276.021 44.6667 272.985 44.6667H272.978C269.95 44.6667 267.222 42.2586 265.69 38.2344C265.633 38.0889 265.633 37.9111 265.69 37.7576C267.222 33.7333 269.95 31.3333 272.978 31.3333H272.985C274.503 31.3333 275.942 31.9313 277.195 33.0384ZM272.986 40.0104C273.967 40.0104 274.769 39.1053 274.769 37.9982C274.769 36.8831 273.967 35.978 272.986 35.978C272.9 35.978 272.814 35.9861 272.735 36.0023C272.707 36.8912 272.062 37.6023 271.268 37.6023H271.232C271.211 37.7316 271.196 37.8609 271.196 37.9982C271.196 39.1053 271.998 40.0104 272.986 40.0104Z" fill="#1E1410"/>
<path d="M7.534 40.97C7.07667 40.97 6.65667 40.8627 6.274 40.648C5.89133 40.424 5.58333 40.1253 5.35 39.752C5.11667 39.3787 5 38.9587 5 38.492C5 38.0627 5.10733 37.6613 5.322 37.288C5.546 36.9053 5.84933 36.5973 6.232 36.364C6.61467 36.1213 7.04867 36 7.534 36C7.982 36 8.39733 36.1073 8.78 36.322C9.172 36.5367 9.48467 36.8353 9.718 37.218C9.95133 37.5913 10.068 38.016 10.068 38.492C10.068 38.9493 9.95133 39.3647 9.718 39.738C9.494 40.1113 9.19067 40.41 8.808 40.634C8.42533 40.858 8.00067 40.97 7.534 40.97Z" fill="#1A4563"/>
<path d="M16.2758 40.97C15.8185 40.97 15.3985 40.8627 15.0158 40.648C14.6331 40.424 14.3251 40.1253 14.0918 39.752C13.8585 39.3787 13.7418 38.9587 13.7418 38.492C13.7418 38.0627 13.8491 37.6613 14.0638 37.288C14.2878 36.9053 14.5911 36.5973 14.9738 36.364C15.3565 36.1213 15.7905 36 16.2758 36C16.7238 36 17.1391 36.1073 17.5218 36.322C17.9138 36.5367 18.2265 36.8353 18.4598 37.218C18.6931 37.5913 18.8098 38.016 18.8098 38.492C18.8098 38.9493 18.6931 39.3647 18.4598 39.738C18.2358 40.1113 17.9325 40.41 17.5498 40.634C17.1671 40.858 16.7425 40.97 16.2758 40.97Z" fill="#1A4563"/>
<path d="M25.0176 40.97C24.5603 40.97 24.1403 40.8627 23.7576 40.648C23.3749 40.424 23.0669 40.1253 22.8336 39.752C22.6003 39.3787 22.4836 38.9587 22.4836 38.492C22.4836 38.0627 22.5909 37.6613 22.8056 37.288C23.0296 36.9053 23.3329 36.5973 23.7156 36.364C24.0983 36.1213 24.5323 36 25.0176 36C25.4656 36 25.8809 36.1073 26.2636 36.322C26.6556 36.5367 26.9683 36.8353 27.2016 37.218C27.4349 37.5913 27.5516 38.016 27.5516 38.492C27.5516 38.9493 27.4349 39.3647 27.2016 39.738C26.9776 40.1113 26.6743 40.41 26.2916 40.634C25.9089 40.858 25.4843 40.97 25.0176 40.97Z" fill="#1A4563"/>
<path d="M33.7594 40.97C33.3021 40.97 32.8821 40.8627 32.4994 40.648C32.1167 40.424 31.8087 40.1253 31.5754 39.752C31.3421 39.3787 31.2254 38.9587 31.2254 38.492C31.2254 38.0627 31.3327 37.6613 31.5474 37.288C31.7714 36.9053 32.0747 36.5973 32.4574 36.364C32.8401 36.1213 33.2741 36 33.7594 36C34.2074 36 34.6227 36.1073 35.0054 36.322C35.3974 36.5367 35.7101 36.8353 35.9434 37.218C36.1767 37.5913 36.2934 38.016 36.2934 38.492C36.2934 38.9493 36.1767 39.3647 35.9434 39.738C35.7194 40.1113 35.4161 40.41 35.0334 40.634C34.6507 40.858 34.2261 40.97 33.7594 40.97Z" fill="#1A4563"/>
<path d="M42.5012 40.97C42.0439 40.97 41.6239 40.8627 41.2412 40.648C40.8585 40.424 40.5505 40.1253 40.3172 39.752C40.0839 39.3787 39.9672 38.9587 39.9672 38.492C39.9672 38.0627 40.0745 37.6613 40.2892 37.288C40.5132 36.9053 40.8165 36.5973 41.1992 36.364C41.5819 36.1213 42.0159 36 42.5012 36C42.9492 36 43.3645 36.1073 43.7472 36.322C44.1392 36.5367 44.4519 36.8353 44.6852 37.218C44.9185 37.5913 45.0352 38.016 45.0352 38.492C45.0352 38.9493 44.9185 39.3647 44.6852 39.738C44.4612 40.1113 44.1579 40.41 43.7752 40.634C43.3925 40.858 42.9679 40.97 42.5012 40.97Z" fill="#1A4563"/>
<path d="M51.243 40.97C50.7857 40.97 50.3657 40.8627 49.983 40.648C49.6003 40.424 49.2923 40.1253 49.059 39.752C48.8257 39.3787 48.709 38.9587 48.709 38.492C48.709 38.0627 48.8163 37.6613 49.031 37.288C49.255 36.9053 49.5583 36.5973 49.941 36.364C50.3237 36.1213 50.7577 36 51.243 36C51.691 36 52.1063 36.1073 52.489 36.322C52.881 36.5367 53.1937 36.8353 53.427 37.218C53.6603 37.5913 53.777 38.016 53.777 38.492C53.777 38.9493 53.6603 39.3647 53.427 39.738C53.203 40.1113 52.8997 40.41 52.517 40.634C52.1343 40.858 51.7097 40.97 51.243 40.97Z" fill="#1A4563"/>
<path d="M59.9848 40.97C59.5275 40.97 59.1075 40.8627 58.7248 40.648C58.3421 40.424 58.0341 40.1253 57.8008 39.752C57.5675 39.3787 57.4508 38.9587 57.4508 38.492C57.4508 38.0627 57.5581 37.6613 57.7728 37.288C57.9968 36.9053 58.3001 36.5973 58.6828 36.364C59.0655 36.1213 59.4995 36 59.9848 36C60.4328 36 60.8481 36.1073 61.2308 36.322C61.6228 36.5367 61.9355 36.8353 62.1688 37.218C62.4021 37.5913 62.5188 38.016 62.5188 38.492C62.5188 38.9493 62.4021 39.3647 62.1688 39.738C61.9448 40.1113 61.6415 40.41 61.2588 40.634C60.8761 40.858 60.4515 40.97 59.9848 40.97Z" fill="#1A4563"/>
<path d="M68.7266 40.97C68.2692 40.97 67.8492 40.8627 67.4666 40.648C67.0839 40.424 66.7759 40.1253 66.5426 39.752C66.3092 39.3787 66.1926 38.9587 66.1926 38.492C66.1926 38.0627 66.2999 37.6613 66.5146 37.288C66.7386 36.9053 67.0419 36.5973 67.4246 36.364C67.8072 36.1213 68.2412 36 68.7266 36C69.1746 36 69.5899 36.1073 69.9726 36.322C70.3646 36.5367 70.6772 36.8353 70.9106 37.218C71.1439 37.5913 71.2606 38.016 71.2606 38.492C71.2606 38.9493 71.1439 39.3647 70.9106 39.738C70.6866 40.1113 70.3832 40.41 70.0006 40.634C69.6179 40.858 69.1932 40.97 68.7266 40.97Z" fill="#1A4563"/>
<path d="M77.4684 40.97C77.011 40.97 76.591 40.8627 76.2084 40.648C75.8257 40.424 75.5177 40.1253 75.2844 39.752C75.051 39.3787 74.9344 38.9587 74.9344 38.492C74.9344 38.0627 75.0417 37.6613 75.2564 37.288C75.4804 36.9053 75.7837 36.5973 76.1664 36.364C76.549 36.1213 76.983 36 77.4684 36C77.9164 36 78.3317 36.1073 78.7144 36.322C79.1064 36.5367 79.419 36.8353 79.6524 37.218C79.8857 37.5913 80.0024 38.016 80.0024 38.492C80.0024 38.9493 79.8857 39.3647 79.6524 39.738C79.4284 40.1113 79.125 40.41 78.7424 40.634C78.3597 40.858 77.935 40.97 77.4684 40.97Z" fill="#1A4563"/>
<path d="M86.2102 40.97C85.7528 40.97 85.3328 40.8627 84.9502 40.648C84.5675 40.424 84.2595 40.1253 84.0262 39.752C83.7928 39.3787 83.6762 38.9587 83.6762 38.492C83.6762 38.0627 83.7835 37.6613 83.9982 37.288C84.2222 36.9053 84.5255 36.5973 84.9082 36.364C85.2908 36.1213 85.7248 36 86.2102 36C86.6582 36 87.0735 36.1073 87.4562 36.322C87.8482 36.5367 88.1608 36.8353 88.3942 37.218C88.6275 37.5913 88.7442 38.016 88.7442 38.492C88.7442 38.9493 88.6275 39.3647 88.3942 39.738C88.1702 40.1113 87.8668 40.41 87.4842 40.634C87.1015 40.858 86.6768 40.97 86.2102 40.97Z" fill="#1A4563"/>
<path d="M94.952 40.97C94.4946 40.97 94.0746 40.8627 93.692 40.648C93.3093 40.424 93.0013 40.1253 92.768 39.752C92.5346 39.3787 92.418 38.9587 92.418 38.492C92.418 38.0627 92.5253 37.6613 92.74 37.288C92.964 36.9053 93.2673 36.5973 93.65 36.364C94.0326 36.1213 94.4666 36 94.952 36C95.4 36 95.8153 36.1073 96.198 36.322C96.59 36.5367 96.9026 36.8353 97.136 37.218C97.3693 37.5913 97.486 38.016 97.486 38.492C97.486 38.9493 97.3693 39.3647 97.136 39.738C96.912 40.1113 96.6086 40.41 96.226 40.634C95.8433 40.858 95.4186 40.97 94.952 40.97Z" fill="#1A4563"/>
<path d="M103.694 40.97C103.236 40.97 102.816 40.8627 102.434 40.648C102.051 40.424 101.743 40.1253 101.51 39.752C101.276 39.3787 101.16 38.9587 101.16 38.492C101.16 38.0627 101.267 37.6613 101.482 37.288C101.706 36.9053 102.009 36.5973 102.392 36.364C102.774 36.1213 103.208 36 103.694 36C104.142 36 104.557 36.1073 104.94 36.322C105.332 36.5367 105.644 36.8353 105.878 37.218C106.111 37.5913 106.228 38.016 106.228 38.492C106.228 38.9493 106.111 39.3647 105.878 39.738C105.654 40.1113 105.35 40.41 104.968 40.634C104.585 40.858 104.16 40.97 103.694 40.97Z" fill="#1A4563"/>
<path d="M0.895996 10V0.130005H5.642C6.762 0.130005 7.62533 0.419339 8.232 0.998006C8.848 1.56734 9.156 2.35601 9.156 3.36401C9.156 4.37201 8.848 5.16534 8.232 5.74401C7.62533 6.31334 6.762 6.59801 5.642 6.59801H3.472V10H0.895996ZM3.472 4.62401H5.194C6.202 4.62401 6.706 4.20401 6.706 3.36401C6.706 2.52401 6.202 2.10401 5.194 2.10401H3.472V4.62401Z" fill="black"/>
<path d="M12.8422 10.154C12.3102 10.154 11.8388 10.056 11.4282 9.86001C11.0268 9.66401 10.7095 9.39801 10.4762 9.06201C10.2522 8.71667 10.1402 8.32467 10.1402 7.88601C10.1402 7.39134 10.2708 6.99934 10.5322 6.71001C10.7935 6.41134 11.2135 6.20134 11.7922 6.08001C12.3708 5.94934 13.1408 5.88401 14.1022 5.88401H14.6342V5.68801C14.6342 5.35201 14.5455 5.11401 14.3682 4.97401C14.2002 4.83401 13.9062 4.76401 13.4862 4.76401C13.1315 4.76401 12.7395 4.82001 12.3102 4.93201C11.8808 5.04401 11.4608 5.21667 11.0502 5.45001L10.4202 3.81201C10.6535 3.64401 10.9522 3.49467 11.3162 3.36401C11.6802 3.23334 12.0628 3.13534 12.4642 3.07001C12.8655 2.99534 13.2435 2.95801 13.5982 2.95801C14.7462 2.95801 15.5955 3.20534 16.1462 3.70001C16.7062 4.19467 16.9862 4.97401 16.9862 6.03801V10H14.6622V9.02001C14.5408 9.37467 14.3215 9.65467 14.0042 9.86001C13.6868 10.056 13.2995 10.154 12.8422 10.154ZM13.4022 8.53001C13.7475 8.53001 14.0368 8.41801 14.2702 8.19401C14.5128 7.97001 14.6342 7.67601 14.6342 7.31201V7.06001H14.1022C13.5515 7.06001 13.1455 7.12067 12.8842 7.24201C12.6322 7.35401 12.5062 7.53601 12.5062 7.78801C12.5062 8.00267 12.5808 8.18001 12.7302 8.32001C12.8888 8.46001 13.1128 8.53001 13.4022 8.53001Z" fill="black"/>
<path d="M21.7092 10.154C21.0745 10.154 20.4865 10.0887 19.9452 9.95801C19.4132 9.82734 18.9605 9.64534 18.5872 9.41201L19.1612 7.80201C19.5065 7.99801 19.9079 8.16134 20.3652 8.29201C20.8225 8.41334 21.2752 8.47401 21.7232 8.47401C22.0685 8.47401 22.3159 8.42734 22.4652 8.33401C22.6145 8.23134 22.6892 8.10067 22.6892 7.94201C22.6892 7.80201 22.6379 7.69934 22.5352 7.63401C22.4419 7.55934 22.3065 7.50334 22.1292 7.46601L20.5752 7.21401C19.9965 7.12067 19.5485 6.91067 19.2312 6.58401C18.9139 6.25734 18.7552 5.83267 18.7552 5.31001C18.7552 4.82467 18.8905 4.40934 19.1612 4.064C19.4319 3.70934 19.8099 3.43867 20.2952 3.25201C20.7805 3.05601 21.3359 2.95801 21.9612 2.95801C22.4559 2.95801 22.9459 3.01867 23.4312 3.14001C23.9165 3.25201 24.3412 3.43867 24.7052 3.70001L24.0892 5.28201C23.8185 5.09534 23.4825 4.94134 23.0812 4.82001C22.6799 4.68934 22.3205 4.62401 22.0032 4.62401C21.6205 4.62401 21.3499 4.68001 21.1912 4.79201C21.0325 4.89467 20.9532 5.02067 20.9532 5.17001C20.9532 5.42201 21.1259 5.57601 21.4712 5.63201L23.0252 5.89801C23.6225 5.99134 24.0799 6.19667 24.3972 6.51401C24.7239 6.82201 24.8872 7.24201 24.8872 7.77401C24.8872 8.53001 24.5979 9.11801 24.0192 9.53801C23.4405 9.94867 22.6705 10.154 21.7092 10.154Z" fill="black"/>
<path d="M29.2145 10.154C28.5798 10.154 27.9918 10.0887 27.4505 9.95801C26.9185 9.82734 26.4658 9.64534 26.0925 9.41201L26.6665 7.80201C27.0118 7.99801 27.4132 8.16134 27.8705 8.29201C28.3278 8.41334 28.7805 8.47401 29.2285 8.47401C29.5738 8.47401 29.8212 8.42734 29.9705 8.33401C30.1198 8.23134 30.1945 8.10067 30.1945 7.94201C30.1945 7.80201 30.1432 7.69934 30.0405 7.63401C29.9472 7.55934 29.8118 7.50334 29.6345 7.46601L28.0805 7.21401C27.5018 7.12067 27.0538 6.91067 26.7365 6.58401C26.4192 6.25734 26.2605 5.83267 26.2605 5.31001C26.2605 4.82467 26.3958 4.40934 26.6665 4.064C26.9372 3.70934 27.3152 3.43867 27.8005 3.25201C28.2858 3.05601 28.8412 2.95801 29.4665 2.95801C29.9612 2.95801 30.4512 3.01867 30.9365 3.14001C31.4218 3.25201 31.8465 3.43867 32.2105 3.70001L31.5945 5.28201C31.3238 5.09534 30.9878 4.94134 30.5865 4.82001C30.1852 4.68934 29.8258 4.62401 29.5085 4.62401C29.1258 4.62401 28.8552 4.68001 28.6965 4.79201C28.5378 4.89467 28.4585 5.02067 28.4585 5.17001C28.4585 5.42201 28.6312 5.57601 28.9765 5.63201L30.5305 5.89801C31.1278 5.99134 31.5852 6.19667 31.9025 6.51401C32.2292 6.82201 32.3925 7.24201 32.3925 7.77401C32.3925 8.53001 32.1032 9.11801 31.5245 9.53801C30.9458 9.94867 30.1758 10.154 29.2145 10.154Z" fill="black"/>
<path d="M35.8131 10L32.9151 3.11201H35.4351L36.9611 7.10201L38.4731 3.11201H40.0271L41.5531 7.17201L43.0791 3.11201H45.4451L42.5751 10H40.5171L39.1591 6.61201L37.8711 10H35.8131Z" fill="black"/>
<path d="M49.8617 10.154C49.0963 10.154 48.429 10.0093 47.8597 9.72001C47.2903 9.43067 46.847 9.01534 46.5297 8.47401C46.2123 7.93267 46.0536 7.29334 46.0536 6.55601C46.0536 5.80934 46.2123 5.17001 46.5297 4.63801C46.847 4.09667 47.2903 3.68134 47.8597 3.39201C48.429 3.10267 49.0963 2.95801 49.8617 2.95801C50.627 2.95801 51.2943 3.10267 51.8637 3.39201C52.433 3.68134 52.8717 4.09667 53.1797 4.63801C53.497 5.17001 53.6557 5.80934 53.6557 6.55601C53.6557 7.29334 53.497 7.93267 53.1797 8.47401C52.8717 9.01534 52.433 9.43067 51.8637 9.72001C51.2943 10.0093 50.627 10.154 49.8617 10.154ZM49.8617 8.32001C50.235 8.32001 50.543 8.18001 50.7857 7.90001C51.0283 7.62001 51.1497 7.17201 51.1497 6.55601C51.1497 5.93067 51.0283 5.48267 50.7857 5.21201C50.543 4.93201 50.235 4.79201 49.8617 4.79201C49.479 4.79201 49.1663 4.93201 48.9237 5.21201C48.681 5.48267 48.5597 5.93067 48.5597 6.55601C48.5597 7.17201 48.681 7.62001 48.9237 7.90001C49.1663 8.18001 49.479 8.32001 49.8617 8.32001Z" fill="black"/>
<path d="M55.3575 10V3.11201H57.7795V4.27401C58.0969 3.48067 58.7829 3.04667 59.8375 2.97201L60.5235 2.91601L60.6635 5.01601L59.3055 5.14201C58.8109 5.18867 58.4515 5.32867 58.2275 5.56201C58.0035 5.78601 57.8915 6.12201 57.8915 6.57001V10H55.3575Z" fill="black"/>
<path d="M64.5528 10.154C63.9648 10.154 63.4421 10.0093 62.9848 9.72001C62.5368 9.43067 62.1821 9.01534 61.9208 8.47401C61.6688 7.93267 61.5428 7.29334 61.5428 6.55601C61.5428 5.80934 61.6688 5.17001 61.9208 4.63801C62.1821 4.09667 62.5368 3.68134 62.9848 3.39201C63.4421 3.10267 63.9648 2.95801 64.5528 2.95801C64.9915 2.95801 65.3928 3.05134 65.7568 3.23801C66.1301 3.41534 66.4148 3.64867 66.6108 3.93801V0.130005H69.1028V10H66.6668V9.04801C66.4895 9.38401 66.2095 9.65467 65.8268 9.86001C65.4441 10.056 65.0195 10.154 64.5528 10.154ZM65.3508 8.32001C65.7241 8.32001 66.0321 8.18001 66.2748 7.90001C66.5175 7.62001 66.6388 7.17201 66.6388 6.55601C66.6388 5.93067 66.5175 5.48267 66.2748 5.21201C66.0321 4.93201 65.7241 4.79201 65.3508 4.79201C64.9681 4.79201 64.6555 4.93201 64.4128 5.21201C64.1701 5.48267 64.0488 5.93067 64.0488 6.55601C64.0488 7.17201 64.1701 7.62001 64.4128 7.90001C64.6555 8.18001 64.9681 8.32001 65.3508 8.32001Z" fill="black"/>
<path d="M0.767944 82V73.54H6.67195V75.244H2.97594V76.948H6.40794V78.64H2.97594V82H0.767944Z" fill="#0060F7" fill-opacity="0.4"/>
<path d="M10.8537 82.132C10.1977 82.132 9.62566 82.008 9.13766 81.76C8.64966 81.512 8.26966 81.156 7.99766 80.692C7.72566 80.228 7.58966 79.68 7.58966 79.048C7.58966 78.408 7.72566 77.86 7.99766 77.404C8.26966 76.94 8.64966 76.584 9.13766 76.336C9.62566 76.088 10.1977 75.964 10.8537 75.964C11.5097 75.964 12.0817 76.088 12.5697 76.336C13.0577 76.584 13.4337 76.94 13.6977 77.404C13.9697 77.86 14.1057 78.408 14.1057 79.048C14.1057 79.68 13.9697 80.228 13.6977 80.692C13.4337 81.156 13.0577 81.512 12.5697 81.76C12.0817 82.008 11.5097 82.132 10.8537 82.132ZM10.8537 80.56C11.1737 80.56 11.4377 80.44 11.6457 80.2C11.8537 79.96 11.9577 79.576 11.9577 79.048C11.9577 78.512 11.8537 78.128 11.6457 77.896C11.4377 77.656 11.1737 77.536 10.8537 77.536C10.5257 77.536 10.2577 77.656 10.0497 77.896C9.84166 78.128 9.73766 78.512 9.73766 79.048C9.73766 79.576 9.84166 79.96 10.0497 80.2C10.2577 80.44 10.5257 80.56 10.8537 80.56Z" fill="#0060F7" fill-opacity="0.4"/>
<path d="M15.5644 82V76.096H17.6404V77.092C17.9124 76.412 18.5004 76.04 19.4044 75.976L19.9924 75.928L20.1124 77.728L18.9484 77.836C18.5244 77.876 18.2164 77.996 18.0244 78.196C17.8324 78.388 17.7364 78.676 17.7364 79.06V82H15.5644Z" fill="#0060F7" fill-opacity="0.4"/>
<path d="M24.0701 84.292C23.4781 84.292 22.9221 84.236 22.4021 84.124C21.8901 84.012 21.4501 83.828 21.0821 83.572L21.6341 82.132C21.9381 82.316 22.2981 82.46 22.7141 82.564C23.1381 82.668 23.5221 82.72 23.8661 82.72C24.3541 82.72 24.7181 82.616 24.9581 82.408C25.2061 82.208 25.3301 81.892 25.3301 81.46V80.908C25.1621 81.196 24.9101 81.424 24.5741 81.592C24.2381 81.76 23.8781 81.844 23.4941 81.844C22.9661 81.844 22.5061 81.724 22.1141 81.484C21.7221 81.236 21.4141 80.892 21.1901 80.452C20.9741 80.012 20.8661 79.496 20.8661 78.904C20.8661 78.312 20.9741 77.796 21.1901 77.356C21.4141 76.916 21.7221 76.576 22.1141 76.336C22.5061 76.088 22.9661 75.964 23.4941 75.964C23.8941 75.964 24.2581 76.052 24.5861 76.228C24.9221 76.396 25.1661 76.62 25.3181 76.9V76.096H27.4061V81.208C27.4061 82.24 27.1181 83.012 26.5421 83.524C25.9661 84.036 25.1421 84.292 24.0701 84.292ZM24.1541 80.272C24.5061 80.272 24.7861 80.152 24.9941 79.912C25.2021 79.672 25.3061 79.336 25.3061 78.904C25.3061 78.472 25.2021 78.136 24.9941 77.896C24.7861 77.656 24.5061 77.536 24.1541 77.536C23.8101 77.536 23.5341 77.656 23.3261 77.896C23.1181 78.136 23.0141 78.472 23.0141 78.904C23.0141 79.336 23.1181 79.672 23.3261 79.912C23.5341 80.152 23.8101 80.272 24.1541 80.272Z" fill="#0060F7" fill-opacity="0.4"/>
<path d="M32.1218 82.132C31.4658 82.132 30.8938 82.008 30.4058 81.76C29.9178 81.512 29.5378 81.156 29.2658 80.692C28.9938 80.228 28.8578 79.68 28.8578 79.048C28.8578 78.408 28.9938 77.86 29.2658 77.404C29.5378 76.94 29.9178 76.584 30.4058 76.336C30.8938 76.088 31.4658 75.964 32.1218 75.964C32.7778 75.964 33.3498 76.088 33.8378 76.336C34.3258 76.584 34.7018 76.94 34.9658 77.404C35.2378 77.86 35.3738 78.408 35.3738 79.048C35.3738 79.68 35.2378 80.228 34.9658 80.692C34.7018 81.156 34.3258 81.512 33.8378 81.76C33.3498 82.008 32.7778 82.132 32.1218 82.132ZM32.1218 80.56C32.4418 80.56 32.7058 80.44 32.9138 80.2C33.1218 79.96 33.2258 79.576 33.2258 79.048C33.2258 78.512 33.1218 78.128 32.9138 77.896C32.7058 77.656 32.4418 77.536 32.1218 77.536C31.7938 77.536 31.5258 77.656 31.3178 77.896C31.1098 78.128 31.0058 78.512 31.0058 79.048C31.0058 79.576 31.1098 79.96 31.3178 80.2C31.5258 80.44 31.7938 80.56 32.1218 80.56Z" fill="#0060F7" fill-opacity="0.4"/>
<path d="M39.8699 82.132C38.9739 82.132 38.3099 81.924 37.8779 81.508C37.4459 81.092 37.2299 80.464 37.2299 79.624V77.668H36.1259V76.096H37.2299V74.38H39.3659V76.096H41.0459V77.668H39.3659V79.552C39.3659 80.128 39.6579 80.416 40.2419 80.416C40.3379 80.416 40.4419 80.408 40.5539 80.392C40.6739 80.368 40.8059 80.336 40.9499 80.296L41.2379 81.832C41.0539 81.928 40.8379 82 40.5899 82.048C40.3419 82.104 40.1019 82.132 39.8699 82.132Z" fill="#0060F7" fill-opacity="0.4"/>
<path d="M46.4209 82V73.54H50.4889C51.4489 73.54 52.1889 73.788 52.7089 74.284C53.2369 74.772 53.5009 75.448 53.5009 76.312C53.5009 77.176 53.2369 77.856 52.7089 78.352C52.1889 78.84 51.4489 79.084 50.4889 79.084H48.6289V82H46.4209ZM48.6289 77.392H50.1049C50.9689 77.392 51.4009 77.032 51.4009 76.312C51.4009 75.592 50.9689 75.232 50.1049 75.232H48.6289V77.392Z" fill="#0060F7" fill-opacity="0.4"/>
<path d="M56.6605 82.132C56.2045 82.132 55.8005 82.048 55.4485 81.88C55.1045 81.712 54.8325 81.484 54.6325 81.196C54.4405 80.9 54.3445 80.564 54.3445 80.188C54.3445 79.764 54.4565 79.428 54.6805 79.18C54.9045 78.924 55.2645 78.744 55.7605 78.64C56.2565 78.528 56.9165 78.472 57.7405 78.472H58.1965V78.304C58.1965 78.016 58.1205 77.812 57.9685 77.692C57.8245 77.572 57.5725 77.512 57.2125 77.512C56.9085 77.512 56.5725 77.56 56.2045 77.656C55.8365 77.752 55.4765 77.9 55.1245 78.1L54.5845 76.696C54.7845 76.552 55.0405 76.424 55.3525 76.312C55.6645 76.2 55.9925 76.116 56.3365 76.06C56.6805 75.996 57.0045 75.964 57.3085 75.964C58.2925 75.964 59.0205 76.176 59.4925 76.6C59.9725 77.024 60.2125 77.692 60.2125 78.604V82H58.2205V81.16C58.1165 81.464 57.9285 81.704 57.6565 81.88C57.3845 82.048 57.0525 82.132 56.6605 82.132ZM57.1405 80.74C57.4365 80.74 57.6845 80.644 57.8845 80.452C58.0925 80.26 58.1965 80.008 58.1965 79.696V79.48H57.7405C57.2685 79.48 56.9205 79.532 56.6965 79.636C56.4805 79.732 56.3725 79.888 56.3725 80.104C56.3725 80.288 56.4365 80.44 56.5645 80.56C56.7005 80.68 56.8925 80.74 57.1405 80.74Z" fill="#0060F7" fill-opacity="0.4"/>
<path d="M64.2608 82.132C63.7168 82.132 63.2128 82.076 62.7488 81.964C62.2928 81.852 61.9048 81.696 61.5848 81.496L62.0768 80.116C62.3728 80.284 62.7168 80.424 63.1088 80.536C63.5008 80.64 63.8888 80.692 64.2728 80.692C64.5688 80.692 64.7808 80.652 64.9088 80.572C65.0368 80.484 65.1008 80.372 65.1008 80.236C65.1008 80.116 65.0568 80.028 64.9688 79.972C64.8888 79.908 64.7728 79.86 64.6208 79.828L63.2888 79.612C62.7928 79.532 62.4088 79.352 62.1368 79.072C61.8648 78.792 61.7288 78.428 61.7288 77.98C61.7288 77.564 61.8448 77.208 62.0768 76.912C62.3088 76.608 62.6328 76.376 63.0488 76.216C63.4648 76.048 63.9408 75.964 64.4768 75.964C64.9008 75.964 65.3208 76.016 65.7368 76.12C66.1528 76.216 66.5168 76.376 66.8288 76.6L66.3008 77.956C66.0688 77.796 65.7808 77.664 65.4368 77.56C65.0928 77.448 64.7848 77.392 64.5128 77.392C64.1848 77.392 63.9528 77.44 63.8168 77.536C63.6808 77.624 63.6128 77.732 63.6128 77.86C63.6128 78.076 63.7608 78.208 64.0568 78.256L65.3888 78.484C65.9008 78.564 66.2928 78.74 66.5648 79.012C66.8448 79.276 66.9848 79.636 66.9848 80.092C66.9848 80.74 66.7368 81.244 66.2408 81.604C65.7448 81.956 65.0848 82.132 64.2608 82.132Z" fill="#0060F7" fill-opacity="0.4"/>
<path d="M70.6939 82.132C70.1499 82.132 69.6459 82.076 69.1819 81.964C68.7259 81.852 68.3379 81.696 68.0179 81.496L68.5099 80.116C68.8059 80.284 69.1499 80.424 69.5419 80.536C69.9339 80.64 70.3219 80.692 70.7059 80.692C71.0019 80.692 71.2139 80.652 71.3419 80.572C71.4699 80.484 71.5339 80.372 71.5339 80.236C71.5339 80.116 71.4899 80.028 71.4019 79.972C71.3219 79.908 71.2059 79.86 71.0539 79.828L69.7219 79.612C69.2259 79.532 68.8419 79.352 68.5699 79.072C68.2979 78.792 68.1619 78.428 68.1619 77.98C68.1619 77.564 68.2779 77.208 68.5099 76.912C68.7419 76.608 69.0659 76.376 69.4819 76.216C69.8979 76.048 70.3739 75.964 70.9099 75.964C71.3339 75.964 71.7539 76.016 72.1699 76.12C72.5859 76.216 72.9499 76.376 73.2619 76.6L72.7339 77.956C72.5019 77.796 72.2139 77.664 71.8699 77.56C71.5259 77.448 71.2179 77.392 70.9459 77.392C70.6179 77.392 70.3859 77.44 70.2499 77.536C70.1139 77.624 70.0459 77.732 70.0459 77.86C70.0459 78.076 70.1939 78.208 70.4899 78.256L71.8219 78.484C72.3339 78.564 72.7259 78.74 72.9979 79.012C73.2779 79.276 73.4179 79.636 73.4179 80.092C73.4179 80.74 73.1699 81.244 72.6739 81.604C72.1779 81.956 71.5179 82.132 70.6939 82.132Z" fill="#0060F7" fill-opacity="0.4"/>
<path d="M76.3499 82L73.8659 76.096H76.0258L77.3339 79.516L78.6299 76.096H79.9619L81.2699 79.576L82.5779 76.096H84.6059L82.1459 82H80.3819L79.2178 79.096L78.1139 82H76.3499Z" fill="#0060F7" fill-opacity="0.4"/>
<path d="M88.3915 82.132C87.7355 82.132 87.1635 82.008 86.6755 81.76C86.1875 81.512 85.8075 81.156 85.5355 80.692C85.2635 80.228 85.1275 79.68 85.1275 79.048C85.1275 78.408 85.2635 77.86 85.5355 77.404C85.8075 76.94 86.1875 76.584 86.6755 76.336C87.1635 76.088 87.7355 75.964 88.3915 75.964C89.0475 75.964 89.6195 76.088 90.1075 76.336C90.5955 76.584 90.9715 76.94 91.2355 77.404C91.5075 77.86 91.6435 78.408 91.6435 79.048C91.6435 79.68 91.5075 80.228 91.2355 80.692C90.9715 81.156 90.5955 81.512 90.1075 81.76C89.6195 82.008 89.0475 82.132 88.3915 82.132ZM88.3915 80.56C88.7115 80.56 88.9755 80.44 89.1835 80.2C89.3915 79.96 89.4955 79.576 89.4955 79.048C89.4955 78.512 89.3915 78.128 89.1835 77.896C88.9755 77.656 88.7115 77.536 88.3915 77.536C88.0635 77.536 87.7955 77.656 87.5875 77.896C87.3795 78.128 87.2755 78.512 87.2755 79.048C87.2755 79.576 87.3795 79.96 87.5875 80.2C87.7955 80.44 88.0635 80.56 88.3915 80.56Z" fill="#0060F7" fill-opacity="0.4"/>
<path d="M93.1022 82V76.096H95.1782V77.092C95.4502 76.412 96.0382 76.04 96.9422 75.976L97.5302 75.928L97.6502 77.728L96.4862 77.836C96.0622 77.876 95.7542 77.996 95.5622 78.196C95.3702 78.388 95.2742 78.676 95.2742 79.06V82H93.1022Z" fill="#0060F7" fill-opacity="0.4"/>
<path d="M100.984 82.132C100.48 82.132 100.032 82.008 99.6399 81.76C99.2559 81.512 98.9519 81.156 98.7279 80.692C98.5119 80.228 98.4039 79.68 98.4039 79.048C98.4039 78.408 98.5119 77.86 98.7279 77.404C98.9519 76.94 99.2559 76.584 99.6399 76.336C100.032 76.088 100.48 75.964 100.984 75.964C101.36 75.964 101.704 76.044 102.016 76.204C102.336 76.356 102.58 76.556 102.748 76.804V73.54H104.884V82H102.796V81.184C102.644 81.472 102.404 81.704 102.076 81.88C101.748 82.048 101.384 82.132 100.984 82.132ZM101.668 80.56C101.988 80.56 102.252 80.44 102.46 80.2C102.668 79.96 102.772 79.576 102.772 79.048C102.772 78.512 102.668 78.128 102.46 77.896C102.252 77.656 101.988 77.536 101.668 77.536C101.34 77.536 101.072 77.656 100.864 77.896C100.656 78.128 100.552 78.512 100.552 79.048C100.552 79.576 100.656 79.96 100.864 80.2C101.072 80.44 101.34 80.56 101.668 80.56Z" fill="#0060F7" fill-opacity="0.4"/>
<path d="M108.185 79.144V78.496C108.185 78.168 108.245 77.864 108.365 77.584C108.485 77.304 108.689 77.016 108.977 76.72C109.169 76.52 109.301 76.352 109.373 76.216C109.453 76.08 109.493 75.936 109.493 75.784C109.493 75.408 109.229 75.22 108.701 75.22C107.997 75.22 107.321 75.464 106.673 75.952L105.989 74.344C106.357 74.056 106.801 73.828 107.321 73.66C107.841 73.492 108.357 73.408 108.869 73.408C109.421 73.408 109.905 73.496 110.321 73.672C110.745 73.848 111.073 74.096 111.305 74.416C111.537 74.736 111.653 75.104 111.653 75.52C111.653 75.88 111.569 76.216 111.401 76.528C111.241 76.832 110.949 77.14 110.525 77.452C110.149 77.724 109.893 77.964 109.757 78.172C109.629 78.38 109.549 78.572 109.517 78.748L109.445 79.144H108.185ZM107.705 82V79.816H109.925V82H107.705Z" fill="#0060F7" fill-opacity="0.4"/>
<path d="M36.39 245V235.13H40.478C42.186 235.13 43.5113 235.559 44.454 236.418C45.3967 237.277 45.868 238.49 45.868 240.058C45.868 241.626 45.3967 242.844 44.454 243.712C43.5113 244.571 42.186 245 40.478 245H36.39ZM38.966 242.914H40.31C41.29 242.914 42.0133 242.681 42.48 242.214C42.956 241.738 43.194 241.019 43.194 240.058C43.194 239.097 42.956 238.383 42.48 237.916C42.004 237.449 41.2807 237.216 40.31 237.216H38.966V242.914Z" fill="#0060F7"/>
<path d="M51.2739 245.154C50.5085 245.154 49.8412 245.009 49.2719 244.72C48.7025 244.431 48.2592 244.015 47.9419 243.474C47.6245 242.933 47.4659 242.293 47.4659 241.556C47.4659 240.809 47.6245 240.17 47.9419 239.638C48.2592 239.097 48.7025 238.681 49.2719 238.392C49.8412 238.103 50.5085 237.958 51.2739 237.958C52.0392 237.958 52.7065 238.103 53.2759 238.392C53.8452 238.681 54.2839 239.097 54.5919 239.638C54.9092 240.17 55.0679 240.809 55.0679 241.556C55.0679 242.293 54.9092 242.933 54.5919 243.474C54.2839 244.015 53.8452 244.431 53.2759 244.72C52.7065 245.009 52.0392 245.154 51.2739 245.154ZM51.2739 243.32C51.6472 243.32 51.9552 243.18 52.1979 242.9C52.4405 242.62 52.5619 242.172 52.5619 241.556C52.5619 240.931 52.4405 240.483 52.1979 240.212C51.9552 239.932 51.6472 239.792 51.2739 239.792C50.8912 239.792 50.5785 239.932 50.3359 240.212C50.0932 240.483 49.9719 240.931 49.9719 241.556C49.9719 242.172 50.0932 242.62 50.3359 242.9C50.5785 243.18 50.8912 243.32 51.2739 243.32Z" fill="#0060F7"/>
<path d="M56.7698 245V238.112H59.1917V239.05C59.4344 238.695 59.7471 238.425 60.1298 238.238C60.5124 238.051 60.9417 237.958 61.4177 237.958C62.2391 237.958 62.8457 238.201 63.2377 238.686C63.6391 239.171 63.8398 239.918 63.8398 240.926V245H61.3477V241.024C61.3477 240.604 61.2731 240.305 61.1238 240.128C60.9838 239.951 60.7738 239.862 60.4937 239.862C60.1204 239.862 59.8218 239.983 59.5977 240.226C59.3737 240.459 59.2617 240.777 59.2617 241.178V245H56.7698Z" fill="#0060F7"/>
<path d="M66.6512 239.862L65.7132 239.106C66.2172 238.602 66.5299 238.126 66.6512 237.678H65.4752V235.13H68.0652V236.74C68.0652 237.328 67.9579 237.865 67.7432 238.35C67.5379 238.835 67.1739 239.339 66.6512 239.862Z" fill="#0060F7"/>
<path d="M73.6971 245.154C72.6517 245.154 71.8771 244.911 71.3731 244.426C70.8691 243.941 70.6171 243.208 70.6171 242.228V239.946H69.3291V238.112H70.6171V236.11H73.1091V238.112H75.0691V239.946H73.1091V242.144C73.1091 242.816 73.4497 243.152 74.1311 243.152C74.2431 243.152 74.3644 243.143 74.4951 243.124C74.6351 243.096 74.7891 243.059 74.9571 243.012L75.2931 244.804C75.0784 244.916 74.8264 245 74.5371 245.056C74.2477 245.121 73.9677 245.154 73.6971 245.154Z" fill="#0060F7"/>
<path d="M81.1719 245V235.13H83.6639V238.966C84.1585 238.294 84.8772 237.958 85.8199 237.958C86.6412 237.958 87.2479 238.201 87.6399 238.686C88.0412 239.171 88.2419 239.918 88.2419 240.926V245H85.7499V241.024C85.7499 240.604 85.6752 240.305 85.5259 240.128C85.3859 239.951 85.1759 239.862 84.8959 239.862C84.5225 239.862 84.2239 239.983 83.9999 240.226C83.7759 240.459 83.6639 240.777 83.6639 241.178V245H81.1719Z" fill="#0060F7"/>
<path d="M92.6161 245.154C92.0841 245.154 91.6128 245.056 91.2021 244.86C90.8008 244.664 90.4834 244.398 90.2501 244.062C90.0261 243.717 89.9141 243.325 89.9141 242.886C89.9141 242.391 90.0448 241.999 90.3061 241.71C90.5674 241.411 90.9874 241.201 91.5661 241.08C92.1448 240.949 92.9148 240.884 93.8761 240.884H94.4081V240.688C94.4081 240.352 94.3194 240.114 94.1421 239.974C93.9741 239.834 93.6801 239.764 93.2601 239.764C92.9054 239.764 92.5134 239.82 92.0841 239.932C91.6548 240.044 91.2348 240.217 90.8241 240.45L90.1941 238.812C90.4274 238.644 90.7261 238.495 91.0901 238.364C91.4541 238.233 91.8368 238.135 92.2381 238.07C92.6394 237.995 93.0174 237.958 93.3721 237.958C94.5201 237.958 95.3694 238.205 95.9201 238.7C96.4801 239.195 96.7601 239.974 96.7601 241.038V245H94.4361V244.02C94.3148 244.375 94.0954 244.655 93.7781 244.86C93.4608 245.056 93.0734 245.154 92.6161 245.154ZM93.1761 243.53C93.5214 243.53 93.8108 243.418 94.0441 243.194C94.2868 242.97 94.4081 242.676 94.4081 242.312V242.06H93.8761C93.3254 242.06 92.9194 242.121 92.6581 242.242C92.4061 242.354 92.2801 242.536 92.2801 242.788C92.2801 243.003 92.3548 243.18 92.5041 243.32C92.6628 243.46 92.8868 243.53 93.1761 243.53Z" fill="#0060F7"/>
<path d="M100.701 245L97.6768 238.112H100.295L101.793 242.018L103.375 238.112H105.825L102.745 245H100.701Z" fill="#0060F7"/>
<path d="M110.393 245.154C109.553 245.154 108.825 245.009 108.209 244.72C107.602 244.421 107.136 244.001 106.809 243.46C106.482 242.919 106.319 242.279 106.319 241.542C106.319 240.842 106.473 240.221 106.781 239.68C107.098 239.139 107.528 238.719 108.069 238.42C108.62 238.112 109.245 237.958 109.945 237.958C110.636 237.958 111.233 238.103 111.737 238.392C112.25 238.681 112.642 239.097 112.913 239.638C113.193 240.17 113.333 240.795 113.333 241.514V242.06H108.699C108.783 242.508 108.97 242.83 109.259 243.026C109.548 243.222 109.95 243.32 110.463 243.32C110.818 243.32 111.186 243.269 111.569 243.166C111.961 243.054 112.306 242.895 112.605 242.69L113.221 244.328C112.866 244.58 112.432 244.781 111.919 244.93C111.406 245.079 110.897 245.154 110.393 245.154ZM110.057 239.568C109.684 239.568 109.376 239.68 109.133 239.904C108.9 240.128 108.75 240.455 108.685 240.884H111.289C111.261 240.445 111.14 240.119 110.925 239.904C110.72 239.68 110.43 239.568 110.057 239.568Z" fill="#0060F7"/>
<path d="M121.926 245.154C121.394 245.154 120.923 245.056 120.512 244.86C120.111 244.664 119.794 244.398 119.56 244.062C119.336 243.717 119.224 243.325 119.224 242.886C119.224 242.391 119.355 241.999 119.616 241.71C119.878 241.411 120.298 241.201 120.876 241.08C121.455 240.949 122.225 240.884 123.186 240.884H123.718V240.688C123.718 240.352 123.63 240.114 123.452 239.974C123.284 239.834 122.99 239.764 122.57 239.764C122.216 239.764 121.824 239.82 121.394 239.932C120.965 240.044 120.545 240.217 120.134 240.45L119.504 238.812C119.738 238.644 120.036 238.495 120.4 238.364C120.764 238.233 121.147 238.135 121.548 238.07C121.95 237.995 122.328 237.958 122.682 237.958C123.83 237.958 124.68 238.205 125.23 238.7C125.79 239.195 126.07 239.974 126.07 241.038V245H123.746V244.02C123.625 244.375 123.406 244.655 123.088 244.86C122.771 245.056 122.384 245.154 121.926 245.154ZM122.486 243.53C122.832 243.53 123.121 243.418 123.354 243.194C123.597 242.97 123.718 242.676 123.718 242.312V242.06H123.186C122.636 242.06 122.23 242.121 121.968 242.242C121.716 242.354 121.59 242.536 121.59 242.788C121.59 243.003 121.665 243.18 121.814 243.32C121.973 243.46 122.197 243.53 122.486 243.53Z" fill="#0060F7"/>
<path d="M128.049 245V238.112H130.471V239.05C130.714 238.695 131.027 238.425 131.409 238.238C131.792 238.051 132.221 237.958 132.697 237.958C133.519 237.958 134.125 238.201 134.517 238.686C134.919 239.171 135.119 239.918 135.119 240.926V245H132.627V241.024C132.627 240.604 132.553 240.305 132.403 240.128C132.263 239.951 132.053 239.862 131.773 239.862C131.4 239.862 131.101 239.983 130.877 240.226C130.653 240.459 130.541 240.777 130.541 241.178V245H128.049Z" fill="#0060F7"/>
<path d="M144.06 245.154C143.528 245.154 143.056 245.056 142.646 244.86C142.244 244.664 141.927 244.398 141.694 244.062C141.47 243.717 141.358 243.325 141.358 242.886C141.358 242.391 141.488 241.999 141.75 241.71C142.011 241.411 142.431 241.201 143.01 241.08C143.588 240.949 144.358 240.884 145.32 240.884H145.852V240.688C145.852 240.352 145.763 240.114 145.586 239.974C145.418 239.834 145.124 239.764 144.704 239.764C144.349 239.764 143.957 239.82 143.528 239.932C143.098 240.044 142.678 240.217 142.268 240.45L141.638 238.812C141.871 238.644 142.17 238.495 142.534 238.364C142.898 238.233 143.28 238.135 143.682 238.07C144.083 237.995 144.461 237.958 144.816 237.958C145.964 237.958 146.813 238.205 147.364 238.7C147.924 239.195 148.204 239.974 148.204 241.038V245H145.88V244.02C145.758 244.375 145.539 244.655 145.222 244.86C144.904 245.056 144.517 245.154 144.06 245.154ZM144.62 243.53C144.965 243.53 145.254 243.418 145.488 243.194C145.73 242.97 145.852 242.676 145.852 242.312V242.06H145.32C144.769 242.06 144.363 242.121 144.102 242.242C143.85 242.354 143.724 242.536 143.724 242.788C143.724 243.003 143.798 243.18 143.948 243.32C144.106 243.46 144.33 243.53 144.62 243.53Z" fill="#0060F7"/>
<path d="M153.697 245.154C152.922 245.154 152.245 245.009 151.667 244.72C151.097 244.431 150.654 244.015 150.337 243.474C150.019 242.933 149.861 242.289 149.861 241.542C149.861 240.795 150.019 240.156 150.337 239.624C150.654 239.083 151.097 238.672 151.667 238.392C152.245 238.103 152.922 237.958 153.697 237.958C154.154 237.958 154.607 238.023 155.055 238.154C155.512 238.275 155.885 238.448 156.175 238.672L155.517 240.38C155.302 240.212 155.05 240.081 154.761 239.988C154.481 239.885 154.215 239.834 153.963 239.834C153.468 239.834 153.085 239.983 152.815 240.282C152.544 240.581 152.409 241.001 152.409 241.542C152.409 242.093 152.544 242.522 152.815 242.83C153.085 243.129 153.468 243.278 153.963 243.278C154.215 243.278 154.481 243.231 154.761 243.138C155.05 243.035 155.302 242.9 155.517 242.732L156.175 244.44C155.885 244.664 155.512 244.841 155.055 244.972C154.597 245.093 154.145 245.154 153.697 245.154Z" fill="#0060F7"/>
<path d="M160.901 245.154C160.126 245.154 159.45 245.009 158.871 244.72C158.302 244.431 157.858 244.015 157.541 243.474C157.224 242.933 157.065 242.289 157.065 241.542C157.065 240.795 157.224 240.156 157.541 239.624C157.858 239.083 158.302 238.672 158.871 238.392C159.45 238.103 160.126 237.958 160.901 237.958C161.358 237.958 161.811 238.023 162.259 238.154C162.716 238.275 163.09 238.448 163.379 238.672L162.721 240.38C162.506 240.212 162.254 240.081 161.965 239.988C161.685 239.885 161.419 239.834 161.167 239.834C160.672 239.834 160.29 239.983 160.019 240.282C159.748 240.581 159.613 241.001 159.613 241.542C159.613 242.093 159.748 242.522 160.019 242.83C160.29 243.129 160.672 243.278 161.167 243.278C161.419 243.278 161.685 243.231 161.965 243.138C162.254 243.035 162.506 242.9 162.721 242.732L163.379 244.44C163.09 244.664 162.716 244.841 162.259 244.972C161.802 245.093 161.349 245.154 160.901 245.154Z" fill="#0060F7"/>
<path d="M168.078 245.154C167.312 245.154 166.645 245.009 166.076 244.72C165.506 244.431 165.063 244.015 164.746 243.474C164.428 242.933 164.27 242.293 164.27 241.556C164.27 240.809 164.428 240.17 164.746 239.638C165.063 239.097 165.506 238.681 166.076 238.392C166.645 238.103 167.312 237.958 168.078 237.958C168.843 237.958 169.51 238.103 170.08 238.392C170.649 238.681 171.088 239.097 171.396 239.638C171.713 240.17 171.872 240.809 171.872 241.556C171.872 242.293 171.713 242.933 171.396 243.474C171.088 244.015 170.649 244.431 170.08 244.72C169.51 245.009 168.843 245.154 168.078 245.154ZM168.078 243.32C168.451 243.32 168.759 243.18 169.002 242.9C169.244 242.62 169.366 242.172 169.366 241.556C169.366 240.931 169.244 240.483 169.002 240.212C168.759 239.932 168.451 239.792 168.078 239.792C167.695 239.792 167.382 239.932 167.14 240.212C166.897 240.483 166.776 240.931 166.776 241.556C166.776 242.172 166.897 242.62 167.14 242.9C167.382 243.18 167.695 243.32 168.078 243.32Z" fill="#0060F7"/>
<path d="M176.15 245.154C175.254 245.154 174.591 244.911 174.161 244.426C173.742 243.931 173.532 243.18 173.532 242.172V238.112H176.023V242.242C176.023 242.914 176.313 243.25 176.892 243.25C177.228 243.25 177.503 243.129 177.717 242.886C177.932 242.643 178.04 242.321 178.04 241.92V238.112H180.532V245H178.096V244.146C177.648 244.818 176.999 245.154 176.15 245.154Z" fill="#0060F7"/>
<path d="M182.542 245V238.112H184.964V239.05C185.206 238.695 185.519 238.425 185.902 238.238C186.284 238.051 186.714 237.958 187.19 237.958C188.011 237.958 188.618 238.201 189.01 238.686C189.411 239.171 189.612 239.918 189.612 240.926V245H187.12V241.024C187.12 240.604 187.045 240.305 186.896 240.128C186.756 239.951 186.546 239.862 186.266 239.862C185.892 239.862 185.594 239.983 185.37 240.226C185.146 240.459 185.034 240.777 185.034 241.178V245H182.542Z" fill="#0060F7"/>
<path d="M195.204 245.154C194.159 245.154 193.384 244.911 192.88 244.426C192.376 243.941 192.124 243.208 192.124 242.228V239.946H190.836V238.112H192.124V236.11H194.616V238.112H196.576V239.946H194.616V242.144C194.616 242.816 194.957 243.152 195.638 243.152C195.75 243.152 195.871 243.143 196.002 243.124C196.142 243.096 196.296 243.059 196.464 243.012L196.8 244.804C196.585 244.916 196.333 245 196.044 245.056C195.755 245.121 195.475 245.154 195.204 245.154Z" fill="#0060F7"/>
<path d="M200.07 241.668V240.912C200.07 240.529 200.14 240.175 200.28 239.848C200.42 239.521 200.658 239.185 200.994 238.84C201.218 238.607 201.372 238.411 201.456 238.252C201.55 238.093 201.596 237.925 201.596 237.748C201.596 237.309 201.288 237.09 200.672 237.09C199.851 237.09 199.062 237.375 198.306 237.944L197.508 236.068C197.938 235.732 198.456 235.466 199.062 235.27C199.669 235.074 200.271 234.976 200.868 234.976C201.512 234.976 202.077 235.079 202.562 235.284C203.057 235.489 203.44 235.779 203.71 236.152C203.981 236.525 204.116 236.955 204.116 237.44C204.116 237.86 204.018 238.252 203.822 238.616C203.636 238.971 203.295 239.33 202.8 239.694C202.362 240.011 202.063 240.291 201.904 240.534C201.755 240.777 201.662 241.001 201.624 241.206L201.54 241.668H200.07ZM199.51 245V242.452H202.1V245H199.51Z" fill="#0060F7"/>
<path d="M213.87 245.154C213.095 245.154 212.353 245.061 211.644 244.874C210.934 244.678 210.351 244.421 209.894 244.104L210.608 242.102C211.037 242.391 211.541 242.62 212.12 242.788C212.698 242.956 213.282 243.04 213.87 243.04C214.486 243.04 214.915 242.961 215.158 242.802C215.41 242.634 215.536 242.429 215.536 242.186C215.536 241.971 215.447 241.799 215.27 241.668C215.102 241.537 214.798 241.425 214.36 241.332L212.722 240.982C210.948 240.599 210.062 239.671 210.062 238.196C210.062 237.552 210.234 236.987 210.58 236.502C210.934 236.017 211.424 235.643 212.05 235.382C212.675 235.111 213.403 234.976 214.234 234.976C214.915 234.976 215.559 235.074 216.166 235.27C216.782 235.457 217.281 235.713 217.664 236.04L216.95 237.916C216.595 237.655 216.184 237.454 215.718 237.314C215.251 237.165 214.747 237.09 214.206 237.09C213.683 237.09 213.282 237.183 213.002 237.37C212.722 237.547 212.582 237.781 212.582 238.07C212.582 238.275 212.666 238.443 212.834 238.574C213.002 238.705 213.3 238.817 213.73 238.91L215.354 239.26C217.155 239.643 218.056 240.548 218.056 241.976C218.056 242.62 217.883 243.18 217.538 243.656C217.192 244.132 216.707 244.501 216.082 244.762C215.456 245.023 214.719 245.154 213.87 245.154Z" fill="#0060F7"/>
<path d="M219.643 236.922V234.668H222.261V236.922H219.643ZM219.713 245V238.112H222.205V245H219.713Z" fill="#0060F7"/>
<path d="M227.626 247.674C226.936 247.674 226.287 247.609 225.68 247.478C225.083 247.347 224.57 247.133 224.14 246.834L224.784 245.154C225.139 245.369 225.559 245.537 226.044 245.658C226.539 245.779 226.987 245.84 227.388 245.84C227.958 245.84 228.382 245.719 228.662 245.476C228.952 245.243 229.096 244.874 229.096 244.37V243.726C228.9 244.062 228.606 244.328 228.214 244.524C227.822 244.72 227.402 244.818 226.954 244.818C226.338 244.818 225.802 244.678 225.344 244.398C224.887 244.109 224.528 243.707 224.266 243.194C224.014 242.681 223.888 242.079 223.888 241.388C223.888 240.697 224.014 240.095 224.266 239.582C224.528 239.069 224.887 238.672 225.344 238.392C225.802 238.103 226.338 237.958 226.954 237.958C227.421 237.958 227.846 238.061 228.228 238.266C228.62 238.462 228.905 238.723 229.082 239.05V238.112H231.518V244.076C231.518 245.28 231.182 246.181 230.51 246.778C229.838 247.375 228.877 247.674 227.626 247.674ZM227.724 242.984C228.135 242.984 228.462 242.844 228.704 242.564C228.947 242.284 229.068 241.892 229.068 241.388C229.068 240.884 228.947 240.492 228.704 240.212C228.462 239.932 228.135 239.792 227.724 239.792C227.323 239.792 227.001 239.932 226.758 240.212C226.516 240.492 226.394 240.884 226.394 241.388C226.394 241.892 226.516 242.284 226.758 242.564C227.001 242.844 227.323 242.984 227.724 242.984Z" fill="#0060F7"/>
<path d="M233.534 245V238.112H235.956V239.05C236.199 238.695 236.511 238.425 236.894 238.238C237.277 238.051 237.706 237.958 238.182 237.958C239.003 237.958 239.61 238.201 240.002 238.686C240.403 239.171 240.604 239.918 240.604 240.926V245H238.112V241.024C238.112 240.604 238.037 240.305 237.888 240.128C237.748 239.951 237.538 239.862 237.258 239.862C236.885 239.862 236.586 239.983 236.362 240.226C236.138 240.459 236.026 240.777 236.026 241.178V245H233.534Z" fill="#0060F7"/>
<path d="M245.16 245.154C244.264 245.154 243.602 244.911 243.172 244.426C242.752 243.931 242.542 243.18 242.542 242.172V238.112H245.034V242.242C245.034 242.914 245.324 243.25 245.902 243.25C246.238 243.25 246.514 243.129 246.728 242.886C246.943 242.643 247.05 242.321 247.05 241.92V238.112H249.542V245H247.106V244.146C246.658 244.818 246.01 245.154 245.16 245.154Z" fill="#0060F7"/>
<path d="M251.552 247.52V238.112H253.974V239.05C254.161 238.714 254.446 238.448 254.828 238.252C255.211 238.056 255.631 237.958 256.088 237.958C256.676 237.958 257.194 238.103 257.642 238.392C258.1 238.681 258.454 239.097 258.706 239.638C258.968 240.17 259.098 240.809 259.098 241.556C259.098 242.293 258.972 242.933 258.72 243.474C258.468 244.015 258.114 244.431 257.656 244.72C257.208 245.009 256.686 245.154 256.088 245.154C255.659 245.154 255.258 245.065 254.884 244.888C254.52 244.711 254.24 244.473 254.044 244.174V247.52H251.552ZM255.304 243.32C255.678 243.32 255.986 243.18 256.228 242.9C256.471 242.62 256.592 242.172 256.592 241.556C256.592 240.931 256.471 240.483 256.228 240.212C255.986 239.932 255.678 239.792 255.304 239.792C254.922 239.792 254.609 239.932 254.366 240.212C254.124 240.483 254.002 240.931 254.002 241.556C254.002 242.172 254.124 242.62 254.366 242.9C254.609 243.18 254.922 243.32 255.304 243.32Z" fill="#0060F7"/>
<path d="M88.8818 304.154C87.8831 304.154 87.0058 303.944 86.2498 303.524C85.5031 303.095 84.9198 302.497 84.4998 301.732C84.0798 300.967 83.8698 300.075 83.8698 299.058C83.8698 298.031 84.0751 297.14 84.4858 296.384C84.9058 295.619 85.4938 295.026 86.2498 294.606C87.0058 294.186 87.8831 293.976 88.8818 293.976C89.8804 293.976 90.7531 294.186 91.4998 294.606C92.2558 295.026 92.8438 295.619 93.2638 296.384C93.6838 297.14 93.8938 298.031 93.8938 299.058C93.8938 300.075 93.6838 300.967 93.2638 301.732C92.8438 302.497 92.2558 303.095 91.4998 303.524C90.7531 303.944 89.8804 304.154 88.8818 304.154ZM88.8818 301.998C89.6098 301.998 90.1791 301.741 90.5898 301.228C91.0098 300.705 91.2198 299.982 91.2198 299.058C91.2198 298.134 91.0144 297.415 90.6038 296.902C90.1931 296.389 89.6191 296.132 88.8818 296.132C88.1444 296.132 87.5704 296.389 87.1598 296.902C86.7491 297.415 86.5438 298.134 86.5438 299.058C86.5438 299.982 86.7491 300.705 87.1598 301.228C87.5704 301.741 88.1444 301.998 88.8818 301.998Z" fill="#757F8E"/>
<path d="M95.8067 304V297.112H98.2287V298.274C98.5461 297.481 99.2321 297.047 100.287 296.972L100.973 296.916L101.113 299.016L99.7547 299.142C99.2601 299.189 98.9007 299.329 98.6767 299.562C98.4527 299.786 98.3407 300.122 98.3407 300.57V304H95.8067Z" fill="#757F8E"/>
<path d="M112.155 304.154C111.063 304.154 110.125 303.944 109.341 303.524C108.557 303.104 107.955 302.511 107.535 301.746C107.124 300.981 106.919 300.085 106.919 299.058C106.919 298.031 107.124 297.14 107.535 296.384C107.955 295.619 108.557 295.026 109.341 294.606C110.125 294.186 111.063 293.976 112.155 293.976C112.808 293.976 113.438 294.079 114.045 294.284C114.652 294.48 115.142 294.741 115.515 295.068L114.745 297.098C114.334 296.799 113.924 296.58 113.513 296.44C113.102 296.291 112.682 296.216 112.253 296.216C111.385 296.216 110.732 296.463 110.293 296.958C109.854 297.443 109.635 298.143 109.635 299.058C109.635 299.982 109.854 300.691 110.293 301.186C110.732 301.671 111.385 301.914 112.253 301.914C112.682 301.914 113.102 301.844 113.513 301.704C113.924 301.555 114.334 301.331 114.745 301.032L115.515 303.062C115.142 303.389 114.652 303.655 114.045 303.86C113.438 304.056 112.808 304.154 112.155 304.154Z" fill="#757F8E"/>
<path d="M120.168 304.154C119.403 304.154 118.735 304.009 118.166 303.72C117.597 303.431 117.153 303.015 116.836 302.474C116.519 301.933 116.36 301.293 116.36 300.556C116.36 299.809 116.519 299.17 116.836 298.638C117.153 298.097 117.597 297.681 118.166 297.392C118.735 297.103 119.403 296.958 120.168 296.958C120.933 296.958 121.601 297.103 122.17 297.392C122.739 297.681 123.178 298.097 123.486 298.638C123.803 299.17 123.962 299.809 123.962 300.556C123.962 301.293 123.803 301.933 123.486 302.474C123.178 303.015 122.739 303.431 122.17 303.72C121.601 304.009 120.933 304.154 120.168 304.154ZM120.168 302.32C120.541 302.32 120.849 302.18 121.092 301.9C121.335 301.62 121.456 301.172 121.456 300.556C121.456 299.931 121.335 299.483 121.092 299.212C120.849 298.932 120.541 298.792 120.168 298.792C119.785 298.792 119.473 298.932 119.23 299.212C118.987 299.483 118.866 299.931 118.866 300.556C118.866 301.172 118.987 301.62 119.23 301.9C119.473 302.18 119.785 302.32 120.168 302.32Z" fill="#757F8E"/>
<path d="M125.664 304V297.112H128.086V298.05C128.329 297.695 128.641 297.425 129.024 297.238C129.407 297.051 129.836 296.958 130.312 296.958C131.133 296.958 131.74 297.201 132.132 297.686C132.533 298.171 132.734 298.918 132.734 299.926V304H130.242V300.024C130.242 299.604 130.167 299.305 130.018 299.128C129.878 298.951 129.668 298.862 129.388 298.862C129.015 298.862 128.716 298.983 128.492 299.226C128.268 299.459 128.156 299.777 128.156 300.178V304H125.664Z" fill="#757F8E"/>
<path d="M138.326 304.154C137.281 304.154 136.506 303.911 136.002 303.426C135.498 302.941 135.246 302.208 135.246 301.228V298.946H133.958V297.112H135.246V295.11H137.738V297.112H139.698V298.946H137.738V301.144C137.738 301.816 138.079 302.152 138.76 302.152C138.872 302.152 138.993 302.143 139.124 302.124C139.264 302.096 139.418 302.059 139.586 302.012L139.922 303.804C139.707 303.916 139.455 304 139.166 304.056C138.877 304.121 138.597 304.154 138.326 304.154Z" fill="#757F8E"/>
<path d="M141.165 295.922V293.668H143.783V295.922H141.165ZM141.235 304V297.112H143.727V304H141.235Z" fill="#757F8E"/>
<path d="M145.733 304V297.112H148.155V298.05C148.397 297.695 148.71 297.425 149.093 297.238C149.475 297.051 149.905 296.958 150.381 296.958C151.202 296.958 151.809 297.201 152.201 297.686C152.602 298.171 152.803 298.918 152.803 299.926V304H150.311V300.024C150.311 299.604 150.236 299.305 150.087 299.128C149.947 298.951 149.737 298.862 149.457 298.862C149.083 298.862 148.785 298.983 148.561 299.226C148.337 299.459 148.225 299.777 148.225 300.178V304H145.733Z" fill="#757F8E"/>
<path d="M157.359 304.154C156.463 304.154 155.8 303.911 155.371 303.426C154.951 302.931 154.741 302.18 154.741 301.172V297.112H157.233V301.242C157.233 301.914 157.522 302.25 158.101 302.25C158.437 302.25 158.712 302.129 158.927 301.886C159.141 301.643 159.249 301.321 159.249 300.92V297.112H161.741V304H159.305V303.146C158.857 303.818 158.208 304.154 157.359 304.154Z" fill="#757F8E"/>
<path d="M167.503 304.154C166.663 304.154 165.935 304.009 165.319 303.72C164.712 303.421 164.246 303.001 163.919 302.46C163.592 301.919 163.429 301.279 163.429 300.542C163.429 299.842 163.583 299.221 163.891 298.68C164.208 298.139 164.638 297.719 165.179 297.42C165.73 297.112 166.355 296.958 167.055 296.958C167.746 296.958 168.343 297.103 168.847 297.392C169.36 297.681 169.752 298.097 170.023 298.638C170.303 299.17 170.443 299.795 170.443 300.514V301.06H165.809C165.893 301.508 166.08 301.83 166.369 302.026C166.658 302.222 167.06 302.32 167.573 302.32C167.928 302.32 168.296 302.269 168.679 302.166C169.071 302.054 169.416 301.895 169.715 301.69L170.331 303.328C169.976 303.58 169.542 303.781 169.029 303.93C168.516 304.079 168.007 304.154 167.503 304.154ZM167.167 298.568C166.794 298.568 166.486 298.68 166.243 298.904C166.01 299.128 165.86 299.455 165.795 299.884H168.399C168.371 299.445 168.25 299.119 168.035 298.904C167.83 298.68 167.54 298.568 167.167 298.568Z" fill="#757F8E"/>
<path d="M179.611 304L176.069 294.13H178.701L180.759 300.318L182.985 294.13H184.805L186.933 300.444L189.089 294.13H191.567L187.997 304H185.939L183.825 298.064L181.669 304H179.611Z" fill="#757F8E"/>
<path d="M192.924 295.922V293.668H195.542V295.922H192.924ZM192.994 304V297.112H195.486V304H192.994Z" fill="#757F8E"/>
<path d="M201.103 304.154C200.058 304.154 199.283 303.911 198.779 303.426C198.275 302.941 198.023 302.208 198.023 301.228V298.946H196.735V297.112H198.023V295.11H200.515V297.112H202.475V298.946H200.515V301.144C200.515 301.816 200.856 302.152 201.537 302.152C201.649 302.152 201.77 302.143 201.901 302.124C202.041 302.096 202.195 302.059 202.363 302.012L202.699 303.804C202.484 303.916 202.232 304 201.943 304.056C201.654 304.121 201.374 304.154 201.103 304.154Z" fill="#757F8E"/>
<path d="M204.012 304V294.13H206.504V297.966C206.999 297.294 207.717 296.958 208.66 296.958C209.481 296.958 210.088 297.201 210.48 297.686C210.881 298.171 211.082 298.918 211.082 299.926V304H208.59V300.024C208.59 299.604 208.515 299.305 208.366 299.128C208.226 298.951 208.016 298.862 207.736 298.862C207.363 298.862 207.064 298.983 206.84 299.226C206.616 299.459 206.504 299.777 206.504 300.178V304H204.012Z" fill="#757F8E"/>
</svg>
