<svg width="21" height="20" viewBox="0 0 21 20" fill="none" xmlns="http://www.w3.org/2000/svg">
<path d="M4.96077 10C4.96077 10.3682 4.6623 10.6667 4.29411 10.6667C3.92592 10.6667 3.62744 10.3682 3.62744 10C3.62744 9.63182 3.92592 9.33334 4.29411 9.33334C4.6623 9.33334 4.96077 9.63182 4.96077 10Z" stroke="white" stroke-opacity="0.62" stroke-width="2"/>
<path d="M11.6274 10C11.6274 10.3682 11.329 10.6667 10.9608 10.6667C10.5926 10.6667 10.2941 10.3682 10.2941 10C10.2941 9.63182 10.5926 9.33334 10.9608 9.33334C11.329 9.33334 11.6274 9.63182 11.6274 10Z" stroke="white" stroke-opacity="0.62" stroke-width="2"/>
<path d="M18.2941 10C18.2941 10.3682 17.9956 10.6667 17.6274 10.6667C17.2593 10.6667 16.9608 10.3682 16.9608 10C16.9608 9.63182 17.2593 9.33334 17.6274 9.33334C17.9956 9.33334 18.2941 9.63182 18.2941 10Z" stroke="white" stroke-opacity="0.62" stroke-width="2"/>
</svg>
