<svg width="39" height="14" viewBox="0 0 39 14" fill="none" xmlns="http://www.w3.org/2000/svg">
<path d="M0.128784 11V1.13003H2.70478V8.85803H7.10078V11H0.128784Z" fill="#757F8E"/>
<path d="M12.1279 11.154C11.3625 11.154 10.6952 11.0094 10.1259 10.72C9.55655 10.4307 9.11321 10.0154 8.79588 9.47403C8.47855 8.9327 8.31988 8.29336 8.31988 7.55603C8.31988 6.80936 8.47855 6.17003 8.79588 5.63803C9.11321 5.0967 9.55655 4.68136 10.1259 4.39203C10.6952 4.1027 11.3625 3.95803 12.1279 3.95803C12.8932 3.95803 13.5605 4.1027 14.1299 4.39203C14.6992 4.68136 15.1379 5.0967 15.4459 5.63803C15.7632 6.17003 15.9219 6.80936 15.9219 7.55603C15.9219 8.29336 15.7632 8.9327 15.4459 9.47403C15.1379 10.0154 14.6992 10.4307 14.1299 10.72C13.5605 11.0094 12.8932 11.154 12.1279 11.154ZM12.1279 9.32003C12.5012 9.32003 12.8092 9.18003 13.0519 8.90003C13.2945 8.62003 13.4159 8.17203 13.4159 7.55603C13.4159 6.9307 13.2945 6.4827 13.0519 6.21203C12.8092 5.93203 12.5012 5.79203 12.1279 5.79203C11.7452 5.79203 11.4325 5.93203 11.1899 6.21203C10.9472 6.4827 10.8259 6.9307 10.8259 7.55603C10.8259 8.17203 10.9472 8.62003 11.1899 8.90003C11.4325 9.18003 11.7452 9.32003 12.1279 9.32003Z" fill="#757F8E"/>
<path d="M21.0398 13.674C20.3491 13.674 19.7004 13.6087 19.0938 13.478C18.4964 13.3474 17.9831 13.1327 17.5538 12.834L18.1978 11.154C18.5524 11.3687 18.9724 11.5367 19.4578 11.658C19.9524 11.7794 20.4004 11.84 20.8018 11.84C21.3711 11.84 21.7958 11.7187 22.0758 11.476C22.3651 11.2427 22.5098 10.874 22.5098 10.37V9.72603C22.3138 10.062 22.0198 10.328 21.6278 10.524C21.2358 10.72 20.8158 10.818 20.3678 10.818C19.7518 10.818 19.2151 10.678 18.7578 10.398C18.3004 10.1087 17.9411 9.70736 17.6798 9.19403C17.4278 8.6807 17.3018 8.0787 17.3018 7.38803C17.3018 6.69736 17.4278 6.09536 17.6798 5.58203C17.9411 5.0687 18.3004 4.67203 18.7578 4.39203C19.2151 4.1027 19.7518 3.95803 20.3678 3.95803C20.8344 3.95803 21.2591 4.0607 21.6418 4.26603C22.0338 4.46203 22.3184 4.72336 22.4958 5.05003V4.11203H24.9318V10.076C24.9318 11.28 24.5958 12.1807 23.9238 12.778C23.2518 13.3754 22.2904 13.674 21.0398 13.674ZM21.1378 8.98403C21.5484 8.98403 21.8751 8.84403 22.1178 8.56403C22.3604 8.28403 22.4818 7.89203 22.4818 7.38803C22.4818 6.88403 22.3604 6.49203 22.1178 6.21203C21.8751 5.93203 21.5484 5.79203 21.1378 5.79203C20.7364 5.79203 20.4144 5.93203 20.1718 6.21203C19.9291 6.49203 19.8078 6.88403 19.8078 7.38803C19.8078 7.89203 19.9291 8.28403 20.1718 8.56403C20.4144 8.84403 20.7364 8.98403 21.1378 8.98403Z" fill="#757F8E"/>
<path d="M26.8774 2.92203V0.66803H29.4954V2.92203H26.8774ZM26.9474 11V4.11203H29.4394V11H26.9474Z" fill="#757F8E"/>
<path d="M31.4449 11V4.11203H33.8669V5.05003C34.1096 4.69536 34.4223 4.4247 34.8049 4.23803C35.1876 4.05136 35.6169 3.95803 36.0929 3.95803C36.9143 3.95803 37.5209 4.2007 37.9129 4.68603C38.3143 5.17136 38.5149 5.91803 38.5149 6.92603V11H36.0229V7.02403C36.0229 6.60403 35.9483 6.30536 35.7989 6.12803C35.6589 5.9507 35.4489 5.86203 35.1689 5.86203C34.7956 5.86203 34.4969 5.98336 34.2729 6.22603C34.0489 6.45936 33.9369 6.7767 33.9369 7.17803V11H31.4449Z" fill="#757F8E"/>
</svg>
