<svg width="50" height="14" viewBox="0 0 50 14" fill="none" xmlns="http://www.w3.org/2000/svg">
<path d="M4.24675 11.154C3.47209 11.154 2.73009 11.0607 2.02075 10.874C1.31142 10.678 0.728085 10.4214 0.270752 10.104L0.984752 8.10203C1.41409 8.39136 1.91809 8.62003 2.49675 8.78803C3.07542 8.95603 3.65875 9.04003 4.24675 9.04003C4.86275 9.04003 5.29209 8.9607 5.53475 8.80203C5.78675 8.63403 5.91275 8.4287 5.91275 8.18603C5.91275 7.97136 5.82409 7.7987 5.64675 7.66803C5.47875 7.53736 5.17542 7.42536 4.73675 7.33203L3.09875 6.98203C1.32542 6.59936 0.438752 5.6707 0.438752 4.19603C0.438752 3.55203 0.611419 2.98736 0.956752 2.50203C1.31142 2.0167 1.80142 1.64336 2.42675 1.38203C3.05209 1.11136 3.78009 0.97603 4.61075 0.97603C5.29209 0.97603 5.93609 1.07403 6.54275 1.27003C7.15875 1.4567 7.65809 1.71336 8.04075 2.04003L7.32675 3.91603C6.97209 3.6547 6.56142 3.45403 6.09475 3.31403C5.62809 3.1647 5.12409 3.09003 4.58275 3.09003C4.06009 3.09003 3.65875 3.18336 3.37875 3.37003C3.09875 3.54736 2.95875 3.7807 2.95875 4.07003C2.95875 4.27536 3.04275 4.44336 3.21075 4.57403C3.37875 4.7047 3.67742 4.8167 4.10675 4.91003L5.73075 5.26003C7.53209 5.6427 8.43275 6.54803 8.43275 7.97603C8.43275 8.62003 8.26009 9.18003 7.91475 9.65603C7.56942 10.132 7.08409 10.5007 6.45875 10.762C5.83342 11.0234 5.09609 11.154 4.24675 11.154Z" fill="#757F8E"/>
<path d="M10.0199 2.92203V0.66803H12.6379V2.92203H10.0199ZM10.0899 11V4.11203H12.5819V11H10.0899Z" fill="#757F8E"/>
<path d="M18.0034 13.674C17.3127 13.674 16.6641 13.6087 16.0574 13.478C15.4601 13.3474 14.9467 13.1327 14.5174 12.834L15.1614 11.154C15.5161 11.3687 15.9361 11.5367 16.4214 11.658C16.9161 11.7794 17.3641 11.84 17.7654 11.84C18.3347 11.84 18.7594 11.7187 19.0394 11.476C19.3287 11.2427 19.4734 10.874 19.4734 10.37V9.72603C19.2774 10.062 18.9834 10.328 18.5914 10.524C18.1994 10.72 17.7794 10.818 17.3314 10.818C16.7154 10.818 16.1787 10.678 15.7214 10.398C15.2641 10.1087 14.9047 9.70736 14.6434 9.19403C14.3914 8.6807 14.2654 8.0787 14.2654 7.38803C14.2654 6.69736 14.3914 6.09536 14.6434 5.58203C14.9047 5.0687 15.2641 4.67203 15.7214 4.39203C16.1787 4.1027 16.7154 3.95803 17.3314 3.95803C17.7981 3.95803 18.2227 4.0607 18.6054 4.26603C18.9974 4.46203 19.2821 4.72336 19.4594 5.05003V4.11203H21.8954V10.076C21.8954 11.28 21.5594 12.1807 20.8874 12.778C20.2154 13.3754 19.2541 13.674 18.0034 13.674ZM18.1014 8.98403C18.5121 8.98403 18.8387 8.84403 19.0814 8.56403C19.3241 8.28403 19.4454 7.89203 19.4454 7.38803C19.4454 6.88403 19.3241 6.49203 19.0814 6.21203C18.8387 5.93203 18.5121 5.79203 18.1014 5.79203C17.7001 5.79203 17.3781 5.93203 17.1354 6.21203C16.8927 6.49203 16.7714 6.88403 16.7714 7.38803C16.7714 7.89203 16.8927 8.28403 17.1354 8.56403C17.3781 8.84403 17.7001 8.98403 18.1014 8.98403Z" fill="#757F8E"/>
<path d="M23.9111 11V4.11203H26.3331V5.05003C26.5757 4.69536 26.8884 4.4247 27.2711 4.23803C27.6537 4.05136 28.0831 3.95803 28.5591 3.95803C29.3804 3.95803 29.9871 4.2007 30.3791 4.68603C30.7804 5.17136 30.9811 5.91803 30.9811 6.92603V11H28.4891V7.02403C28.4891 6.60403 28.4144 6.30536 28.2651 6.12803C28.1251 5.9507 27.9151 5.86203 27.6351 5.86203C27.2617 5.86203 26.9631 5.98336 26.7391 6.22603C26.5151 6.45936 26.4031 6.7767 26.4031 7.17803V11H23.9111Z" fill="#757F8E"/>
<path d="M35.5373 11.154C34.6413 11.154 33.9786 10.9114 33.5493 10.426C33.1293 9.93136 32.9193 9.18003 32.9193 8.17203V4.11203H35.4113V8.24203C35.4113 8.91403 35.7006 9.25003 36.2793 9.25003C36.6153 9.25003 36.8906 9.1287 37.1053 8.88603C37.32 8.64336 37.4273 8.32136 37.4273 7.92003V4.11203H39.9193V11H37.4833V10.146C37.0353 10.818 36.3866 11.154 35.5373 11.154Z" fill="#757F8E"/>
<path d="M41.9295 13.52V4.11203H44.3515V5.05003C44.5382 4.71403 44.8228 4.44803 45.2055 4.25203C45.5882 4.05603 46.0082 3.95803 46.4655 3.95803C47.0535 3.95803 47.5715 4.1027 48.0195 4.39203C48.4768 4.68136 48.8315 5.0967 49.0835 5.63803C49.3448 6.17003 49.4755 6.80936 49.4755 7.55603C49.4755 8.29336 49.3495 8.9327 49.0975 9.47403C48.8455 10.0154 48.4908 10.4307 48.0335 10.72C47.5855 11.0094 47.0628 11.154 46.4655 11.154C46.0362 11.154 45.6348 11.0654 45.2615 10.888C44.8975 10.7107 44.6175 10.4727 44.4215 10.174V13.52H41.9295ZM45.6815 9.32003C46.0548 9.32003 46.3628 9.18003 46.6055 8.90003C46.8482 8.62003 46.9695 8.17203 46.9695 7.55603C46.9695 6.9307 46.8482 6.4827 46.6055 6.21203C46.3628 5.93203 46.0548 5.79203 45.6815 5.79203C45.2988 5.79203 44.9862 5.93203 44.7435 6.21203C44.5008 6.4827 44.3795 6.9307 44.3795 7.55603C44.3795 8.17203 44.5008 8.62003 44.7435 8.90003C44.9862 9.18003 45.2988 9.32003 45.6815 9.32003Z" fill="#757F8E"/>
</svg>
