<svg width="103" height="14" viewBox="0 0 103 14" fill="none" xmlns="http://www.w3.org/2000/svg">
<path d="M0.37146 11V1.13003H4.45946C6.16746 1.13003 7.49279 1.55936 8.43546 2.41803C9.37813 3.2767 9.84946 4.49003 9.84946 6.05803C9.84946 7.62603 9.37813 8.84403 8.43546 9.71203C7.49279 10.5707 6.16746 11 4.45946 11H0.37146ZM2.94746 8.91403H4.29146C5.27146 8.91403 5.99479 8.6807 6.46146 8.21403C6.93746 7.73803 7.17546 7.01936 7.17546 6.05803C7.17546 5.0967 6.93746 4.3827 6.46146 3.91603C5.98546 3.44936 5.26213 3.21603 4.29146 3.21603H2.94746V8.91403Z" fill="#757F8E"/>
<path d="M15.2553 11.154C14.49 11.154 13.8227 11.0094 13.2533 10.72C12.684 10.4307 12.2407 10.0154 11.9233 9.47403C11.606 8.9327 11.4473 8.29336 11.4473 7.55603C11.4473 6.80936 11.606 6.17003 11.9233 5.63803C12.2407 5.0967 12.684 4.68136 13.2533 4.39203C13.8227 4.1027 14.49 3.95803 15.2553 3.95803C16.0207 3.95803 16.688 4.1027 17.2573 4.39203C17.8267 4.68136 18.2653 5.0967 18.5733 5.63803C18.8907 6.17003 19.0493 6.80936 19.0493 7.55603C19.0493 8.29336 18.8907 8.9327 18.5733 9.47403C18.2653 10.0154 17.8267 10.4307 17.2573 10.72C16.688 11.0094 16.0207 11.154 15.2553 11.154ZM15.2553 9.32003C15.6287 9.32003 15.9367 9.18003 16.1793 8.90003C16.422 8.62003 16.5433 8.17203 16.5433 7.55603C16.5433 6.9307 16.422 6.4827 16.1793 6.21203C15.9367 5.93203 15.6287 5.79203 15.2553 5.79203C14.8727 5.79203 14.56 5.93203 14.3173 6.21203C14.0747 6.4827 13.9533 6.9307 13.9533 7.55603C13.9533 8.17203 14.0747 8.62003 14.3173 8.90003C14.56 9.18003 14.8727 9.32003 15.2553 9.32003Z" fill="#757F8E"/>
<path d="M24.2652 11.154C23.4905 11.154 22.8139 11.0094 22.2352 10.72C21.6659 10.4307 21.2225 10.0154 20.9052 9.47403C20.5879 8.9327 20.4292 8.2887 20.4292 7.54203C20.4292 6.79536 20.5879 6.15603 20.9052 5.62403C21.2225 5.0827 21.6659 4.67203 22.2352 4.39203C22.8139 4.1027 23.4905 3.95803 24.2652 3.95803C24.7225 3.95803 25.1752 4.02336 25.6232 4.15403C26.0805 4.27536 26.4539 4.44803 26.7432 4.67203L26.0852 6.38003C25.8705 6.21203 25.6185 6.08136 25.3292 5.98803C25.0492 5.88536 24.7832 5.83403 24.5312 5.83403C24.0365 5.83403 23.6539 5.98336 23.3832 6.28203C23.1125 6.5807 22.9772 7.0007 22.9772 7.54203C22.9772 8.0927 23.1125 8.52203 23.3832 8.83003C23.6539 9.1287 24.0365 9.27803 24.5312 9.27803C24.7832 9.27803 25.0492 9.23136 25.3292 9.13803C25.6185 9.03536 25.8705 8.90003 26.0852 8.73203L26.7432 10.44C26.4539 10.664 26.0805 10.8414 25.6232 10.972C25.1659 11.0934 24.7132 11.154 24.2652 11.154Z" fill="#757F8E"/>
<path d="M31.7591 11.154C30.7138 11.154 29.9391 10.9114 29.4351 10.426C28.9311 9.9407 28.6791 9.20803 28.6791 8.22803V5.94603H27.3911V4.11203H28.6791V2.11003H31.1711V4.11203H33.1311V5.94603H31.1711V8.14403C31.1711 8.81603 31.5118 9.15203 32.1931 9.15203C32.3051 9.15203 32.4265 9.1427 32.5571 9.12403C32.6971 9.09603 32.8511 9.0587 33.0191 9.01203L33.3551 10.804C33.1405 10.916 32.8885 11 32.5991 11.056C32.3098 11.1214 32.0298 11.154 31.7591 11.154Z" fill="#757F8E"/>
<path d="M38.0857 11.154C37.3204 11.154 36.653 11.0094 36.0837 10.72C35.5144 10.4307 35.071 10.0154 34.7537 9.47403C34.4364 8.9327 34.2777 8.29336 34.2777 7.55603C34.2777 6.80936 34.4364 6.17003 34.7537 5.63803C35.071 5.0967 35.5144 4.68136 36.0837 4.39203C36.653 4.1027 37.3204 3.95803 38.0857 3.95803C38.851 3.95803 39.5184 4.1027 40.0877 4.39203C40.657 4.68136 41.0957 5.0967 41.4037 5.63803C41.721 6.17003 41.8797 6.80936 41.8797 7.55603C41.8797 8.29336 41.721 8.9327 41.4037 9.47403C41.0957 10.0154 40.657 10.4307 40.0877 10.72C39.5184 11.0094 38.851 11.154 38.0857 11.154ZM38.0857 9.32003C38.459 9.32003 38.767 9.18003 39.0097 8.90003C39.2524 8.62003 39.3737 8.17203 39.3737 7.55603C39.3737 6.9307 39.2524 6.4827 39.0097 6.21203C38.767 5.93203 38.459 5.79203 38.0857 5.79203C37.703 5.79203 37.3904 5.93203 37.1477 6.21203C36.905 6.4827 36.7837 6.9307 36.7837 7.55603C36.7837 8.17203 36.905 8.62003 37.1477 8.90003C37.3904 9.18003 37.703 9.32003 38.0857 9.32003Z" fill="#757F8E"/>
<path d="M43.5816 11V4.11203H46.0036V5.27403C46.3209 4.4807 47.0069 4.0467 48.0616 3.97203L48.7476 3.91603L48.8876 6.01603L47.5296 6.14203C47.0349 6.1887 46.6756 6.3287 46.4516 6.56203C46.2276 6.78603 46.1156 7.12203 46.1156 7.57003V11H43.5816Z" fill="#757F8E"/>
<path d="M54.9458 11V1.13003H57.5218V8.85803H61.9178V11H54.9458Z" fill="#757F8E"/>
<path d="M66.9448 11.154C66.1795 11.154 65.5122 11.0094 64.9428 10.72C64.3735 10.4307 63.9302 10.0154 63.6129 9.47403C63.2955 8.9327 63.1369 8.29336 63.1369 7.55603C63.1369 6.80936 63.2955 6.17003 63.6129 5.63803C63.9302 5.0967 64.3735 4.68136 64.9428 4.39203C65.5122 4.1027 66.1795 3.95803 66.9448 3.95803C67.7102 3.95803 68.3775 4.1027 68.9468 4.39203C69.5162 4.68136 69.9548 5.0967 70.2628 5.63803C70.5802 6.17003 70.7388 6.80936 70.7388 7.55603C70.7388 8.29336 70.5802 8.9327 70.2628 9.47403C69.9548 10.0154 69.5162 10.4307 68.9468 10.72C68.3775 11.0094 67.7102 11.154 66.9448 11.154ZM66.9448 9.32003C67.3182 9.32003 67.6262 9.18003 67.8688 8.90003C68.1115 8.62003 68.2328 8.17203 68.2328 7.55603C68.2328 6.9307 68.1115 6.4827 67.8688 6.21203C67.6262 5.93203 67.3182 5.79203 66.9448 5.79203C66.5622 5.79203 66.2495 5.93203 66.0068 6.21203C65.7642 6.4827 65.6428 6.9307 65.6428 7.55603C65.6428 8.17203 65.7642 8.62003 66.0068 8.90003C66.2495 9.18003 66.5622 9.32003 66.9448 9.32003Z" fill="#757F8E"/>
<path d="M75.8567 13.674C75.1661 13.674 74.5174 13.6087 73.9107 13.478C73.3134 13.3474 72.8001 13.1327 72.3707 12.834L73.0147 11.154C73.3694 11.3687 73.7894 11.5367 74.2747 11.658C74.7694 11.7794 75.2174 11.84 75.6187 11.84C76.1881 11.84 76.6127 11.7187 76.8927 11.476C77.1821 11.2427 77.3267 10.874 77.3267 10.37V9.72603C77.1307 10.062 76.8367 10.328 76.4447 10.524C76.0527 10.72 75.6327 10.818 75.1847 10.818C74.5687 10.818 74.0321 10.678 73.5747 10.398C73.1174 10.1087 72.758 9.70736 72.4967 9.19403C72.2447 8.6807 72.1187 8.0787 72.1187 7.38803C72.1187 6.69736 72.2447 6.09536 72.4967 5.58203C72.758 5.0687 73.1174 4.67203 73.5747 4.39203C74.0321 4.1027 74.5687 3.95803 75.1847 3.95803C75.6514 3.95803 76.0761 4.0607 76.4587 4.26603C76.8507 4.46203 77.1354 4.72336 77.3127 5.05003V4.11203H79.7487V10.076C79.7487 11.28 79.4127 12.1807 78.7407 12.778C78.0687 13.3754 77.1074 13.674 75.8567 13.674ZM75.9547 8.98403C76.3654 8.98403 76.6921 8.84403 76.9347 8.56403C77.1774 8.28403 77.2987 7.89203 77.2987 7.38803C77.2987 6.88403 77.1774 6.49203 76.9347 6.21203C76.6921 5.93203 76.3654 5.79203 75.9547 5.79203C75.5534 5.79203 75.2314 5.93203 74.9887 6.21203C74.7461 6.49203 74.6247 6.88403 74.6247 7.38803C74.6247 7.89203 74.7461 8.28403 74.9887 8.56403C75.2314 8.84403 75.5534 8.98403 75.9547 8.98403Z" fill="#757F8E"/>
<path d="M81.6944 2.92203V0.66803H84.3124V2.92203H81.6944ZM81.7644 11V4.11203H84.2564V11H81.7644Z" fill="#757F8E"/>
<path d="M86.2619 11V4.11203H88.6839V5.05003C88.9266 4.69536 89.2392 4.4247 89.6219 4.23803C90.0046 4.05136 90.4339 3.95803 90.9099 3.95803C91.7312 3.95803 92.3379 4.2007 92.7299 4.68603C93.1312 5.17136 93.3319 5.91803 93.3319 6.92603V11H90.8399V7.02403C90.8399 6.60403 90.7652 6.30536 90.6159 6.12803C90.4759 5.9507 90.2659 5.86203 89.9859 5.86203C89.6126 5.86203 89.3139 5.98336 89.0899 6.22603C88.8659 6.45936 88.7539 6.7767 88.7539 7.17803V11H86.2619Z" fill="#757F8E"/>
<path d="M99.752 6.66003V4.11203H102.342V6.66003H99.752ZM99.752 11V8.45203H102.342V11H99.752Z" fill="#757F8E"/>
</svg>
