<svg width="41" height="12" viewBox="0 0 41 12" fill="none" xmlns="http://www.w3.org/2000/svg">
<path d="M0.895996 11V1.13H7.868V3.118H3.36V4.994H7.546V6.982H3.36V9.012H7.868V11H0.895996Z" fill="black"/>
<path d="M9.91561 11V4.112H12.3376V5.036C12.5523 4.70933 12.8369 4.448 13.1916 4.252C13.5556 4.056 13.9709 3.958 14.4376 3.958C14.9043 3.958 15.3056 4.06067 15.6416 4.266C15.9869 4.47133 16.2483 4.78867 16.4256 5.218C16.6589 4.81667 16.9763 4.50867 17.3776 4.294C17.7789 4.07 18.2223 3.958 18.7076 3.958C19.5103 3.958 20.1029 4.20067 20.4856 4.686C20.8776 5.162 21.0736 5.90867 21.0736 6.926V11H18.5816V6.996C18.5816 6.59467 18.5209 6.30533 18.3996 6.128C18.2783 5.95067 18.0776 5.862 17.7976 5.862C17.4523 5.862 17.1863 5.98333 16.9996 6.226C16.8223 6.46867 16.7336 6.814 16.7336 7.262V11H14.2416V6.996C14.2416 6.59467 14.1809 6.30533 14.0596 6.128C13.9383 5.95067 13.7376 5.862 13.4576 5.862C13.1216 5.862 12.8603 5.98333 12.6736 6.226C12.4963 6.46867 12.4076 6.814 12.4076 7.262V11H9.91561Z" fill="black"/>
<path d="M25.4744 11.154C24.9424 11.154 24.4711 11.056 24.0604 10.86C23.6591 10.664 23.3418 10.398 23.1084 10.062C22.8844 9.71667 22.7724 9.32467 22.7724 8.886C22.7724 8.39133 22.9031 7.99933 23.1644 7.71C23.4258 7.41133 23.8458 7.20133 24.4244 7.08C25.0031 6.94933 25.7731 6.884 26.7344 6.884H27.2664V6.688C27.2664 6.352 27.1778 6.114 27.0004 5.974C26.8324 5.834 26.5384 5.764 26.1184 5.764C25.7638 5.764 25.3718 5.82 24.9424 5.932C24.5131 6.044 24.0931 6.21667 23.6824 6.45L23.0524 4.812C23.2858 4.644 23.5844 4.49467 23.9484 4.364C24.3124 4.23333 24.6951 4.13533 25.0964 4.07C25.4978 3.99533 25.8758 3.958 26.2304 3.958C27.3784 3.958 28.2278 4.20533 28.7784 4.7C29.3384 5.19467 29.6184 5.974 29.6184 7.038V11H27.2944V10.02C27.1731 10.3747 26.9538 10.6547 26.6364 10.86C26.3191 11.056 25.9318 11.154 25.4744 11.154ZM26.0344 9.53C26.3798 9.53 26.6691 9.418 26.9024 9.194C27.1451 8.97 27.2664 8.676 27.2664 8.312V8.06H26.7344C26.1838 8.06 25.7778 8.12067 25.5164 8.242C25.2644 8.354 25.1384 8.536 25.1384 8.788C25.1384 9.00267 25.2131 9.18 25.3624 9.32C25.5211 9.46 25.7451 9.53 26.0344 9.53Z" fill="black"/>
<path d="M31.5275 2.922V0.667999H34.1455V2.922H31.5275ZM31.5975 11V4.112H34.0895V11H31.5975Z" fill="black"/>
<path d="M38.811 11.154C37.859 11.154 37.1683 10.916 36.739 10.44C36.3096 9.95467 36.095 9.22667 36.095 8.256V1.13H38.587V8.172C38.587 8.82533 38.8856 9.152 39.483 9.152C39.5763 9.152 39.6696 9.14733 39.763 9.138C39.8656 9.12867 39.9636 9.11467 40.0569 9.096L40.0289 11C39.6556 11.1027 39.2496 11.154 38.811 11.154Z" fill="black"/>
</svg>
