<svg width="253" height="33" viewBox="0 0 253 33" fill="none" xmlns="http://www.w3.org/2000/svg">
<path d="M0.207153 11.326V1.456H4.95315C6.07315 1.456 6.93649 1.74533 7.54315 2.324C8.15915 2.89333 8.46715 3.682 8.46715 4.69C8.46715 5.698 8.15915 6.49133 7.54315 7.07C6.93649 7.63933 6.07315 7.924 4.95315 7.924H2.78315V11.326H0.207153ZM2.78315 5.95H4.50515C5.51315 5.95 6.01715 5.53 6.01715 4.69C6.01715 3.85 5.51315 3.43 4.50515 3.43H2.78315V5.95Z" fill="black"/>
<path d="M12.7761 11.48C11.8241 11.48 11.1334 11.242 10.7041 10.766C10.2748 10.2807 10.0601 9.55267 10.0601 8.582V1.456H12.5521V8.498C12.5521 9.15133 12.8508 9.478 13.4481 9.478C13.5414 9.478 13.6348 9.47333 13.7281 9.464C13.8308 9.45467 13.9288 9.44067 14.0221 9.422L13.9941 11.326C13.6208 11.4287 13.2148 11.48 12.7761 11.48Z" fill="black"/>
<path d="M19.1709 11.48C18.3309 11.48 17.6029 11.3353 16.9869 11.046C16.3803 10.7473 15.9136 10.3273 15.5869 9.786C15.2603 9.24467 15.0969 8.60533 15.0969 7.868C15.0969 7.168 15.2509 6.54733 15.5589 6.006C15.8763 5.46467 16.3056 5.04467 16.8469 4.746C17.3976 4.438 18.0229 4.284 18.7229 4.284C19.4136 4.284 20.0109 4.42867 20.5149 4.718C21.0283 5.00733 21.4203 5.42267 21.6909 5.964C21.9709 6.496 22.1109 7.12133 22.1109 7.84V8.386H17.4769C17.5609 8.834 17.7476 9.156 18.0369 9.352C18.3263 9.548 18.7276 9.646 19.2409 9.646C19.5956 9.646 19.9643 9.59467 20.3469 9.492C20.7389 9.38 21.0843 9.22133 21.3829 9.016L21.9989 10.654C21.6443 10.906 21.2103 11.1067 20.6969 11.256C20.1836 11.4053 19.6749 11.48 19.1709 11.48ZM18.8349 5.894C18.4616 5.894 18.1536 6.006 17.9109 6.23C17.6776 6.454 17.5282 6.78067 17.4629 7.21H20.0669C20.0389 6.77133 19.9176 6.44467 19.7029 6.23C19.4976 6.006 19.2083 5.894 18.8349 5.894Z" fill="black"/>
<path d="M26.1385 11.48C25.6065 11.48 25.1352 11.382 24.7245 11.186C24.3232 10.99 24.0059 10.724 23.7725 10.388C23.5485 10.0427 23.4365 9.65067 23.4365 9.212C23.4365 8.71733 23.5672 8.32533 23.8285 8.036C24.0899 7.73733 24.5099 7.52733 25.0885 7.406C25.6672 7.27533 26.4372 7.21 27.3985 7.21H27.9305V7.014C27.9305 6.678 27.8419 6.44 27.6645 6.3C27.4965 6.16 27.2025 6.09 26.7825 6.09C26.4279 6.09 26.0359 6.146 25.6065 6.258C25.1772 6.37 24.7572 6.54267 24.3465 6.776L23.7165 5.138C23.9499 4.97 24.2485 4.82067 24.6125 4.69C24.9765 4.55933 25.3592 4.46133 25.7605 4.396C26.1619 4.32133 26.5399 4.284 26.8945 4.284C28.0425 4.284 28.8919 4.53133 29.4425 5.026C30.0025 5.52067 30.2825 6.3 30.2825 7.364V11.326H27.9585V10.346C27.8372 10.7007 27.6179 10.9807 27.3005 11.186C26.9832 11.382 26.5959 11.48 26.1385 11.48ZM26.6985 9.856C27.0439 9.856 27.3332 9.744 27.5665 9.52C27.8092 9.296 27.9305 9.002 27.9305 8.638V8.386H27.3985C26.8479 8.386 26.4419 8.44667 26.1805 8.568C25.9285 8.68 25.8025 8.862 25.8025 9.114C25.8025 9.32867 25.8772 9.506 26.0265 9.646C26.1852 9.786 26.4092 9.856 26.6985 9.856Z" fill="black"/>
<path d="M35.0056 11.48C34.3709 11.48 33.7829 11.4147 33.2416 11.284C32.7096 11.1533 32.2569 10.9713 31.8836 10.738L32.4576 9.128C32.8029 9.324 33.2042 9.48733 33.6616 9.618C34.1189 9.73933 34.5716 9.8 35.0196 9.8C35.3649 9.8 35.6122 9.75333 35.7616 9.66C35.9109 9.55733 35.9856 9.42667 35.9856 9.268C35.9856 9.128 35.9342 9.02533 35.8316 8.96C35.7382 8.88533 35.6029 8.82933 35.4256 8.792L33.8716 8.54C33.2929 8.44667 32.8449 8.23667 32.5276 7.91C32.2102 7.58333 32.0516 7.15867 32.0516 6.636C32.0516 6.15067 32.1869 5.73533 32.4576 5.39C32.7282 5.03533 33.1062 4.76467 33.5916 4.578C34.0769 4.382 34.6322 4.284 35.2576 4.284C35.7522 4.284 36.2422 4.34467 36.7276 4.466C37.2129 4.578 37.6376 4.76467 38.0016 5.026L37.3856 6.608C37.1149 6.42133 36.7789 6.26733 36.3776 6.146C35.9762 6.01533 35.6169 5.95 35.2996 5.95C34.9169 5.95 34.6462 6.006 34.4876 6.118C34.3289 6.22067 34.2496 6.34667 34.2496 6.496C34.2496 6.748 34.4222 6.902 34.7676 6.958L36.3216 7.224C36.9189 7.31733 37.3762 7.52267 37.6936 7.84C38.0202 8.148 38.1836 8.568 38.1836 9.1C38.1836 9.856 37.8942 10.444 37.3156 10.864C36.7369 11.2747 35.9669 11.48 35.0056 11.48Z" fill="black"/>
<path d="M43.5189 11.48C42.6789 11.48 41.9509 11.3353 41.3349 11.046C40.7282 10.7473 40.2616 10.3273 39.9349 9.786C39.6082 9.24467 39.4449 8.60533 39.4449 7.868C39.4449 7.168 39.5989 6.54733 39.9069 6.006C40.2242 5.46467 40.6536 5.04467 41.1949 4.746C41.7456 4.438 42.3709 4.284 43.0709 4.284C43.7616 4.284 44.3589 4.42867 44.8629 4.718C45.3762 5.00733 45.7682 5.42267 46.0389 5.964C46.3189 6.496 46.4589 7.12133 46.4589 7.84V8.386H41.8249C41.9089 8.834 42.0956 9.156 42.3849 9.352C42.6742 9.548 43.0756 9.646 43.5889 9.646C43.9436 9.646 44.3122 9.59467 44.6949 9.492C45.0869 9.38 45.4322 9.22133 45.7309 9.016L46.3469 10.654C45.9922 10.906 45.5582 11.1067 45.0449 11.256C44.5316 11.4053 44.0229 11.48 43.5189 11.48ZM43.1829 5.894C42.8096 5.894 42.5016 6.006 42.2589 6.23C42.0256 6.454 41.8762 6.78067 41.8109 7.21H44.4149C44.3869 6.77133 44.2656 6.44467 44.0509 6.23C43.8456 6.006 43.5562 5.894 43.1829 5.894Z" fill="black"/>
<path d="M58.0904 3.248V0.993999H60.6944V3.248H58.0904ZM53.2464 11.326V6.272H51.9444V4.438H53.2464C53.293 3.46733 53.6057 2.73933 54.1844 2.254C54.763 1.75933 55.6404 1.47933 56.8164 1.414L57.5304 1.386L57.6284 3.164L57.1524 3.192C56.611 3.22933 56.2377 3.32733 56.0324 3.486C55.8364 3.64467 55.7384 3.892 55.7384 4.228V4.438H60.6384V11.326H58.1464V6.272H55.7384V11.326H53.2464Z" fill="black"/>
<path d="M65.368 11.48C64.416 11.48 63.7253 11.242 63.296 10.766C62.8666 10.2807 62.652 9.55267 62.652 8.582V1.456H65.144V8.498C65.144 9.15133 65.4426 9.478 66.04 9.478C66.1333 9.478 66.2266 9.47333 66.32 9.464C66.4226 9.45467 66.5206 9.44067 66.614 9.422L66.586 11.326C66.2126 11.4287 65.8066 11.48 65.368 11.48Z" fill="black"/>
<path d="M70.7952 11.48C69.8431 11.48 69.1525 11.242 68.7232 10.766C68.2938 10.2807 68.0791 9.55267 68.0791 8.582V1.456H70.5712V8.498C70.5712 9.15133 70.8698 9.478 71.4671 9.478C71.5605 9.478 71.6538 9.47333 71.7472 9.464C71.8498 9.45467 71.9478 9.44067 72.0412 9.422L72.0132 11.326C71.6398 11.4287 71.2338 11.48 70.7952 11.48Z" fill="black"/>
<path d="M81.5582 11.48C80.7929 11.48 80.1255 11.3353 79.5562 11.046C78.9869 10.7567 78.5435 10.3413 78.2262 9.8C77.9089 9.25867 77.7502 8.61933 77.7502 7.882C77.7502 7.13533 77.9089 6.496 78.2262 5.964C78.5435 5.42267 78.9869 5.00733 79.5562 4.718C80.1255 4.42867 80.7929 4.284 81.5582 4.284C82.3235 4.284 82.9909 4.42867 83.5602 4.718C84.1295 5.00733 84.5682 5.42267 84.8762 5.964C85.1935 6.496 85.3522 7.13533 85.3522 7.882C85.3522 8.61933 85.1935 9.25867 84.8762 9.8C84.5682 10.3413 84.1295 10.7567 83.5602 11.046C82.9909 11.3353 82.3235 11.48 81.5582 11.48ZM81.5582 9.646C81.9315 9.646 82.2395 9.506 82.4822 9.226C82.7249 8.946 82.8462 8.498 82.8462 7.882C82.8462 7.25667 82.7249 6.80867 82.4822 6.538C82.2395 6.258 81.9315 6.118 81.5582 6.118C81.1755 6.118 80.8629 6.258 80.6202 6.538C80.3775 6.80867 80.2562 7.25667 80.2562 7.882C80.2562 8.498 80.3775 8.946 80.6202 9.226C80.8629 9.506 81.1755 9.646 81.5582 9.646Z" fill="black"/>
<path d="M89.6301 11.48C88.7341 11.48 88.0714 11.2373 87.6421 10.752C87.2221 10.2573 87.0121 9.506 87.0121 8.498V4.438H89.5041V8.568C89.5041 9.24 89.7934 9.576 90.3721 9.576C90.7081 9.576 90.9834 9.45467 91.1981 9.212C91.4127 8.96933 91.5201 8.64733 91.5201 8.246V4.438H94.0121V11.326H91.5761V10.472C91.1281 11.144 90.4794 11.48 89.6301 11.48Z" fill="black"/>
<path d="M99.6343 11.48C98.5889 11.48 97.8143 11.2373 97.3103 10.752C96.8063 10.2667 96.5543 9.534 96.5543 8.554V6.272H95.2663V4.438H96.5543V2.436H99.0463V4.438H101.006V6.272H99.0463V8.47C99.0463 9.142 99.3869 9.478 100.068 9.478C100.18 9.478 100.302 9.46867 100.432 9.45C100.572 9.422 100.726 9.38467 100.894 9.338L101.23 11.13C101.016 11.242 100.764 11.326 100.474 11.382C100.185 11.4473 99.9049 11.48 99.6343 11.48Z" fill="black"/>
<path d="M110.721 11.48C109.676 11.48 108.901 11.2373 108.397 10.752C107.893 10.2667 107.641 9.534 107.641 8.554V6.272H106.353V4.438H107.641V2.436H110.133V4.438H112.093V6.272H110.133V8.47C110.133 9.142 110.474 9.478 111.155 9.478C111.267 9.478 111.388 9.46867 111.519 9.45C111.659 9.422 111.813 9.38467 111.981 9.338L112.317 11.13C112.102 11.242 111.85 11.326 111.561 11.382C111.272 11.4473 110.992 11.48 110.721 11.48Z" fill="black"/>
<path d="M113.63 11.326V1.456H116.122V5.292C116.617 4.62 117.335 4.284 118.278 4.284C119.099 4.284 119.706 4.52667 120.098 5.012C120.499 5.49733 120.7 6.244 120.7 7.252V11.326H118.208V7.35C118.208 6.93 118.133 6.63133 117.984 6.454C117.844 6.27667 117.634 6.188 117.354 6.188C116.981 6.188 116.682 6.30933 116.458 6.552C116.234 6.78533 116.122 7.10267 116.122 7.504V11.326H113.63Z" fill="black"/>
<path d="M126.432 11.48C125.592 11.48 124.864 11.3353 124.248 11.046C123.642 10.7473 123.175 10.3273 122.848 9.786C122.522 9.24467 122.358 8.60533 122.358 7.868C122.358 7.168 122.512 6.54733 122.82 6.006C123.138 5.46467 123.567 5.04467 124.108 4.746C124.659 4.438 125.284 4.284 125.984 4.284C126.675 4.284 127.272 4.42867 127.776 4.718C128.29 5.00733 128.682 5.42267 128.952 5.964C129.232 6.496 129.372 7.12133 129.372 7.84V8.386H124.738C124.822 8.834 125.009 9.156 125.298 9.352C125.588 9.548 125.989 9.646 126.502 9.646C126.857 9.646 127.226 9.59467 127.608 9.492C128 9.38 128.346 9.22133 128.644 9.016L129.26 10.654C128.906 10.906 128.472 11.1067 127.958 11.256C127.445 11.4053 126.936 11.48 126.432 11.48ZM126.096 5.894C125.723 5.894 125.415 6.006 125.172 6.23C124.939 6.454 124.79 6.78067 124.724 7.21H127.328C127.3 6.77133 127.179 6.44467 126.964 6.23C126.759 6.006 126.47 5.894 126.096 5.894Z" fill="black"/>
<path d="M140.108 11.48C139.65 11.48 139.23 11.382 138.848 11.186C138.465 10.9807 138.18 10.7147 137.994 10.388V11.326H135.572V1.456H138.064V5.264C138.26 4.96533 138.54 4.72733 138.904 4.55C139.277 4.37267 139.678 4.284 140.108 4.284C140.705 4.284 141.228 4.42867 141.676 4.718C142.133 5.00733 142.488 5.42267 142.74 5.964C142.992 6.496 143.118 7.13533 143.118 7.882C143.118 8.61933 142.987 9.25867 142.726 9.8C142.474 10.3413 142.119 10.7567 141.662 11.046C141.214 11.3353 140.696 11.48 140.108 11.48ZM139.324 9.646C139.697 9.646 140.005 9.506 140.248 9.226C140.49 8.946 140.612 8.498 140.612 7.882C140.612 7.25667 140.49 6.80867 140.248 6.538C140.005 6.258 139.697 6.118 139.324 6.118C138.941 6.118 138.628 6.258 138.386 6.538C138.143 6.80867 138.022 7.25667 138.022 7.882C138.022 8.498 138.143 8.946 138.386 9.226C138.628 9.506 138.941 9.646 139.324 9.646Z" fill="black"/>
<path d="M148.565 11.48C147.725 11.48 146.997 11.3353 146.381 11.046C145.775 10.7473 145.308 10.3273 144.981 9.786C144.655 9.24467 144.491 8.60533 144.491 7.868C144.491 7.168 144.645 6.54733 144.953 6.006C145.271 5.46467 145.7 5.04467 146.241 4.746C146.792 4.438 147.417 4.284 148.117 4.284C148.808 4.284 149.405 4.42867 149.909 4.718C150.423 5.00733 150.815 5.42267 151.085 5.964C151.365 6.496 151.505 7.12133 151.505 7.84V8.386H146.871C146.955 8.834 147.142 9.156 147.431 9.352C147.721 9.548 148.122 9.646 148.635 9.646C148.99 9.646 149.359 9.59467 149.741 9.492C150.133 9.38 150.479 9.22133 150.777 9.016L151.393 10.654C151.039 10.906 150.605 11.1067 150.091 11.256C149.578 11.4053 149.069 11.48 148.565 11.48ZM148.229 5.894C147.856 5.894 147.548 6.006 147.305 6.23C147.072 6.454 146.923 6.78067 146.857 7.21H149.461C149.433 6.77133 149.312 6.44467 149.097 6.23C148.892 6.006 148.603 5.894 148.229 5.894Z" fill="black"/>
<path d="M155.855 11.48C154.903 11.48 154.212 11.242 153.783 10.766C153.354 10.2807 153.139 9.55267 153.139 8.582V1.456H155.631V8.498C155.631 9.15133 155.93 9.478 156.527 9.478C156.62 9.478 156.714 9.47333 156.807 9.464C156.91 9.45467 157.008 9.44067 157.101 9.422L157.073 11.326C156.7 11.4287 156.294 11.48 155.855 11.48Z" fill="black"/>
<path d="M161.984 11.48C161.219 11.48 160.551 11.3353 159.982 11.046C159.413 10.7567 158.969 10.3413 158.652 9.8C158.335 9.25867 158.176 8.61933 158.176 7.882C158.176 7.13533 158.335 6.496 158.652 5.964C158.969 5.42267 159.413 5.00733 159.982 4.718C160.551 4.42867 161.219 4.284 161.984 4.284C162.749 4.284 163.417 4.42867 163.986 4.718C164.555 5.00733 164.994 5.42267 165.302 5.964C165.619 6.496 165.778 7.13533 165.778 7.882C165.778 8.61933 165.619 9.25867 165.302 9.8C164.994 10.3413 164.555 10.7567 163.986 11.046C163.417 11.3353 162.749 11.48 161.984 11.48ZM161.984 9.646C162.357 9.646 162.665 9.506 162.908 9.226C163.15 8.946 163.272 8.498 163.272 7.882C163.272 7.25667 163.15 6.80867 162.908 6.538C162.665 6.258 162.357 6.118 161.984 6.118C161.601 6.118 161.288 6.258 161.046 6.538C160.803 6.80867 160.682 7.25667 160.682 7.882C160.682 8.498 160.803 8.946 161.046 9.226C161.288 9.506 161.601 9.646 161.984 9.646Z" fill="black"/>
<path d="M169.276 11.326L166.378 4.438H168.898L170.424 8.428L171.936 4.438H173.49L175.016 8.498L176.542 4.438H178.908L176.038 11.326H173.98L172.622 7.938L171.334 11.326H169.276Z" fill="black"/>
<path d="M187.27 11.48C186.682 11.48 186.159 11.3353 185.702 11.046C185.254 10.7567 184.899 10.3413 184.638 9.8C184.386 9.25867 184.26 8.61933 184.26 7.882C184.26 7.13533 184.386 6.496 184.638 5.964C184.899 5.42267 185.254 5.00733 185.702 4.718C186.159 4.42867 186.682 4.284 187.27 4.284C187.709 4.284 188.11 4.37733 188.474 4.564C188.847 4.74133 189.132 4.97467 189.328 5.264V1.456H191.82V11.326H189.384V10.374C189.207 10.71 188.927 10.9807 188.544 11.186C188.161 11.382 187.737 11.48 187.27 11.48ZM188.068 9.646C188.441 9.646 188.749 9.506 188.992 9.226C189.235 8.946 189.356 8.498 189.356 7.882C189.356 7.25667 189.235 6.80867 188.992 6.538C188.749 6.258 188.441 6.118 188.068 6.118C187.685 6.118 187.373 6.258 187.13 6.538C186.887 6.80867 186.766 7.25667 186.766 7.882C186.766 8.498 186.887 8.946 187.13 9.226C187.373 9.506 187.685 9.646 188.068 9.646Z" fill="black"/>
<path d="M197.576 11.48C196.736 11.48 196.008 11.3353 195.392 11.046C194.785 10.7473 194.318 10.3273 193.992 9.786C193.665 9.24467 193.502 8.60533 193.502 7.868C193.502 7.168 193.656 6.54733 193.964 6.006C194.281 5.46467 194.71 5.04467 195.252 4.746C195.802 4.438 196.428 4.284 197.128 4.284C197.818 4.284 198.416 4.42867 198.92 4.718C199.433 5.00733 199.825 5.42267 200.096 5.964C200.376 6.496 200.516 7.12133 200.516 7.84V8.386H195.882C195.966 8.834 196.152 9.156 196.442 9.352C196.731 9.548 197.132 9.646 197.646 9.646C198 9.646 198.369 9.59467 198.752 9.492C199.144 9.38 199.489 9.22133 199.788 9.016L200.404 10.654C200.049 10.906 199.615 11.1067 199.102 11.256C198.588 11.4053 198.08 11.48 197.576 11.48ZM197.24 5.894C196.866 5.894 196.558 6.006 196.316 6.23C196.082 6.454 195.933 6.78067 195.868 7.21H198.472C198.444 6.77133 198.322 6.44467 198.108 6.23C197.902 6.006 197.613 5.894 197.24 5.894Z" fill="black"/>
<path d="M205.707 11.48C204.661 11.48 203.887 11.2373 203.383 10.752C202.879 10.2667 202.627 9.534 202.627 8.554V6.272H201.339V4.438H202.627V2.436H205.119V4.438H207.079V6.272H205.119V8.47C205.119 9.142 205.459 9.478 206.141 9.478C206.253 9.478 206.374 9.46867 206.505 9.45C206.645 9.422 206.799 9.38467 206.967 9.338L207.303 11.13C207.088 11.242 206.836 11.326 206.547 11.382C206.257 11.4473 205.977 11.48 205.707 11.48Z" fill="black"/>
<path d="M211.01 11.48C210.478 11.48 210.006 11.382 209.596 11.186C209.194 10.99 208.877 10.724 208.644 10.388C208.42 10.0427 208.308 9.65067 208.308 9.212C208.308 8.71733 208.438 8.32533 208.7 8.036C208.961 7.73733 209.381 7.52733 209.96 7.406C210.538 7.27533 211.308 7.21 212.27 7.21H212.802V7.014C212.802 6.678 212.713 6.44 212.536 6.3C212.368 6.16 212.074 6.09 211.654 6.09C211.299 6.09 210.907 6.146 210.478 6.258C210.048 6.37 209.628 6.54267 209.218 6.776L208.588 5.138C208.821 4.97 209.12 4.82067 209.484 4.69C209.848 4.55933 210.23 4.46133 210.632 4.396C211.033 4.32133 211.411 4.284 211.766 4.284C212.914 4.284 213.763 4.53133 214.314 5.026C214.874 5.52067 215.154 6.3 215.154 7.364V11.326H212.83V10.346C212.708 10.7007 212.489 10.9807 212.172 11.186C211.854 11.382 211.467 11.48 211.01 11.48ZM211.57 9.856C211.915 9.856 212.204 9.744 212.438 9.52C212.68 9.296 212.802 9.002 212.802 8.638V8.386H212.27C211.719 8.386 211.313 8.44667 211.052 8.568C210.8 8.68 210.674 8.862 210.674 9.114C210.674 9.32867 210.748 9.506 210.898 9.646C211.056 9.786 211.28 9.856 211.57 9.856Z" fill="black"/>
<path d="M217.063 3.248V0.993999H219.681V3.248H217.063ZM217.133 11.326V4.438H219.625V11.326H217.133Z" fill="black"/>
<path d="M224.346 11.48C223.394 11.48 222.704 11.242 222.274 10.766C221.845 10.2807 221.63 9.55267 221.63 8.582V1.456H224.122V8.498C224.122 9.15133 224.421 9.478 225.018 9.478C225.112 9.478 225.205 9.47333 225.298 9.464C225.401 9.45467 225.499 9.44067 225.592 9.422L225.564 11.326C225.191 11.4287 224.785 11.48 224.346 11.48Z" fill="black"/>
<path d="M229.733 11.48C229.098 11.48 228.51 11.4147 227.969 11.284C227.437 11.1533 226.984 10.9713 226.611 10.738L227.185 9.128C227.53 9.324 227.932 9.48733 228.389 9.618C228.846 9.73933 229.299 9.8 229.747 9.8C230.092 9.8 230.34 9.75333 230.489 9.66C230.638 9.55733 230.713 9.42667 230.713 9.268C230.713 9.128 230.662 9.02533 230.559 8.96C230.466 8.88533 230.33 8.82933 230.153 8.792L228.599 8.54C228.02 8.44667 227.572 8.23667 227.255 7.91C226.938 7.58333 226.779 7.15867 226.779 6.636C226.779 6.15067 226.914 5.73533 227.185 5.39C227.456 5.03533 227.834 4.76467 228.319 4.578C228.804 4.382 229.36 4.284 229.985 4.284C230.48 4.284 230.97 4.34467 231.455 4.466C231.94 4.578 232.365 4.76467 232.729 5.026L232.113 6.608C231.842 6.42133 231.506 6.26733 231.105 6.146C230.704 6.01533 230.344 5.95 230.027 5.95C229.644 5.95 229.374 6.006 229.215 6.118C229.056 6.22067 228.977 6.34667 228.977 6.496C228.977 6.748 229.15 6.902 229.495 6.958L231.049 7.224C231.646 7.31733 232.104 7.52267 232.421 7.84C232.748 8.148 232.911 8.568 232.911 9.1C232.911 9.856 232.622 10.444 232.043 10.864C231.464 11.2747 230.694 11.48 229.733 11.48Z" fill="black"/>
<path d="M242.672 11.48C241.627 11.48 240.852 11.2373 240.348 10.752C239.844 10.2667 239.592 9.534 239.592 8.554V6.272H238.304V4.438H239.592V2.436H242.084V4.438H244.044V6.272H242.084V8.47C242.084 9.142 242.425 9.478 243.106 9.478C243.218 9.478 243.34 9.46867 243.47 9.45C243.61 9.422 243.764 9.38467 243.932 9.338L244.268 11.13C244.054 11.242 243.801 11.326 243.512 11.382C243.223 11.4473 242.943 11.48 242.672 11.48Z" fill="black"/>
<path d="M248.999 11.48C248.233 11.48 247.566 11.3353 246.997 11.046C246.427 10.7567 245.984 10.3413 245.667 9.8C245.349 9.25867 245.191 8.61933 245.191 7.882C245.191 7.13533 245.349 6.496 245.667 5.964C245.984 5.42267 246.427 5.00733 246.997 4.718C247.566 4.42867 248.233 4.284 248.999 4.284C249.764 4.284 250.431 4.42867 251.001 4.718C251.57 5.00733 252.009 5.42267 252.317 5.964C252.634 6.496 252.793 7.13533 252.793 7.882C252.793 8.61933 252.634 9.25867 252.317 9.8C252.009 10.3413 251.57 10.7567 251.001 11.046C250.431 11.3353 249.764 11.48 248.999 11.48ZM248.999 9.646C249.372 9.646 249.68 9.506 249.923 9.226C250.165 8.946 250.287 8.498 250.287 7.882C250.287 7.25667 250.165 6.80867 249.923 6.538C249.68 6.258 249.372 6.118 248.999 6.118C248.616 6.118 248.303 6.258 248.061 6.538C247.818 6.80867 247.697 7.25667 247.697 7.882C247.697 8.498 247.818 8.946 248.061 9.226C248.303 9.506 248.616 9.646 248.999 9.646Z" fill="black"/>
<path d="M60.2544 30.48C59.3024 30.48 58.6117 30.242 58.1824 29.766C57.7531 29.2807 57.5384 28.5527 57.5384 27.582V20.456H60.0304V27.498C60.0304 28.1513 60.3291 28.478 60.9264 28.478C61.0197 28.478 61.1131 28.4733 61.2064 28.464C61.3091 28.4547 61.4071 28.4407 61.5004 28.422L61.4724 30.326C61.0991 30.4287 60.6931 30.48 60.2544 30.48Z" fill="black"/>
<path d="M66.3832 30.48C65.6179 30.48 64.9506 30.3353 64.3812 30.046C63.8119 29.7567 63.3686 29.3413 63.0512 28.8C62.7339 28.2587 62.5752 27.6193 62.5752 26.882C62.5752 26.1353 62.7339 25.496 63.0512 24.964C63.3686 24.4227 63.8119 24.0073 64.3812 23.718C64.9506 23.4287 65.6179 23.284 66.3832 23.284C67.1486 23.284 67.8159 23.4287 68.3852 23.718C68.9546 24.0073 69.3932 24.4227 69.7012 24.964C70.0186 25.496 70.1772 26.1353 70.1772 26.882C70.1772 27.6193 70.0186 28.2587 69.7012 28.8C69.3932 29.3413 68.9546 29.7567 68.3852 30.046C67.8159 30.3353 67.1486 30.48 66.3832 30.48ZM66.3832 28.646C66.7566 28.646 67.0646 28.506 67.3072 28.226C67.5499 27.946 67.6712 27.498 67.6712 26.882C67.6712 26.2567 67.5499 25.8087 67.3072 25.538C67.0646 25.258 66.7566 25.118 66.3832 25.118C66.0006 25.118 65.6879 25.258 65.4452 25.538C65.2026 25.8087 65.0812 26.2567 65.0812 26.882C65.0812 27.498 65.2026 27.946 65.4452 28.226C65.6879 28.506 66.0006 28.646 66.3832 28.646Z" fill="black"/>
<path d="M75.2951 33C74.6045 33 73.9558 32.9347 73.3491 32.804C72.7518 32.6733 72.2384 32.4587 71.8091 32.16L72.4531 30.48C72.8078 30.6947 73.2278 30.8627 73.7131 30.984C74.2078 31.1053 74.6558 31.166 75.0571 31.166C75.6264 31.166 76.0511 31.0447 76.3311 30.802C76.6205 30.5687 76.7651 30.2 76.7651 29.696V29.052C76.5691 29.388 76.2751 29.654 75.8831 29.85C75.4911 30.046 75.0711 30.144 74.6231 30.144C74.0071 30.144 73.4705 30.004 73.0131 29.724C72.5558 29.4347 72.1964 29.0333 71.9351 28.52C71.6831 28.0067 71.5571 27.4047 71.5571 26.714C71.5571 26.0233 71.6831 25.4213 71.9351 24.908C72.1964 24.3947 72.5558 23.998 73.0131 23.718C73.4705 23.4287 74.0071 23.284 74.6231 23.284C75.0898 23.284 75.5145 23.3867 75.8971 23.592C76.2891 23.788 76.5738 24.0493 76.7511 24.376V23.438H79.1871V29.402C79.1871 30.606 78.8511 31.5067 78.1791 32.104C77.5071 32.7013 76.5458 33 75.2951 33ZM75.3931 28.31C75.8038 28.31 76.1305 28.17 76.3731 27.89C76.6158 27.61 76.7371 27.218 76.7371 26.714C76.7371 26.21 76.6158 25.818 76.3731 25.538C76.1305 25.258 75.8038 25.118 75.3931 25.118C74.9918 25.118 74.6698 25.258 74.4271 25.538C74.1845 25.818 74.0631 26.21 74.0631 26.714C74.0631 27.218 74.1845 27.61 74.4271 27.89C74.6698 28.17 74.9918 28.31 75.3931 28.31Z" fill="black"/>
<path d="M81.1328 22.248V19.994H83.7508V22.248H81.1328ZM81.2028 30.326V23.438H83.6948V30.326H81.2028Z" fill="black"/>
<path d="M85.7003 30.326V23.438H88.1223V24.376C88.365 24.0213 88.6776 23.7507 89.0603 23.564C89.443 23.3773 89.8723 23.284 90.3483 23.284C91.1696 23.284 91.7763 23.5267 92.1683 24.012C92.5696 24.4973 92.7703 25.244 92.7703 26.252V30.326H90.2783V26.35C90.2783 25.93 90.2036 25.6313 90.0543 25.454C89.9143 25.2767 89.7043 25.188 89.4243 25.188C89.0509 25.188 88.7523 25.3093 88.5283 25.552C88.3043 25.7853 88.1923 26.1027 88.1923 26.504V30.326H85.7003Z" fill="black"/>
<path d="M99.7364 32.846L101.122 29.85L98.3084 23.438H100.926L102.438 27.344L104.006 23.438H106.47L102.256 32.846H99.7364Z" fill="black"/>
<path d="M110.759 30.48C109.994 30.48 109.326 30.3353 108.757 30.046C108.188 29.7567 107.744 29.3413 107.427 28.8C107.11 28.2587 106.951 27.6193 106.951 26.882C106.951 26.1353 107.11 25.496 107.427 24.964C107.744 24.4227 108.188 24.0073 108.757 23.718C109.326 23.4287 109.994 23.284 110.759 23.284C111.524 23.284 112.192 23.4287 112.761 23.718C113.33 24.0073 113.769 24.4227 114.077 24.964C114.394 25.496 114.553 26.1353 114.553 26.882C114.553 27.6193 114.394 28.2587 114.077 28.8C113.769 29.3413 113.33 29.7567 112.761 30.046C112.192 30.3353 111.524 30.48 110.759 30.48ZM110.759 28.646C111.132 28.646 111.44 28.506 111.683 28.226C111.926 27.946 112.047 27.498 112.047 26.882C112.047 26.2567 111.926 25.8087 111.683 25.538C111.44 25.258 111.132 25.118 110.759 25.118C110.376 25.118 110.064 25.258 109.821 25.538C109.578 25.8087 109.457 26.2567 109.457 26.882C109.457 27.498 109.578 27.946 109.821 28.226C110.064 28.506 110.376 28.646 110.759 28.646Z" fill="black"/>
<path d="M118.831 30.48C117.935 30.48 117.272 30.2373 116.843 29.752C116.423 29.2573 116.213 28.506 116.213 27.498V23.438H118.705V27.568C118.705 28.24 118.994 28.576 119.573 28.576C119.909 28.576 120.184 28.4547 120.399 28.212C120.613 27.9693 120.721 27.6473 120.721 27.246V23.438H123.213V30.326H120.777V29.472C120.329 30.144 119.68 30.48 118.831 30.48Z" fill="black"/>
<path d="M125.223 30.326V23.438H127.645V24.6C127.962 23.8067 128.648 23.3727 129.703 23.298L130.389 23.242L130.529 25.342L129.171 25.468C128.676 25.5147 128.317 25.6547 128.093 25.888C127.869 26.112 127.757 26.448 127.757 26.896V30.326H125.223Z" fill="black"/>
<path d="M138.813 30.48C138.281 30.48 137.81 30.382 137.399 30.186C136.998 29.99 136.68 29.724 136.447 29.388C136.223 29.0427 136.111 28.6507 136.111 28.212C136.111 27.7173 136.242 27.3253 136.503 27.036C136.764 26.7373 137.184 26.5273 137.763 26.406C138.342 26.2753 139.112 26.21 140.073 26.21H140.605V26.014C140.605 25.678 140.516 25.44 140.339 25.3C140.171 25.16 139.877 25.09 139.457 25.09C139.102 25.09 138.71 25.146 138.281 25.258C137.852 25.37 137.432 25.5427 137.021 25.776L136.391 24.138C136.624 23.97 136.923 23.8207 137.287 23.69C137.651 23.5593 138.034 23.4613 138.435 23.396C138.836 23.3213 139.214 23.284 139.569 23.284C140.717 23.284 141.566 23.5313 142.117 24.026C142.677 24.5207 142.957 25.3 142.957 26.364V30.326H140.633V29.346C140.512 29.7007 140.292 29.9807 139.975 30.186C139.658 30.382 139.27 30.48 138.813 30.48ZM139.373 28.856C139.718 28.856 140.008 28.744 140.241 28.52C140.484 28.296 140.605 28.002 140.605 27.638V27.386H140.073C139.522 27.386 139.116 27.4467 138.855 27.568C138.603 27.68 138.477 27.862 138.477 28.114C138.477 28.3287 138.552 28.506 138.701 28.646C138.86 28.786 139.084 28.856 139.373 28.856Z" fill="black"/>
<path d="M148.45 30.48C147.675 30.48 146.999 30.3353 146.42 30.046C145.851 29.7567 145.407 29.3413 145.09 28.8C144.773 28.2587 144.614 27.6147 144.614 26.868C144.614 26.1213 144.773 25.482 145.09 24.95C145.407 24.4087 145.851 23.998 146.42 23.718C146.999 23.4287 147.675 23.284 148.45 23.284C148.907 23.284 149.36 23.3493 149.808 23.48C150.265 23.6013 150.639 23.774 150.928 23.998L150.27 25.706C150.055 25.538 149.803 25.4073 149.514 25.314C149.234 25.2113 148.968 25.16 148.716 25.16C148.221 25.16 147.839 25.3093 147.568 25.608C147.297 25.9067 147.162 26.3267 147.162 26.868C147.162 27.4187 147.297 27.848 147.568 28.156C147.839 28.4547 148.221 28.604 148.716 28.604C148.968 28.604 149.234 28.5573 149.514 28.464C149.803 28.3613 150.055 28.226 150.27 28.058L150.928 29.766C150.639 29.99 150.265 30.1673 149.808 30.298C149.351 30.4193 148.898 30.48 148.45 30.48Z" fill="black"/>
<path d="M155.655 30.48C154.88 30.48 154.203 30.3353 153.625 30.046C153.055 29.7567 152.612 29.3413 152.295 28.8C151.977 28.2587 151.819 27.6147 151.819 26.868C151.819 26.1213 151.977 25.482 152.295 24.95C152.612 24.4087 153.055 23.998 153.625 23.718C154.203 23.4287 154.88 23.284 155.655 23.284C156.112 23.284 156.565 23.3493 157.013 23.48C157.47 23.6013 157.843 23.774 158.133 23.998L157.475 25.706C157.26 25.538 157.008 25.4073 156.719 25.314C156.439 25.2113 156.173 25.16 155.921 25.16C155.426 25.16 155.043 25.3093 154.773 25.608C154.502 25.9067 154.367 26.3267 154.367 26.868C154.367 27.4187 154.502 27.848 154.773 28.156C155.043 28.4547 155.426 28.604 155.921 28.604C156.173 28.604 156.439 28.5573 156.719 28.464C157.008 28.3613 157.26 28.226 157.475 28.058L158.133 29.766C157.843 29.99 157.47 30.1673 157.013 30.298C156.555 30.4193 156.103 30.48 155.655 30.48Z" fill="black"/>
<path d="M162.831 30.48C162.066 30.48 161.399 30.3353 160.829 30.046C160.26 29.7567 159.817 29.3413 159.499 28.8C159.182 28.2587 159.023 27.6193 159.023 26.882C159.023 26.1353 159.182 25.496 159.499 24.964C159.817 24.4227 160.26 24.0073 160.829 23.718C161.399 23.4287 162.066 23.284 162.831 23.284C163.597 23.284 164.264 23.4287 164.833 23.718C165.403 24.0073 165.841 24.4227 166.149 24.964C166.467 25.496 166.625 26.1353 166.625 26.882C166.625 27.6193 166.467 28.2587 166.149 28.8C165.841 29.3413 165.403 29.7567 164.833 30.046C164.264 30.3353 163.597 30.48 162.831 30.48ZM162.831 28.646C163.205 28.646 163.513 28.506 163.755 28.226C163.998 27.946 164.119 27.498 164.119 26.882C164.119 26.2567 163.998 25.8087 163.755 25.538C163.513 25.258 163.205 25.118 162.831 25.118C162.449 25.118 162.136 25.258 161.893 25.538C161.651 25.8087 161.529 26.2567 161.529 26.882C161.529 27.498 161.651 27.946 161.893 28.226C162.136 28.506 162.449 28.646 162.831 28.646Z" fill="black"/>
<path d="M170.903 30.48C170.007 30.48 169.344 30.2373 168.915 29.752C168.495 29.2573 168.285 28.506 168.285 27.498V23.438H170.777V27.568C170.777 28.24 171.066 28.576 171.645 28.576C171.981 28.576 172.256 28.4547 172.471 28.212C172.686 27.9693 172.793 27.6473 172.793 27.246V23.438H175.285V30.326H172.849V29.472C172.401 30.144 171.752 30.48 170.903 30.48Z" fill="black"/>
<path d="M177.295 30.326V23.438H179.717V24.376C179.96 24.0213 180.273 23.7507 180.655 23.564C181.038 23.3773 181.467 23.284 181.943 23.284C182.765 23.284 183.371 23.5267 183.763 24.012C184.165 24.4973 184.365 25.244 184.365 26.252V30.326H181.873V26.35C181.873 25.93 181.799 25.6313 181.649 25.454C181.509 25.2767 181.299 25.188 181.019 25.188C180.646 25.188 180.347 25.3093 180.123 25.552C179.899 25.7853 179.787 26.1027 179.787 26.504V30.326H177.295Z" fill="black"/>
<path d="M189.958 30.48C188.912 30.48 188.138 30.2373 187.634 29.752C187.13 29.2667 186.878 28.534 186.878 27.554V25.272H185.59V23.438H186.878V21.436H189.37V23.438H191.33V25.272H189.37V27.47C189.37 28.142 189.71 28.478 190.392 28.478C190.504 28.478 190.625 28.4687 190.756 28.45C190.896 28.422 191.05 28.3847 191.218 28.338L191.554 30.13C191.339 30.242 191.087 30.326 190.798 30.382C190.508 30.4473 190.228 30.48 189.958 30.48Z" fill="black"/>
<path d="M193.055 30.326V27.778H195.645V30.326H193.055Z" fill="black"/>
</svg>
