<svg width="24" height="25" viewBox="0 0 24 25" fill="none" xmlns="http://www.w3.org/2000/svg">
<g clip-path="url(#clip0_2702_211)">
<path d="M23.2133 7.94331L16.7733 1.50331C16.28 1.00998 15.6 0.72998 14.8933 0.72998H2.66667C1.2 0.72998 0 1.92998 0 3.39665V22.0633C0 23.53 1.2 24.73 2.66667 24.73H21.3333C22.8 24.73 24 23.53 24 22.0633V9.83665C24 9.12998 23.72 8.44998 23.2133 7.94331ZM5.33333 6.06331H14.6667V8.72998H5.33333V6.06331ZM18.6667 19.3966H5.33333V16.73H18.6667V19.3966ZM18.6667 14.0633H5.33333V11.3966H18.6667V14.0633Z" fill="#7B8D9E"/>
</g>
<defs>
<clipPath id="clip0_2702_211">
<rect width="24" height="24" fill="white" transform="translate(0 0.72998)"/>
</clipPath>
</defs>
</svg>
