<svg width="375" height="44" viewBox="0 0 375 44" fill="none" xmlns="http://www.w3.org/2000/svg">
<rect width="375" height="44" fill="white"/>
<path d="M36.4167 17.9418C36.9387 17.9453 37.4465 18.0376 37.9401 18.2187C38.4373 18.3963 38.8847 18.6875 39.2824 19.0923C39.6802 19.4936 39.9962 20.0316 40.2306 20.7063C40.465 21.381 40.5821 22.2156 40.5821 23.2099C40.5857 24.1474 40.4863 24.9854 40.2838 25.7241C40.085 26.4592 39.7991 27.0806 39.4262 27.5884C39.0534 28.0962 38.6042 28.4833 38.0786 28.7496C37.553 29.016 36.9618 29.1491 36.3048 29.1491C35.6159 29.1491 35.0051 29.0142 34.4724 28.7443C33.9433 28.4744 33.5154 28.1051 33.1887 27.6364C32.862 27.1676 32.6613 26.6314 32.5868 26.0277H34.531C34.6304 26.4609 34.8329 26.8054 35.1383 27.0611C35.4472 27.3132 35.836 27.4393 36.3048 27.4393C37.0612 27.4393 37.6436 27.1108 38.052 26.4538C38.4603 25.7969 38.6645 24.8842 38.6645 23.7159H38.59C38.4159 24.0284 38.1905 24.2983 37.9135 24.5256C37.6365 24.7493 37.3222 24.9215 36.9706 25.0423C36.6226 25.163 36.2533 25.2234 35.8627 25.2234C35.2235 25.2234 34.6482 25.0707 34.1368 24.7653C33.629 24.4599 33.226 24.0408 32.9277 23.5082C32.6329 22.9755 32.4838 22.3665 32.4802 21.6811C32.4802 20.9709 32.6436 20.3335 32.9703 19.7688C33.3005 19.2006 33.7604 18.7532 34.3499 18.4265C34.9394 18.0962 35.6283 17.9347 36.4167 17.9418ZM36.422 19.5398C36.0385 19.5398 35.6922 19.6339 35.3833 19.8221C35.0779 20.0067 34.8364 20.2589 34.6588 20.5785C34.4848 20.8945 34.3978 21.2479 34.3978 21.6385C34.4014 22.0256 34.4884 22.3771 34.6588 22.6932C34.8329 23.0092 35.069 23.2596 35.3673 23.4442C35.6691 23.6289 36.0136 23.7212 36.4007 23.7212C36.6883 23.7212 36.9564 23.6662 37.205 23.5561C37.4536 23.446 37.6702 23.2933 37.8549 23.098C38.0431 22.8991 38.1887 22.6736 38.2917 22.4215C38.3982 22.1694 38.4497 21.9031 38.4461 21.6225C38.4461 21.2496 38.3574 20.9052 38.1798 20.5891C38.0058 20.2731 37.7661 20.0192 37.4607 19.8274C37.1588 19.6357 36.8126 19.5398 36.422 19.5398Z" fill="black"/>
<path d="M43.4001 27.6896C43.0769 27.6896 42.8 27.576 42.5691 27.3487C42.3383 27.1179 42.2247 26.8409 42.2282 26.5178C42.2247 26.1982 42.3383 25.9247 42.5691 25.6974C42.8 25.4702 43.0769 25.3565 43.4001 25.3565C43.7126 25.3565 43.9843 25.4702 44.2151 25.6974C44.4495 25.9247 44.5684 26.1982 44.572 26.5178C44.5684 26.7344 44.5116 26.9315 44.4015 27.109C44.295 27.2866 44.1529 27.4286 43.9754 27.5352C43.8014 27.6381 43.6096 27.6896 43.4001 27.6896ZM43.4001 22.283C43.0769 22.283 42.8 22.1694 42.5691 21.9421C42.3383 21.7113 42.2247 21.4343 42.2282 21.1111C42.2247 20.7915 42.3383 20.5181 42.5691 20.2908C42.8 20.06 43.0769 19.9446 43.4001 19.9446C43.7126 19.9446 43.9843 20.06 44.2151 20.2908C44.4495 20.5181 44.5684 20.7915 44.572 21.1111C44.5684 21.3242 44.5116 21.5195 44.4015 21.6971C44.295 21.8746 44.1529 22.0167 43.9754 22.1232C43.8014 22.2298 43.6096 22.283 43.4001 22.283Z" fill="black"/>
<path d="M46.1794 26.9759V25.4045L50.8083 18.0909H52.1187V20.3281H51.3197L48.2036 25.266V25.3512H54.6649V26.9759H46.1794ZM51.3836 29V26.4964L51.4049 25.7933V18.0909H53.2693V29H51.3836Z" fill="black"/>
<path d="M60.4924 18.0909V29H58.5162V20.0138H58.4523L55.9008 21.6438V19.8327L58.6121 18.0909H60.4924Z" fill="black"/>
<path fill-rule="evenodd" clip-rule="evenodd" d="M339.589 16.16H354.411C355.659 16.16 356.111 16.29 356.568 16.534C357.024 16.778 357.382 17.1361 357.626 17.5924C357.87 18.0487 358 18.5013 358 19.7494V24.0706C358 25.3187 357.87 25.7713 357.626 26.2276C357.382 26.6839 357.024 27.042 356.568 27.286C356.111 27.53 355.659 27.66 354.411 27.66H339.589C338.341 27.66 337.889 27.53 337.432 27.286C336.976 27.042 336.618 26.6839 336.374 26.2276C336.13 25.7713 336 25.3187 336 24.0706V19.7494C336 18.5013 336.13 18.0487 336.374 17.5924C336.618 17.1361 336.976 16.778 337.432 16.534C337.889 16.29 338.341 16.16 339.589 16.16ZM339.589 17.16C338.602 17.16 338.258 17.2265 337.904 17.4158C337.622 17.5666 337.407 17.782 337.256 18.064C337.067 18.4179 337 18.7625 337 19.7494V24.0706C337 25.0575 337.067 25.4021 337.256 25.756C337.407 26.038 337.622 26.2534 337.904 26.4042C338.258 26.5935 338.602 26.66 339.589 26.66H354.411C355.398 26.66 355.742 26.5935 356.096 26.4042C356.378 26.2534 356.593 26.038 356.744 25.756C356.933 25.4021 357 25.0575 357 24.0706V19.7494C357 18.7625 356.933 18.4179 356.744 18.064C356.593 17.782 356.378 17.5666 356.096 17.4158C355.742 17.2265 355.398 17.16 354.411 17.16H339.589ZM360.5 21.85C360.5 23.0866 359 23.85 359 23.85V19.85C359 19.85 360.5 20.6134 360.5 21.85Z" fill="#1A1B36" fill-opacity="0.36"/>
<path d="M338 20.6367C338 19.7406 338 19.2925 338.174 18.9503C338.328 18.6492 338.573 18.4044 338.874 18.251C339.216 18.0767 339.664 18.0767 340.56 18.0767H353.44C354.336 18.0767 354.784 18.0767 355.126 18.251C355.427 18.4044 355.672 18.6492 355.826 18.9503C356 19.2925 356 19.7406 356 20.6367V23.1833C356 24.0794 356 24.5275 355.826 24.8697C355.672 25.1708 355.427 25.4155 355.126 25.5689C354.784 25.7433 354.336 25.7433 353.44 25.7433H340.56C339.664 25.7433 339.216 25.7433 338.874 25.5689C338.573 25.4155 338.328 25.1708 338.174 24.8697C338 24.5275 338 24.0794 338 23.1833V20.6367Z" fill="black"/>
<path fill-rule="evenodd" clip-rule="evenodd" d="M307.623 17.5659C307.6 17.6818 307.6 17.8212 307.6 18.1V25.8C307.6 26.0788 307.6 26.2182 307.623 26.3341C307.718 26.8101 308.09 27.1823 308.566 27.2769C308.682 27.3 308.821 27.3 309.1 27.3C309.379 27.3 309.518 27.3 309.634 27.2769C310.11 27.1823 310.482 26.8101 310.577 26.3341C310.6 26.2182 310.6 26.0788 310.6 25.8V18.1C310.6 17.8212 310.6 17.6818 310.577 17.5659C310.482 17.0899 310.11 16.7177 309.634 16.6231C309.518 16.6 309.379 16.6 309.1 16.6C308.821 16.6 308.682 16.6 308.566 16.6231C308.09 16.7177 307.718 17.0899 307.623 17.5659ZM302.9 20.5C302.9 20.2212 302.9 20.0818 302.923 19.9659C303.018 19.4899 303.39 19.1177 303.866 19.0231C303.982 19 304.121 19 304.4 19C304.679 19 304.818 19 304.934 19.0231C305.41 19.1177 305.782 19.4899 305.877 19.9659C305.9 20.0818 305.9 20.2212 305.9 20.5V25.8C305.9 26.0788 305.9 26.2182 305.877 26.3341C305.782 26.8101 305.41 27.1823 304.934 27.2769C304.818 27.3 304.679 27.3 304.4 27.3C304.121 27.3 303.982 27.3 303.866 27.2769C303.39 27.1823 303.018 26.8101 302.923 26.3341C302.9 26.2182 302.9 26.0788 302.9 25.8V20.5ZM298.323 22.2659C298.3 22.3818 298.3 22.5212 298.3 22.8V25.8C298.3 26.0788 298.3 26.2182 298.323 26.3341C298.418 26.8101 298.79 27.1823 299.266 27.2769C299.382 27.3 299.521 27.3 299.8 27.3C300.079 27.3 300.218 27.3 300.334 27.2769C300.81 27.1823 301.182 26.8101 301.277 26.3341C301.3 26.2182 301.3 26.0788 301.3 25.8V22.8C301.3 22.5212 301.3 22.3818 301.277 22.2659C301.182 21.7899 300.81 21.4177 300.334 21.3231C300.218 21.3 300.079 21.3 299.8 21.3C299.521 21.3 299.382 21.3 299.266 21.3231C298.79 21.4177 298.418 21.7899 298.323 22.2659ZM293.523 24.2659C293.5 24.3818 293.5 24.5212 293.5 24.8V25.8C293.5 26.0788 293.5 26.2182 293.523 26.3341C293.618 26.8101 293.99 27.1823 294.466 27.2769C294.582 27.3 294.721 27.3 295 27.3C295.279 27.3 295.418 27.3 295.534 27.2769C296.01 27.1823 296.382 26.8101 296.477 26.3341C296.5 26.2182 296.5 26.0788 296.5 25.8V24.8C296.5 24.5212 296.5 24.3818 296.477 24.2659C296.382 23.7899 296.01 23.4177 295.534 23.3231C295.418 23.3 295.279 23.3 295 23.3C294.721 23.3 294.582 23.3 294.466 23.3231C293.99 23.4177 293.618 23.7899 293.523 24.2659Z" fill="black"/>
<path fill-rule="evenodd" clip-rule="evenodd" d="M323.3 18.6964C325.535 18.6965 327.684 19.555 329.303 21.0946C329.425 21.2134 329.62 21.2119 329.74 21.0912L330.906 19.9148C330.967 19.8536 331 19.7706 331 19.6843C330.999 19.598 330.965 19.5155 330.903 19.455C326.653 15.3817 319.947 15.3817 315.697 19.455C315.635 19.5154 315.601 19.598 315.6 19.6843C315.599 19.7705 315.633 19.8535 315.694 19.9148L316.86 21.0912C316.98 21.2121 317.175 21.2136 317.297 21.0946C318.917 19.5549 321.066 18.6963 323.3 18.6964ZM323.3 22.5237C324.528 22.5237 325.712 22.98 326.622 23.804C326.745 23.921 326.939 23.9184 327.059 23.7983L328.223 22.6219C328.285 22.5602 328.319 22.4765 328.318 22.3895C328.317 22.3025 328.281 22.2195 328.218 22.1591C325.447 19.5813 321.156 19.5813 318.385 22.1591C318.322 22.2195 318.286 22.3025 318.286 22.3896C318.285 22.4766 318.319 22.5603 318.38 22.6219L319.544 23.7983C319.664 23.9184 319.858 23.921 319.981 23.804C320.891 22.9805 322.074 22.5242 323.3 22.5237ZM325.538 25.3313C325.6 25.2702 325.635 25.1861 325.633 25.0989C325.631 25.0117 325.593 24.929 325.529 24.8705C324.242 23.7826 322.358 23.7826 321.072 24.8705C321.008 24.929 320.97 25.0116 320.968 25.0988C320.966 25.1861 321 25.2702 321.063 25.3313L323.077 27.3639C323.136 27.4236 323.216 27.4572 323.3 27.4572C323.384 27.4572 323.465 27.4236 323.524 27.3639L325.538 25.3313Z" fill="black"/>
</svg>
