<svg width="225" height="23" viewBox="0 0 225 23" fill="none" xmlns="http://www.w3.org/2000/svg">
<path d="M6.72227 18.41L0.650269 1.49H5.16227L8.69027 12.098L12.5063 1.49H15.6263L19.2743 12.314L22.9703 1.49H27.2183L21.0983 18.41H17.5703L13.9463 8.234L10.2503 18.41H6.72227Z" fill="black"/>
<path d="M34.4794 18.674C33.0394 18.674 31.7914 18.426 30.7354 17.93C29.6954 17.418 28.8954 16.698 28.3354 15.77C27.7754 14.842 27.4954 13.746 27.4954 12.482C27.4954 11.282 27.7594 10.218 28.2874 9.29C28.8314 8.362 29.5674 7.642 30.4954 7.13C31.4394 6.602 32.5114 6.338 33.7114 6.338C34.8954 6.338 35.9194 6.586 36.7834 7.082C37.6634 7.578 38.3354 8.29 38.7994 9.218C39.2794 10.13 39.5194 11.202 39.5194 12.434V13.37H31.5754C31.7194 14.138 32.0394 14.69 32.5354 15.026C33.0314 15.362 33.7194 15.53 34.5994 15.53C35.2074 15.53 35.8394 15.442 36.4954 15.266C37.1674 15.074 37.7594 14.802 38.2714 14.45L39.3274 17.258C38.7194 17.69 37.9754 18.034 37.0954 18.29C36.2154 18.546 35.3434 18.674 34.4794 18.674ZM33.9034 9.098C33.2634 9.098 32.7354 9.29 32.3194 9.674C31.9194 10.058 31.6634 10.618 31.5514 11.354H36.0154C35.9674 10.602 35.7594 10.042 35.3914 9.674C35.0394 9.29 34.5434 9.098 33.9034 9.098Z" fill="black"/>
<path d="M46.9759 18.674C45.3439 18.674 44.1599 18.266 43.4239 17.45C42.6879 16.618 42.3199 15.37 42.3199 13.706V1.49H46.5919V13.562C46.5919 14.682 47.1039 15.242 48.1279 15.242C48.2879 15.242 48.4479 15.234 48.6079 15.218C48.7839 15.202 48.9519 15.178 49.1119 15.146L49.0639 18.41C48.4239 18.586 47.7279 18.674 46.9759 18.674Z" fill="black"/>
<path d="M57.5305 18.674C56.2025 18.674 55.0425 18.426 54.0505 17.93C53.0745 17.434 52.3145 16.722 51.7705 15.794C51.2265 14.866 50.9545 13.762 50.9545 12.482C50.9545 11.202 51.2265 10.106 51.7705 9.194C52.3145 8.266 53.0745 7.562 54.0505 7.082C55.0425 6.586 56.2025 6.338 57.5305 6.338C58.3145 6.338 59.0905 6.45 59.8585 6.674C60.6425 6.882 61.2825 7.178 61.7785 7.562L60.6505 10.49C60.2825 10.202 59.8505 9.978 59.3545 9.818C58.8745 9.642 58.4185 9.554 57.9865 9.554C57.1385 9.554 56.4825 9.81 56.0185 10.322C55.5545 10.834 55.3225 11.554 55.3225 12.482C55.3225 13.426 55.5545 14.162 56.0185 14.69C56.4825 15.202 57.1385 15.458 57.9865 15.458C58.4185 15.458 58.8745 15.378 59.3545 15.218C59.8505 15.042 60.2825 14.81 60.6505 14.522L61.7785 17.45C61.2825 17.834 60.6425 18.138 59.8585 18.362C59.0745 18.57 58.2985 18.674 57.5305 18.674Z" fill="black"/>
<path d="M69.8331 18.674C68.5211 18.674 67.3771 18.426 66.4011 17.93C65.4251 17.434 64.6651 16.722 64.1211 15.794C63.5771 14.866 63.3051 13.77 63.3051 12.506C63.3051 11.226 63.5771 10.13 64.1211 9.218C64.6651 8.29 65.4251 7.578 66.4011 7.082C67.3771 6.586 68.5211 6.338 69.8331 6.338C71.1451 6.338 72.2891 6.586 73.2651 7.082C74.2411 7.578 74.9931 8.29 75.5211 9.218C76.0651 10.13 76.3371 11.226 76.3371 12.506C76.3371 13.77 76.0651 14.866 75.5211 15.794C74.9931 16.722 74.2411 17.434 73.2651 17.93C72.2891 18.426 71.1451 18.674 69.8331 18.674ZM69.8331 15.53C70.4731 15.53 71.0011 15.29 71.4171 14.81C71.8331 14.33 72.0411 13.562 72.0411 12.506C72.0411 11.434 71.8331 10.666 71.4171 10.202C71.0011 9.722 70.4731 9.482 69.8331 9.482C69.1771 9.482 68.6411 9.722 68.2251 10.202C67.8091 10.666 67.6011 11.434 67.6011 12.506C67.6011 13.562 67.8091 14.33 68.2251 14.81C68.6411 15.29 69.1771 15.53 69.8331 15.53Z" fill="black"/>
<path d="M79.3026 18.41V6.602H83.4546V8.186C83.8226 7.626 84.3106 7.178 84.9186 6.842C85.5426 6.506 86.2546 6.338 87.0546 6.338C87.8546 6.338 88.5426 6.514 89.1186 6.866C89.7106 7.218 90.1586 7.762 90.4626 8.498C90.8626 7.81 91.4066 7.282 92.0946 6.914C92.7826 6.53 93.5426 6.338 94.3746 6.338C95.7506 6.338 96.7666 6.754 97.4226 7.586C98.0946 8.402 98.4306 9.682 98.4306 11.426V18.41H94.1586V11.546C94.1586 10.858 94.0546 10.362 93.8466 10.058C93.6386 9.754 93.2946 9.602 92.8146 9.602C92.2226 9.602 91.7666 9.81 91.4466 10.226C91.1426 10.642 90.9906 11.234 90.9906 12.002V18.41H86.7186V11.546C86.7186 10.858 86.6146 10.362 86.4066 10.058C86.1986 9.754 85.8546 9.602 85.3746 9.602C84.7986 9.602 84.3506 9.81 84.0306 10.226C83.7266 10.642 83.5746 11.234 83.5746 12.002V18.41H79.3026Z" fill="black"/>
<path d="M108.303 18.674C106.863 18.674 105.615 18.426 104.559 17.93C103.519 17.418 102.719 16.698 102.159 15.77C101.599 14.842 101.319 13.746 101.319 12.482C101.319 11.282 101.583 10.218 102.111 9.29C102.655 8.362 103.391 7.642 104.319 7.13C105.263 6.602 106.335 6.338 107.535 6.338C108.719 6.338 109.743 6.586 110.607 7.082C111.487 7.578 112.159 8.29 112.623 9.218C113.103 10.13 113.343 11.202 113.343 12.434V13.37H105.399C105.543 14.138 105.863 14.69 106.359 15.026C106.855 15.362 107.543 15.53 108.423 15.53C109.031 15.53 109.663 15.442 110.319 15.266C110.991 15.074 111.583 14.802 112.095 14.45L113.151 17.258C112.543 17.69 111.799 18.034 110.919 18.29C110.039 18.546 109.167 18.674 108.303 18.674ZM107.727 9.098C107.087 9.098 106.559 9.29 106.143 9.674C105.743 10.058 105.487 10.618 105.375 11.354H109.839C109.791 10.602 109.583 10.042 109.215 9.674C108.863 9.29 108.367 9.098 107.727 9.098Z" fill="black"/>
<path d="M130.163 18.674C128.371 18.674 127.043 18.258 126.179 17.426C125.315 16.594 124.883 15.338 124.883 13.658V9.746H122.675V6.602H124.883V3.17H129.155V6.602H132.515V9.746H129.155V13.514C129.155 14.666 129.739 15.242 130.907 15.242C131.099 15.242 131.307 15.226 131.531 15.194C131.771 15.146 132.035 15.082 132.323 15.002L132.899 18.074C132.531 18.266 132.099 18.41 131.603 18.506C131.107 18.618 130.627 18.674 130.163 18.674Z" fill="black"/>
<path d="M141.008 18.674C139.696 18.674 138.552 18.426 137.576 17.93C136.6 17.434 135.84 16.722 135.296 15.794C134.752 14.866 134.48 13.77 134.48 12.506C134.48 11.226 134.752 10.13 135.296 9.218C135.84 8.29 136.6 7.578 137.576 7.082C138.552 6.586 139.696 6.338 141.008 6.338C142.32 6.338 143.464 6.586 144.44 7.082C145.416 7.578 146.168 8.29 146.696 9.218C147.24 10.13 147.512 11.226 147.512 12.506C147.512 13.77 147.24 14.866 146.696 15.794C146.168 16.722 145.416 17.434 144.44 17.93C143.464 18.426 142.32 18.674 141.008 18.674ZM141.008 15.53C141.648 15.53 142.176 15.29 142.592 14.81C143.008 14.33 143.216 13.562 143.216 12.506C143.216 11.434 143.008 10.666 142.592 10.202C142.176 9.722 141.648 9.482 141.008 9.482C140.352 9.482 139.816 9.722 139.4 10.202C138.984 10.666 138.776 11.434 138.776 12.506C138.776 13.562 138.984 14.33 139.4 14.81C139.816 15.29 140.352 15.53 141.008 15.53Z" fill="black"/>
<path d="M158.545 18.41V1.49H162.961V14.738H170.497V18.41H158.545Z" fill="black"/>
<path d="M179.115 18.674C177.803 18.674 176.659 18.426 175.683 17.93C174.707 17.434 173.947 16.722 173.403 15.794C172.859 14.866 172.587 13.77 172.587 12.506C172.587 11.226 172.859 10.13 173.403 9.218C173.947 8.29 174.707 7.578 175.683 7.082C176.659 6.586 177.803 6.338 179.115 6.338C180.427 6.338 181.571 6.586 182.547 7.082C183.523 7.578 184.275 8.29 184.803 9.218C185.347 10.13 185.619 11.226 185.619 12.506C185.619 13.77 185.347 14.866 184.803 15.794C184.275 16.722 183.523 17.434 182.547 17.93C181.571 18.426 180.427 18.674 179.115 18.674ZM179.115 15.53C179.755 15.53 180.283 15.29 180.699 14.81C181.115 14.33 181.323 13.562 181.323 12.506C181.323 11.434 181.115 10.666 180.699 10.202C180.283 9.722 179.755 9.482 179.115 9.482C178.459 9.482 177.923 9.722 177.507 10.202C177.091 10.666 176.883 11.434 176.883 12.506C176.883 13.562 177.091 14.33 177.507 14.81C177.923 15.29 178.459 15.53 179.115 15.53Z" fill="black"/>
<path d="M194.392 22.994C193.208 22.994 192.096 22.882 191.056 22.658C190.032 22.434 189.152 22.066 188.416 21.554L189.52 18.674C190.128 19.042 190.848 19.33 191.68 19.538C192.528 19.746 193.296 19.85 193.984 19.85C194.96 19.85 195.688 19.642 196.168 19.226C196.664 18.826 196.912 18.194 196.912 17.33V16.226C196.576 16.802 196.072 17.258 195.4 17.594C194.728 17.93 194.008 18.098 193.24 18.098C192.184 18.098 191.264 17.858 190.48 17.378C189.696 16.882 189.08 16.194 188.632 15.314C188.2 14.434 187.984 13.402 187.984 12.218C187.984 11.034 188.2 10.002 188.632 9.122C189.08 8.242 189.696 7.562 190.48 7.082C191.264 6.586 192.184 6.338 193.24 6.338C194.04 6.338 194.768 6.514 195.424 6.866C196.096 7.202 196.584 7.65 196.888 8.21V6.602H201.064V16.826C201.064 18.89 200.488 20.434 199.336 21.458C198.184 22.482 196.536 22.994 194.392 22.994ZM194.56 14.954C195.264 14.954 195.824 14.714 196.24 14.234C196.656 13.754 196.864 13.082 196.864 12.218C196.864 11.354 196.656 10.682 196.24 10.202C195.824 9.722 195.264 9.482 194.56 9.482C193.872 9.482 193.32 9.722 192.904 10.202C192.488 10.682 192.28 11.354 192.28 12.218C192.28 13.082 192.488 13.754 192.904 14.234C193.32 14.714 193.872 14.954 194.56 14.954Z" fill="black"/>
<path d="M204.4 4.562V0.697998H208.888V4.562H204.4ZM204.52 18.41V6.602H208.792V18.41H204.52Z" fill="black"/>
<path d="M212.23 18.41V6.602H216.382V8.21C216.798 7.602 217.334 7.138 217.99 6.818C218.646 6.498 219.382 6.338 220.198 6.338C221.606 6.338 222.646 6.754 223.318 7.586C224.006 8.418 224.35 9.698 224.35 11.426V18.41H220.078V11.594C220.078 10.874 219.95 10.362 219.694 10.058C219.454 9.754 219.094 9.602 218.614 9.602C217.974 9.602 217.462 9.81 217.078 10.226C216.694 10.626 216.502 11.17 216.502 11.858V18.41H212.23Z" fill="black"/>
</svg>
