<svg width="16" height="11" viewBox="0 0 16 11" fill="none" xmlns="http://www.w3.org/2000/svg">
<path fill-rule="evenodd" clip-rule="evenodd" d="M8.33045 2.29454C10.5463 2.29464 12.6775 3.14607 14.2835 4.67287C14.4044 4.79075 14.5977 4.78926 14.7168 4.66954L15.8728 3.50287C15.9331 3.44215 15.9667 3.3599 15.9662 3.27432C15.9657 3.18874 15.9311 3.10688 15.8701 3.04687C11.655 -0.992675 5.00522 -0.992675 0.79012 3.04687C0.729062 3.10684 0.694418 3.18867 0.693855 3.27425C0.693292 3.35983 0.726856 3.44211 0.78712 3.50287L1.94345 4.66954C2.06248 4.78944 2.25593 4.79093 2.37679 4.67287C3.98294 3.14597 6.11434 2.29453 8.33045 2.29454ZM8.33045 6.09021C9.54794 6.09013 10.722 6.54266 11.6245 7.35987C11.7465 7.47585 11.9388 7.47334 12.0578 7.35421L13.2125 6.18754C13.2733 6.12634 13.307 6.04333 13.3061 5.95706C13.3052 5.8708 13.2698 5.78849 13.2078 5.72854C10.4596 3.17216 6.20365 3.17216 3.45545 5.72854C3.39338 5.78848 3.35796 5.87084 3.35714 5.95713C3.35633 6.04342 3.39019 6.12643 3.45112 6.18754L4.60545 7.35421C4.72444 7.47334 4.91672 7.47585 5.03879 7.35987C5.94066 6.5432 7.11377 6.09071 8.33045 6.09021ZM10.6434 8.64402C10.6452 8.73053 10.6112 8.81393 10.5495 8.87454L8.55212 10.8902C8.49357 10.9494 8.41374 10.9828 8.33045 10.9828C8.24716 10.9828 8.16734 10.9494 8.10879 10.8902L6.11112 8.87454C6.04941 8.81389 6.01546 8.73046 6.01729 8.64395C6.01912 8.55745 6.05657 8.47553 6.12079 8.41754C7.39636 7.33866 9.26455 7.33866 10.5401 8.41754C10.6043 8.47557 10.6417 8.55752 10.6434 8.64402Z" fill="#141023"/>
</svg>
